<?xml version="1.0" encoding="UTF-8"?><svg id="Camada_1" xmlns="http://www.w3.org/2000/svg" viewBox="0 0 474.58826 306.68399"><defs><style>.cls-1{fill:#5f5aa4;}</style></defs><path class="cls-1" d="M466.41918,184.89817c-.22591,1.12953.55131.84031.75913,1.25594.4699.96694.39754,5.33153-.76817,6.08139-.13546.63249.37956.94885-.79509.79531-.31636,2.9187-1.44589,4.70786-2.39474,7.18379-.04512.11759.04523.28018,0,.39754-.99386,2.5302-1.79821,2.60256-2.59329,4.38268-3.01819,6.71388-5.00613,13.64463-9.11767,20.01524-1.94271,3.0001-4.84343,4.9609-7.2471,7.51824-.76806.82222-2.48497,3.65973-3.59642,4.28318-.1445.08141-.27113.12641-.3885.12641-.18973,0-.35243-.045-.49704-.12641-1.25605-.7139-.83127-4.26509-2.29525-4.26509-.60536,0-2.25002,2.34025-3.74092,4.26509-.23495.31614-.47895.62345-.70486.90363-.28018.34349-.55131.65058-.78626.90363-.34327.35232-.62345.58749-.84031.64154-.97588.27113-1.41876-.09023-1.69882-.64154-.14461-.27113-.24389-.59631-.34338-.90363-.11737-.34349-.23495-.66867-.42468-.90363q0-.00905-.00905-.01809c-.39754-.4699-1.04813-.16259-1.62657-1.06622-1.11144-1.74416-.26198-4.00322.79531-5.58457l5.1054-9.46072c.14461-.61462-.13546-5.11467-.31625-5.30439-.50597-.54226-4.72595,1.52708-3.58737-3.18983-1.91568.87649-2.34036,1.23785-3.98502-.39754-.06332,1.23785-1.3283,1.69871-2.00602,2.38548-1.39162,1.43685-3.09938,2.99106-4.38268,4.39172-2.54818,2.76493-6.70484,10.01203-7.98792,13.57249-.1627.46086-.93981,3.11747-1.36449,4.67168-.0995.3885-.18984.70486-.23495.90363-.02714.10832-.03618.18068-.03618.20782,0,.27113.03618.49704.09034.69581.17175.57822.5512.89458.7952,1.31021.34338.59653.39754,1.40067-.90363,3.52406-.33434.53322-1.06622.93098-1.13858,1.04835-1.92473,3.40669-1.75298,6.24398-2.89156,9.65067-.03618.10854-.07236.20782-.10854.31636-.08119.22591-.16259.44277-.25293.66867-.11748.29827-.23495.59631-.37052.90363-.12641.29827-.26209.59631-.39754.90363-1.16571,2.50306-2.66565,5.11445-3.75007,7.51801-1.95186,4.3465-4.1025,14.74725-10.39171,13.5544-.83138-.16259-.85851-.72272-.98492-.79509-.49704-.25304-.88554-.17164-1.43685-.75891-.4699-.52417-.37041-.82244-.56013-1.22903-.04523-.10832.04512-.28018,0-.40659-2.15979-.40681-.6507-3.36169-2.19597-4.78022-.57822.8584-1.0029,1.3283-1.79821,1.98793-1.30117,1.09335-1.51803,1.78916-2.79207.39754-1.14762-1.25594-1.00312-3.68665-1.98804-4.20178-1.07537-.54226-2.3675.3254-3.68676.1445-1.44589-.20782-3.83137-1.99698-4.20189-3.41551-.07225-.28922-.49704-2.92796-.49704-3.0996v-6.57843c-.74997-.244-1.25605.3254-1.77107.75913-.35243.30709-.7139.55109-1.16571.41563-.05416-.01809-.18973-.17164-.38861-.41563-.18068-.23495-.41563-.54226-.66867-.90363-.21686-.30731-.46086-.64154-.69581-.98503-.74082-1.05717-1.47281-2.15053-1.68967-2.46688-.27113-.39754-.7139-.66867-.97599-1.21094-.37945-.81318-.00905-2.11435-1.02099-2.37643.09928.50608-.18984.80435-.39765,1.19285-2.00613,3.84946-2.97297,1.43685-5.58446.39754-.7139-.27113-.56918-.54204-1.4096-.02714-.54215.33445-2.5302,2.81942-3.68676,4.491-.26209.37967-.48799.72295-.64165.98503-.09939.19877-.17175.34327-.19877.44277-.03618.15355-.02714.30731.01798.46086.08141.289.26209.57822.42479.90363.14461.28018.28007.57822.32529.91267.37945,2.75611-4.36459,10.50003-5.68385,13.50917-1.83439,4.20178-3.15365,8.62063-5.23203,12.71409-.90363,1.77107-6.29825,11.19584-7.45492,11.71097-.55109.244-4.45482-3.30719-5.19585-3.99418-1.70776-1.58135-3.45169-3.30719-4.78916-5.21372-2.99999.55109-3.23494-.13568-5.3676-1.78938-3.44276-2.64756-4.93377-4.59932-7.40065-7.96983-1.13858-1.55421-2.38548-3.11747-3.45192-4.72595-1.95175-2.97297-1.03004-4.88876-4.75297-.88554-3.83148,7.70774-6.59652,20.06951-11.96412,26.73817-3.26197,4.03941-5.50295-1.61753-7.5542-3.97587-.66867-.75913-1.43685-1.33735-2.20491-1.98793-1.78012-1.01217-3.88553.83127-5.31333.35232-1.26499-.43372-2.14159-4.90663-4.54527-5.4489-1.21083-.27996-4.9609.01809-6.08139.52417-1.54517.68677-3.02713,4.54527-4.02109,5.95498-2.50306,3.58737-8.25916,10.11153-11.75619,12.58746-3.18078,2.25002-3.83137-1.26521-5.58435-3.19887-2.16884-2.41261-4.01216-3.51501-7.36469-2.97297l-4.40959-3.80423c-.7139-.40659-1.43685-.48799-2.18682-1.20167-.80424-.76817-.91267-1.50921-1.28319-2.19597-.03618-.0631-.07225-.13546-.11737-.19877-.3254-.50608-.91267-.93981-1.20189-1.59039-.10843-.25304-.37041-.60536-.39754-.80435-.39765-.03596-.68677-.74082-.79531-.79509-.21686-.09928-.74997.01809-1.15656-.22591-1.38258-.81318-2.27716-2.38548-4.03025-1.56326-.97588.46086-4.11144,5.90071-5.79217,7.36447-1.85248,1.60848-2.98201,1.77107-5.06944,2.52115-.74986.27113-1.20167.99408-2.08732,1.03026-2.28609.09023-8.3495-1.21094-10.473-2.26811-2.84645-1.41876-2.15064-2.18693-3.43383-3.94895-.21686-.28922-.89458-.40659-1.26499-.92172-.69581-.96694-.75913-2.09648-1.82534-2.97275-1.70798-1.40067-3.91277-.96694-5.96402-1.01217-1.21083.7139-2.17766,1.86152-3.59642,2.39452-1.45483.56035-1.1024-.7139-2.2862-1.11144-.56013-.18973-1.13858-.0631-1.69871-.08119v.39754c-.85851,2.13244-6.75911,8.33141-8.97306,8.01527-.97588-.14472-.84947-1.12953-1.2651-1.23807-1.67169-.46086-1.15667.58727-1.73489,1.39162-2.12361,2.95488-2.9187,2.23193-5.32248,3.86733-2.71088,1.83461-6.29825,5.53935-9.64163,5.54839-2.18671.01809-5.97296-1.37353-7.7351-2.6747-4.82534-3.56024,3.67782-6.41584,6.1628-8.17787.04523-.04523.10843-.0995.15355-.15355.00905,0,.00905-.00905.00905-.00905.83138-1.07526-.47895-1.28308-.72284-2.06934-.49693-1.64466.88554-3.74114,2.33132-4.50004,1.71691-3.56024-.23495-2.06934-1.00301-3.58737-.83138-1.65371,2.2862-7.31946,3.24399-9.13576.37956-.72272,1.72596-2.0603,1.68989-2.56616-.06332-.6689-1.75309-3.958-2.34952-4.43695-1.16571-.93076-2.16862-.37945-3.2891-.7139-2.62969-.777-1.32841-6.09948-.28922-7.88864-.18973-1.8163-.93076-2.05125-1.59039-.39754-1.1838,2.90965-.8584,3.71378-3.3886,6.3887-2.01507,2.13244-4.66263,3.18078-6.45191,4.91568-1.58135,1.53612-2.80122,4.70786-5.32237,5.4489-.06321.09045.06332.31636,0,.39754-2.06934,2.81942-7.20188,9.51522-10.0031,11.3496-1.21987.79509-2.38559.37945-2.97297-.96694-.22591-.50586,2.9819-5.84644,3.4699-6.91266.62356-1.35544.90363-3.18983,1.50005-4.491.93076-2.03316,3.78625-4.27414,2.41272-6.56034-6.10852,1.68062-5.55733-3.2441-2.79229-6.7772.04523-.11759-.03607-.28922,0-.39776.70486-1.81608,1.85248-3.64142,2.75611-5.52104.13557-.29827.28018-.59653.40659-.90363.12663-.29827.244-.59653.35254-.90363.11737-.3254.21686-.65058.29805-.98503.07236-.28922.13568-.57822.18079-.86745-.52406.18973-.85851.49704-1.09335.86745-.19888.29827-.32529.64176-.45181.98503-.09939.30709-.19888.6144-.32529.90363-.07236.18068-.15366.34327-.25304.50608-.08141.12641-.17164.26209-.28018.39754-1.20178,1.60848-3.89457,3.95778-4.38257.90363-.04512-.27113-.04512-.56918,0-.90363.02714-.28018.0813-.58727.17175-.90363.07225-.28922.17164-.58727.28007-.90363s.244-.64154.38861-.98503c1.62657-3.82232,5.02422-8.82845,5.8193-11.56647.15366-.54204.50608-1.6354.45181-2.36739,0-.10832-.01809-.19877-.04523-.28922-.09023-.289-.28911-.46086-.67772-.41563-.09023.14472-.18068.28018-.27102.41563-.07225.0995-.13557.18973-.20782.28922-2.46699,3.45192-5.46687,4.91568-5.22299,0,.00905-.09045.01809-.18973.02714-.28922.01798-.19877.03607-.39754.05416-.6144.02714-.22591.06332-.45181.0995-.69581.00905-.06332.01809-.13568.02714-.19877v-.00905c.03607-.18973.09928-.42468.19877-.69581.09023-.27113.20782-.57822.34327-.90363.31636-.80413.7139-1.70776.96694-2.44879.244-.68677.37041-1.23807.21686-1.44589-.18973-.26187-1.0211-.35232-1.41876-.777-.09928-.10854-.33423-.6144-.39754-.80435-.0813-.23495-.1445-.47895-.18068-.73177-.06332-.37967-.08141-.77722-.06332-1.1838v-.00905c.03618-1.08431.28922-2.20502.57833-3.12673.36147-1.19263,1.52719-2.52998,1.6536-2.92752.03618-.10854-.01809-.26209,0-.39776.13568-.9215-.17164-2.03316.02714-2.97275.18068-.90363,1.75298-4.64476,1.17476-5.40367-.39754-.51513-1.77107,1.59017-2.21384,1.57208-.44277.82244-1.33735,1.6718-1.78023,2.41283-.86745,1.48185-2.23193,5.40367-2.69279,7.08451-.09034.35232-.17175.89436-.25293,1.52708-.04523.33423-.09045.68654-.13568,1.05717-.13546.9579-.3072,1.98793-.56013,2.78324-.244.74986-.5694,1.30117-1.02121,1.43663-.58727.17164-2.04221,0-2.12339.07236-.09045.09045.07214,1.83439-.09045,2.51211-.13546.55131-.32529,1.14762-.57833,1.77107-.10843.29827-.24389.59631-.37956.90363-.09928.23495-.20782.46086-.32518.69581-.03618.07214-.06332.13546-.10854.20782-.10832.22591-.22591.46086-.35232.69581-.0995.19877-.21686.40659-.3254.6144-.05416.0995-.10832.18973-.16259.28922-2.6747,4.77118-6.96693,10.22007-9.64174,13.06641-.20782.22591-.43372.55131-.67772.86745-.29816.39776-.63249.77722-1.0211.98503-.244.12641-.51502.17164-.81318.09928-.09045-.02691-.18079-.05405-.25304-.09928-.36147-.18973-.55131-.56035-.66867-.98503-.30731-1.13858-.0995-2.69279-1.14762-2.45784-.18068.03618-1.39162,1.23807-2.58447,2.45784-.32518.33445-.65058.66867-.94874.98503-.32529.33445-.61451.64154-.85851.90363-.28007.29827-.49693.533-.59631.65058-.07236.08141-.14461.16259-.20782.25304-3.3886,3.97587-6.3073,8.86463-9.37965,13.10259-.60547.84031-.98492,1.88844-1.98804,2.38548-.37945.69581-1.09335,1.30139-1.59944,1.9972-1.2469,1.74394-1.63551,2.09625-3.18972,3.59642-.26209.25282-.59642.6144-.80424.79509-.18973,1.06622-1.39162,2.15053-2.18671,2.79229-.50608.40659-4.72606,3.28006-5.00613,3.37955-1.03919.34327-7.26519,1.15645-5.7743-.98503,1.52719-1.98793,3.80434-3.78614,5.38569-5.58435,1.39151-1.5723,2.54818-3.2441,3.99407-4.78927.28911-1.08431,1.9608-3.40669,2.79218-3.99396,1.98804-2.78324.244-1.98793-.59642-2.78324-1.55421-1.47303.91267-6.10852,2.03316-7.55442.81329-1.06622,1.63562-1.35544,2.36761-2.35834.11737-.15355.22591-.31636.33423-.50608.07236-.12641.14461-.26209.21686-.39754.15366-.28018.30731-.58727.45181-.90363.15366-.31636.29827-.64154.45181-.98503,1.21998-2.83729,2.33143-6.36135,3.57833-8.99104.80435-1.68062,1.86152-3.46096,2.91881-5.23203.26198-.43372.52406-.86745.77711-1.31021.18973-.29827.37041-.60536.54215-.90363.18079-.29827.35243-.60536.52406-.90363.6326-1.1024,1.19285-2.17766,1.63562-3.19887,1.56326-3.59642,2.04221-4.42768,4.31936-7.66274,1.28308-1.8163,3.81328-4.68977,3.57833-7.12952-.244-2.45806-.94885-3.28932.22591-6.21707.3254-.81318,1.55421-2.23193,2.7742-2.88252.37041-.19877.74093-.3254,1.08431-.33423.10843-.01809.21686-.00927.31625.00882.13557-.13546.26209-.27091.39765-.40659,1.04813-.96694,1.97889-.54204,2.31323-2.69279.15366-.99386-.24389-4.30127-.61451-5.18681-.00905-.03618-.09023-.16259-.20782-.36136-.17164-.28922-.42468-.7139-.68677-1.12953-.40659-.65963-.79509-1.2833-.86745-1.33735-.25304-.20782-1.29212.05405-1.93366-.25304-1.23807-.58749-1.68989-4.39172-3.58748-1.40067,0,.12641.02714.28018,0,.39754-.49693,2.23193-3.25303,3.53332-4.5542,1.16571-1.33735-2.41261.11737-6.82243-1.40067-8.87368-.18068-.244-3.56928-1.59944-3.99407-1.67158-1.82523-.33445-2.57531,3.48788-3.28921,4.7169-3.0632,5.28608-6.17173,10.64475-9.25313,15.88561-.43372.74104-2.56627,4.38268-3.65069,2.75611-1.40056-2.09648,2.08743-6.84052,1.40067-7.59038-.98492-.03618-2.15064,1.28308-3.11747.72295-.7952-.4699-1.71691-4.16582-1.59039-5.21394.23495-2.09648,3.87659-11.44888,4.91568-13.86171.8584-1.99698,4.22902-6.96693,4.21093-8.5935-.00905-1.35544-.99397-1.40971-1.40056-2.21384-.42479-.84936-.58749-2.54829-1.41876-2.99106-1.37353-.73177-2.96392,2.65683-4.56336-.20782-.54215-.99386-.37945-4.17464-.23495-5.36749.14461-1.2833,1.01217-2.1417.84947-3.57833-.0813-.74104-.80424-.69581-.84042-.99408-1.12953.3885-2.54818.20782-3.59642.39754.05427,2.40379-3.89468.39776-4.12953.43394-.69581.11737-2.93679,3.1446-3.25303,3.94873-1.44589,3.70474-3.81328,11.53933-6.57843,14.1688-2.98201,2.82847-4.91568-2.11435-4.80736-4.79831.02714-.79509,1.07537-4.99686-.18068-4.96995-1.49994.02714-7.14761,13.03949-9.03627,15.29856-1.11144,1.31926-3.33433,2.50306-4.27414,4.1025-.75008,1.30117-.66867,2.9187-1.46387,4.12037-1.08442,1.63562-4.5092,3.29837-4.46397.28922.02714-1.83439,3.86755-10.22912,3.0814-11.04229-1.78012-.27113-2.85549,1.31926-4.59943,1.22903-4.21093-.21708.67772-7.22901.81318-8.7744.10854-1.19285-2.12339-3.33433-2.16862-5.47581-.04523-1.86152,1.82534-3.51523,1.50899-5.04231-.07225-.33445-1.21987-2.27716-1.4096-2.32238-1.45483-.30731-2.77409,1.88866-4.1025,1.43685-1.20178-.41563-2.33132-1.68989-2.41272-3.0001-.02702-.39754.00905-.80413,0-1.20167-.96683-.9579-2.7379.17164-3.59642-.79531-.28007-.3254-.35232-.94885-.39754-1.38258-.43372-4.46386,1.82534-8.72895,3.43383-12.94.34327-.89458,2.55722-5.07827,2.55722-5.4308v-8.57541c-.67772-.04523-.91267-.1445-1.37353.41585-1.12953,1.36426-1.70787,4.52696-3.41562,5.56626-.14472.26209-.26209.54204-.4067.79509-2.15968,3.91277-5.74705,10.33766-8.43984,13.69912-3.75007,4.68072-5.51221,1.92462-3.34348-2.93679.73188-1.63562,3.46085-4.68072,3.44276-6.18089-.02702-1.26499-1.38246-2.33143-2.03316-3.37955-1.41853-2.31334-1.30117-3.42478-.28007-6.0633,1.09346-2.83729,3.42478-5.49412,4.67179-8.70204,1.13858-2.90965.44277-1.61753.51513-3.70474.05416-1.39162.56013-3.09055.67772-4.48217.1445-1.58135-.38872-3.21674.40659-4.58123.09034-.15355.27113-.27113.39754-.39754.06332-1.12071.00905-2.23215,1.19285-2.79229.56013-1.73489.96683-1.93366,1.59944-3.19887,4.74404-9.50617,6.07234-17.29532,13.16579-25.93404,1.8795-2.27716,3.80423-4.14773,5.79228-6.37966.99397-1.11144,2.79218-5.2863,4.61741-3.02724.52417.65985.76817,4.23818,1.76214,3.82254,1.83439-.78626,3.82243-6.45202,6.58747-4.99708.82233.42468.67772,1.59944.84947,1.75298.50597.42468,3.65962-.79509,3.51501,3.00915-.09939,2.4307-4.40066,7.76201-5.43985,10.53621-.69581,1.87057-2.01507,6.39775.28922,7.43683,1.8795.84031,3.03617-.03618,2.78313,3.40669,1.80725-1.99698,2.78313.93076,4.38257-.79531l9.18088-10.37362c.37956-.95768.51502-2.1053.7952-2.79207.86745-2.1417,4.26509-8.43091,4.70786-11.42196.01809-.35232.02714-.69581,0-1.03908-.16259-.64154-.93981-1.28308-1.03908-2.19575-.18079-1.7532,2.36739-4.37363,3.12651-6.28016,1.03908-2.62065,1.29212-5.60266,2.37654-8.39473,1.29223-3.3255,3.31635-6.5332,4.7982-9.7773,0-.12641-.00905-.26209,0-.39754.02714-.75913,1.91579-5.72907,2.35856-6.60556.56013-1.12049,4.07536-5.22299,5.19585-5.58435,3.42467-1.11144,7.95185,4.04823,7.60847,7.40969,1.17476.1445,1.27414-1.63562,2.17777-2.42166.36147-.31636.68665-.25304,1.01206-.37967.93981-.36136.46086-.63249,1.59039,0,2.27716,1.29212,1.37353,3.75923,1.59944,3.99418.17164.18068,3.84946-.12663,4.8795.10832,5.34046,1.19285,4.54527,8.47613,5.09658,12.65982,3.11747-2.25002,2.8192.16281,4.14751,1.83439,1.12049,1.40067,3.09949,2.36739,2.64767,4.50004.00905.00905.02714.00905.03618.00905,1.15656-.75008,1.24701-2.37643,2.93679-2.3857,1.58135-.01787,3.67771,2.34952,5.1236,2.05125.16259-.02691,1.52708-1.80725,2.26811-2.42166.1445-.11737.25293-.29805.39754-.39754-.0995-1.09335,1.85248-2.49402,1.95175-3.05437.12663-.70463-2.08732-1.84321-.66867-4.65359.22591-.45181.65058-.56918.7139-.66867l9.10863-21.41591c.80413-1.66275,7.03024-12.56032,7.92482-12.8405.60536-.1809,1.14751-.11759,1.7168.1445.28018.12641,4.25605,3.46096,4.80736,3.96682.89458.83149,1.87046,2.81942,2.95488,3.43383,3.65962,2.08743,7.03013,3.01819,10.4098,6.34348,1.2469,1.21998,5.93667,8.04241,6.73197,9.63258.7139,1.44589.3072,4.32841,2.64756,2.56638,3.35242-2.52093,9.99416-22.67207,13.62676-28.26547,1.9608-3.01797,2.62043-3.31624,4.82534-.83127.09939.10854.19877.22591.29816.34327.18068.20782.35243.43372.53322.67772.28007.38872.55109.80435.83127,1.23807h.00905c1.50005,2.2862,3.15365,4.94281,5.99105,4.70786,1.735-.1445,1.92473-1.62635,3.39764.17164.82233,1.00312,1.03919,2.68397,2.23193,3.3436.46086.26209,6.28027,1.72585,6.72304,1.64444,1.58135-.26209,3.41574-3.89468,4.60847-5.81026.17175-.27113.32529-.50608.46979-.69581,1.04835-1.40067,2.15979-2.73802,3.3255-4.03918.20782-.244.42468-.48799.65963-.73199,2.65661-2.92774,5.53913-5.63862,8.48496-8.29523,2.66565-1.55421,4.9609,3.6326,7.21092,5.2049,2.5302,1.76203,3.86755.60536,5.00613,1.02099.48799.17186,2.23193,2.37665,2.98201,2.96392,1.67169,1.29212,3.67771,1.97911,4.96995,3.80445.10843.15355.20782.31614.3072.48777.14461.23495.27102.49704.4067.75913.90363,1.87057,1.66253,4.21987,3.97587,4.83449.23495.0631.45181.09928.66867.13546h.00905c1.15667.13546,2.09648-.18973,2.92774-.78626,1.78012-1.27403,3.0001-3.78614,4.53622-5.45794l.00905-.00882c.10843-.12663.22591-.244.34338-.36158.90363-.88554,1.82534-1.61731,2.77409-2.21384,0,0,0-.00905.00905-.00905,3.13556-1.97889,6.45202-2.45784,9.74112-1.68967,1.1024.25282,2.19575.65963,3.28017,1.19263h.01809c1.4096.68677,2.77409,1.59944,4.12048,2.71088.50608.41563,1.1024,1.04835,1.735,1.77107.20793.244.43383.50608.6507.76817,1.43663,1.69871,2.9187,3.57833,3.7771,4.06632.20782.11737.40659.20782.6144.28018,2.80133.99408,5.37664-2.17788,7.46396-2.22289.98503-.01809,1.45494,1.63562,2.26811,1.49994,1.27414-.23495,6.09043-7.3916,7.83448-8.15073,2.756-1.17476,3.89457,1.39162,4.1838,1.38258.20782,0,.9579-1.64466,1.87057-3.11747q.00905-.00905,0-.01809v-.00905c.27102-.43372.55109-.83127.83127-1.1838.28018-.35232.56024-.65058.84031-.83127.00905-.00905.02714-.01809.03618-.02714.64154-.40659,1.40971-.39754,2.02411-.77722,2.47593-1.53612,7.43683-5.45794,9.78635-6.17162,1.37353-.41585,6.25303.78604,7.66274,1.47281,1.92473.93076,2.86443,2.15957,2.2048,4.40077-.39754,1.33735-4.85236,2.86443-6.24398,3.73187-4.08441,2.54829-.72295,2.33143-.91267,4.22891-.18973,1.80725-2.37665,3.51523-2.37665,4.89781,0,1.64466,2.12361,1.61731,1.62657,4.36437-.3885,2.10552-5.72896,8.13264-5.13254,9.93989.15355.47895.89458.5694,1.15667.9579.73188,1.05717,1.37353,2.96392,2.15957,3.714.87649.83127,1.62657.64154,2.43986,1.15667,3.06331,1.9608-.22591,5.46676.58738,8.39473,1.05717.21664.68677-.28018.98492-.78626,1.18369-1.98793,1.36449-4.53622,2.38559-6.01829,1.2469-1.82512,5.37653-3.18961,7.40065-4.96068,1.55421-1.36471,3.3073-3.74114,4.78927-5.39485,1.54517-1.72585,3.00904-3.8585,4.58145-5.5934,1.63551-1.80725,5.02411-6.01807,6.76815-7.20188,1.06622-.7139,2.02411-.18068,2.21384,1.04813.40659,2.53924-1.91579,4.19295-2.94583,6.20802-.78615,1.51803-1.28319,3.21696-2.03316,4.75308-.82233,1.70776-3.27112,4.92472-3.00915,6.55129.47895,2.90061,3.99407-.19877,4.99708,1.8163,1.61753,3.25314-6.23494,11.19584-5.38558,15.16288.83127.95768,3.18983-4.05727,3.41574-4.36459,3.4699-4.64454,4.12048-.52395,2.44879,3.2441-1.73489,3.93969-5.77419,9.3524-6.66877,13.49108-.11748.56013.0813,1.38258.00905,1.99698,2.06018.93981,4.14762-5.48508,5.93678-2.95488,2.21395,3.15365-1.4909,7.05738-.56013,8.53923.28911.4699,1.77107.98503,2.22289,1.77107.6144,1.07548.52406,3.00915.18068,4.30149-.02714.08119-.04523.16259-.07236.244-.08119.25282-.20782.49682-.36136.72272-.11748.17164-.244.33445-.3885.48799-.6326.72295-1.40067,1.31021-1.39162,1.85248,0,.7139,1.02099,1.06622,1.20178,1.99698.28007,1.40067-.06321,3.18983-.38861,4.58145l1.15667-.02714c.36147-1.55421,1.4278-2.65661,2.01507-4.18391.48799-1.29212.74104-2.75588.97599-4.21987.01809-.16259.04523-.32518.07225-.48799.05416-.32518.09939-.64154.15366-.96672.244-1.45494.54215-2.84656,1.12049-3.96704.57822-1.1024,1.98793-2.16862,2.63852-3.34337,3.53321-6.34348,7.20188-13.229,11.81951-18.91284,2.47593-3.04533,3.82232-.23495,3.59642,2.59329.72295.88554,5.66576-4.98804,6.14471-5.62053,5.62053-7.25615,19.10257-27.51539,27.01835-30.84067,1.85248-.77722,3.67782-1.19285,3.56939,1.53612-.09034,2.15957-4.81629,5.77408-6.40668,7.59942-1.02121,1.19285-2.43986,2.95488-3.37051,4.21104-.65974.91245-3.62355,5.07827-3.81339,5.76503-.24389.86745,1.41865.44277,2.41272,1.16571,3.0632,2.22289-.49704,3.52406-1.61753,5.2049-.67772,1.01195-.83127,2.39452-1.43674,3.36146-2.32227,3.73187-2.85549,3.99396-4.76213,8.40377-2.29514,5.31322-4.3283,9.34336-7.21997,14.33139-1.84343,3.18983-2.74706,5.17776-4.94292,8.22309-.96683,1.34639-4.50909,5.71981-4.87045,6.69579-.86745,2.2862.20782,3.66878.10843,5.65671-.10843,2.13266-1.83439,4.87972-3.6326,5.99116-.21686.13546-.45181.23473-.67772.32518-.32529.10854-.66867.18973-.99397.26209-.97599.21686-1.88866.44277-2.39463,1.72607-.49693,1.23785-.62356,5.74694.29816,6.66866.20782.20782.81329.60536,1.39162,1.01217.28922.20782.57833.41563.7952.59631.04512.03596.09034.07214.12652.11737.37945.37041.58727.92172,1.09335,1.24712.21686.1445,3.18983,1.46376,3.37051,1.46376,2.27716.00905,3.10853-4.74404,5.79228-3.44265,2.38559,1.15645.15366,8.6385,2.18682,10.98802.56013.65963,1.59944.244,2.29525.49704.65963.244,1.4096,1.16571,2.04221,1.03908,1.21976-.22591,1.97889-4.45482,2.48497-5.50295,1.20167-2.50306,4.02109-5.76525,5.50295-8.449,1.17476-2.11457,3.91277-9.66898,5.84655-10.54525,2.52104-1.1388,1.79821,2.88252,1.4096,4.22891-.26209.89458-2.57531,4.77118-2.21384,5.15967,1.20189.12641,1.79821-1.72585,2.66565-1.95175,1.70787-.44299,4.19284,4.11132,3.28028,5.71981-2.00613,4.6719-3.714,9.53331-5.76525,14.17807-1.09335,2.50306-3.6326,4.85236-2.88252,7.69892l2.49402,5.87357c4.3465-3.65995,5.06933-.58749,4.54527,3.74996-.14461,1.2469-2.27716,7.05738-1.94293,7.42778,1.25616.23495,1.44589-1.6718,2.25907-1.94293.96694-.33423,1.90675.43372,2.71993.35254.8134-.07236,1.10251-1.04835,2.00613-1.20189,1.05728-.18973,2.30418.47895,2.97286.20782,1.16571-.4699,1.41876-2.38548,2.40379-2.99988-.02714-2.94583.46979-2.46688,1.20167-4.39172.86756-2.2862,1.45494-6.37061,2.21395-7.961.18984-.39754,4.13857-3.84041,4.45493-3.93969,2.10541-.62367,4.19273,2.90061,4.41864,4.60836.22591,1.74416-1.53612,5.34962-1.50899,7.29233l3.58737-3.58737c.21686-.51513.09045-1.2469.7952-1.59944-.00905-.26209-.00905-.54226,0-.79509.14461-2.71088,4.07536-8.15978,5.982-10.19293.75913-.8134,4.01205-3.39764,4.1838-3.78636.59642-1.3283.27102-3.42478,1.39151-4.98804.66879-.93054,3.61451-2.97275,4.60858-1.7799,2.65661,3.18056-3.56024,9.04509-2.60245,12.76814,1.68978.65058,2.60245-1.33735,3.77721-1.21998,2.42166.23495,3.21685,5.15085,1.01195,6.40679-.32518,1.15667-1.3283,1.85248-1.23785,3.3886.16259,2.63852,3.24399,1.05717,1.23785,6.18089-.13546,1.78012-.84936,5.40367.57844,6.81338,1.35544,1.32808,1.31926-1.78034,2.7379-1.56348,2.15968.3254,2.63863,4.11155,3.46085,4.53622,1.5723.83149,2.40379-.78604,3.31635-.56013,2.97297.72272.46086,8.07837-.24389,10.00299-.77722,2.1417-3.28932,5.90071-3.76827,7.80746-.22591.87649.06332,1.8163-.17164,2.62043-.17164.58749-1.03004.84936-1.12953,1.68084-.1445,1.29212,1.09335,2.2862,1.21094,3.21674.1445,1.17498-1.05728,2.42188.19877,3.35264,3.51501-6.58747,6.87659-14.03335,11.78333-19.73529.74997-.87649,4.29223-4.85258,5.11445-2.34952,1.62657,4.94303-5.16872,9.41594-3.72294,12.50627.28007.6144,1.2651.98503,1.68073,1.90675,2.45784,5.44867-4.90663,11.6567-5.87357,16.699Z"/></svg>