<?xml version="1.0" encoding="UTF-8"?><svg id="Camada_1" xmlns="http://www.w3.org/2000/svg" xmlns:xlink="http://www.w3.org/1999/xlink" viewBox="0 0 1014.93408 703.15723"><defs><style>.cls-1{fill:#588828;}.cls-2{fill:#24591e;}.cls-3{fill:#3364a8;}.cls-4{fill:url(#Gradiente_sem_nome_37-6);}.cls-5{fill:#162b44;}.cls-6{fill:#615545;}.cls-7{fill:url(#Gradiente_sem_nome_37-4);}.cls-8{fill:#9c7e61;}.cls-9{fill:url(#Gradiente_sem_nome_37-8);}.cls-10{fill:#5e200b;}.cls-11{fill:#fff;}.cls-12{fill:#e44b07;}.cls-13{fill:#1e4461;}.cls-14{fill:url(#Gradiente_sem_nome_37);}.cls-15{fill:#cea883;}.cls-16{fill:#afafb2;}.cls-17{fill:#ff691f;}.cls-18{fill:#c4def5;}.cls-19{fill:#f7d7c1;}.cls-20{fill:url(#Gradiente_sem_nome_37-3);}.cls-21{fill:#e9805b;}.cls-22{fill:#8da3ad;}.cls-23{fill:#ff7f4b;}.cls-24{fill:#dfd6d3;}.cls-25{fill:#e6c4a6;}.cls-26{fill:#3b5f6f;}.cls-27{fill:#ffa56b;}.cls-28{fill:url(#Gradiente_sem_nome_166);}.cls-29{fill:url(#Gradiente_sem_nome_37-2);}.cls-30{fill:#dfdfe0;}.cls-31{fill:#305367;}.cls-32{fill:#c93e06;}.cls-33{fill:#bbda7a;}.cls-34{fill:url(#Gradiente_sem_nome_37-7);}.cls-35{fill:#1c4163;}.cls-36{fill:#193b5e;}.cls-37{fill:url(#Gradiente_sem_nome_37-5);}.cls-38{fill:#93c439;}.cls-39{fill:#1a365b;}.cls-40{fill:#193559;}.cls-41{fill:#192435;}.cls-42{fill:#ff9469;}.cls-43{fill:#183253;}</style><linearGradient id="Gradiente_sem_nome_37" x1="904.82507" y1="514.60315" x2="940.24455" y2="514.60315" gradientUnits="userSpaceOnUse"><stop offset="0" stop-color="#519e30"/><stop offset="1" stop-color="#3c8a31"/></linearGradient><linearGradient id="Gradiente_sem_nome_37-2" x1="873.30196" x2="908.71793" xlink:href="#Gradiente_sem_nome_37"/><linearGradient id="Gradiente_sem_nome_37-3" x1="936.04213" y1="517.09818" x2="963.0137" y2="517.09818" xlink:href="#Gradiente_sem_nome_37"/><linearGradient id="Gradiente_sem_nome_37-4" x1="850.53718" y1="517.09818" x2="877.50905" y2="517.09818" xlink:href="#Gradiente_sem_nome_37"/><linearGradient id="Gradiente_sem_nome_37-5" x1="940.79829" y1="535.58316" x2="984.40828" y2="535.58316" xlink:href="#Gradiente_sem_nome_37"/><linearGradient id="Gradiente_sem_nome_37-6" x1="829.13826" y1="535.58316" x2="872.74825" y2="535.58316" xlink:href="#Gradiente_sem_nome_37"/><linearGradient id="Gradiente_sem_nome_37-7" x1="933.49825" y1="558.90082" x2="984.99825" y2="558.90082" xlink:href="#Gradiente_sem_nome_37"/><linearGradient id="Gradiente_sem_nome_37-8" x1="828.54829" y1="558.89868" x2="880.04829" y2="558.89868" xlink:href="#Gradiente_sem_nome_37"/><linearGradient id="Gradiente_sem_nome_166" x1="520.16818" y1="561.04822" x2="520.16818" y2="559.42575" gradientUnits="userSpaceOnUse"><stop offset="0" stop-color="#1a365b"/><stop offset="1" stop-color="#152538"/></linearGradient></defs><polygon class="cls-30" points="345.19995 0 345.19995 470.29999 0 470.29999 0 444.76996 324.26001 444.76996 324.26001 25.52997 0 25.52997 0 0 345.19995 0"/><polyline class="cls-16" points="-.0049 13.02339 338.49719 13.02339 338.49719 457.91701 -.0049 457.91701 -.0049 459.40637 339.75251 459.40637 339.75251 12.42765 342.64613 9.02339 -.0049 9.02339 -.0049 13.02339"/><polyline class="cls-16" points="-.0049 16.59786 328.60358 16.59786 -.0049 20.42765 -.0049 16.59786"/><polyline class="cls-16" points="-.0049 451.91701 237.19932 451.91701 237.19932 453.27871 -.0049 453.27871 -.0049 451.91701"/><path class="cls-39" d="M874.36035,665.83514c-8.04004,0-14.80176-5.7666-16.07812-13.71191l-9.03125-56.38184c-4.93359-1.18457-7.06055-2.45703-7.06055-4.18555v-16.60059h.00977c0-1.30371.99023-2.80859,7.61816-4.32422-15.72266-6.75391-21.94141-23.55371-22.20898-24.29688l-.34961-.96973.97949-.31934c.04688-.01562,1.16211-.37695,3.09277-.70508,2.05371-.35254,4.23047-.53125,6.46973-.53125.96875,0,1.94336.03418,2.91895.10156-1.52539-1.50195-2.96289-3.27051-4.29492-5.2832-6.13379-9.26758-8.18652-20.66797-8.27148-21.14844l-.20898-1.19141,1.20996.01855c.02734.00098.68848.01172,1.85059.13574,3.65918.40332,10.97852,1.83691,18.93262,6.91113.73242.46875,1.42188.93262,2.0791,1.40039-.31836-1.3252-.60645-2.69922-.8623-4.11035l-.03613-.20117c-.06934-.375-.13574-.74316-.19531-1.10352-.62793-3.65527-1.04199-7.09375-1.23145-10.21191-.18066-2.80371-.20117-5.44238-.06055-7.83984.50098-8.87793,2.93457-12.33398,3.03711-12.47656l.42285-.58398.6875.21582c.41895.13184,9.70703,3.18848,18.52734,17.45898.01172-.96289.0498-1.92871.11523-2.89355,1.0752-15.41113,8.58887-27.6748,8.9082-28.18945l.49707-.80176.8291.4502c.42676.23145,10.53125,5.81055,18.64746,18.58301.7041,1.10547,1.38086,2.24805,2.01855,3.40918.34668-.17871.67871-.28906,1-.33301l.49707-.06934.35156.35645c.03516.03516.8584.87109,2.16504,2.37793.09766.12012.17578.21582.26367.31152.25391.29688.51758.61035.79297.94141.39258-.84375.80859-1.68164,1.24219-2.50488,8.33398-15.93359,20.73535-22.78809,21.25879-23.07227l.8291-.44922.49707.80078c.31934.51465,7.83301,12.77832,8.9082,28.17871.06543.96875.10352,1.93652.11426,2.89941,8.8291-14.26367,18.10938-17.32227,18.52832-17.4541l.6875-.21582.42285.58398c.10254.14258,2.53613,3.59863,3.03711,12.46875.18945,3.1377.10059,6.64551-.2627,10.42285-.2334,2.45605-.58008,5.02441-1.03027,7.64258-.05859.35449-.125.72266-.19434,1.09766l-.03711.20312c-.26172,1.42188-.55273,2.79883-.87012,4.11816.68164-.4873,1.37207-.95508,2.06738-1.40039,7.93457-5.0752,15.28418-6.51465,18.95898-6.9209,1.15625-.12402,1.81738-.13477,1.84473-.13574l1.20996-.01855-.20898,1.19141c-.08496.48047-2.1377,11.88086-8.27148,21.14844-1.33203,2.0127-2.76953,3.78125-4.29492,5.2832.97559-.06738,1.9502-.10156,2.91895-.10156,2.23926,0,4.41602.17871,6.4707.53125,1.92969.32812,3.04492.68945,3.0918.70508l.97949.31934-.34961.96973c-.26758.74316-6.48535,17.54395-22.20898,24.29688,6.62793,1.51562,7.61816,3.02051,7.61816,4.32422,0,.03711,0,.10352-.00977.18457v16.41602c0,1.74023-2.125,2.99902-7.09863,4.20117l-9.03418,56.36621c-1.27539,7.94531-8.04102,13.71191-16.08691,13.71191h-64.75977Z"/><path class="cls-13" d="M931.36987,475.3454s7.69019,12.39001,8.76001,27.71997v.01001c.15015,2.20001.16016,4.44,0,6.73004,9.28003-17.06,19.94019-20.41003,19.94019-20.41003,0,0,2.35986,3.26001,2.84985,11.94.17017,2.82001.13013,6.22003-.26001,10.27002v.01001c-.21997,2.29999-.55005,4.82001-1.02002,7.56-.06982.41998-.1499.84998-.22998,1.28998-.46997,2.54999-1.01001,4.83002-1.59985,6.87.20996-.17999.42993-.35999.6499-.52997,1.22998-.96002,2.44995-1.82001,3.66992-2.60004,7.91016-5.06,15.28003-6.40997,18.53003-6.76996,1.12012-.12006,1.75-.13,1.75-.13,0,0-2.03003,11.57001-8.11987,20.76996-1.80005,2.72003-3.95996,5.23004-6.52002,7.17004,2.16797-.31677,4.17749-.43726,5.97778-.43726,2.57617-.00006,4.72461.24646,6.30225.51721,1.87988.32001,2.94995.67004,2.94995.67004,0,0-6.68994,18.55005-23.75,24.53003-.40015.13989-.79004.27002-1.17993.38989,6.5,1.16003,10.27979,2.55005,10.27979,4.04004,0,.03003,0,.07007-.00977.1001v16.5c0,1.16992-2.32007,2.2699-6.46021,3.25989-.16992.04004-.33984.07996-.52002.12l-.85986,5.3501-8.28003,51.67993c-1.18994,7.41003-7.59009,12.87-15.1001,12.87h-64.76001c-7.5,0-13.8999-5.45996-15.08984-12.87l-8.28003-51.69995-.84009-5.22998c5.48999,1.19995,13.72998,2.19995,23.72998,2.87988,6.33008.44006,13.37012.76001,20.87012.91003-7.51001-.17004-14.56006-.48999-20.87012-.94006-9.78003-.68994-17.82983-1.66992-23.22998-2.84985-4.76001-1.04004-7.45996-2.22009-7.45996-3.47998v-16.6001c0,.13.03003.26001.09009.38-.05005-.12-.08008-.25-.08008-.38,0-1.48999,3.78003-2.88,10.28003-4.04004-.38989-.11987-.78003-.25-1.17993-.38989-17.06006-5.97998-23.75-24.53003-23.75-24.53003,0,0,1.06982-.35004,2.94995-.67004,1.57739-.27069,3.72632-.51721,6.302-.51721,1.80078,0,3.80981.12042,5.97803.43726-2.56006-1.94-4.71997-4.45001-6.52002-7.17004-6.09009-9.19995-8.12012-20.76996-8.12012-20.76996,0,0,.63013.00995,1.76001.13,3.26001.35999,10.6001,1.71997,18.5,6.75995,1.21997.78003,2.45996,1.64001,3.69019,2.61005.21997.16998.42993.33997.63989.51996-.59009-2.03998-1.13013-4.32001-1.59009-6.85999-.07983-.44-.15991-.87-.22998-1.28998-.6499-3.79004-1.04004-7.15002-1.21997-10.11005-.18994-2.94995-.18994-5.50995-.06006-7.71997v-.01001c.48999-8.67999,2.8501-11.94,2.8501-11.94,0,0,10.66992,3.35004,19.93994,20.41998-.15991-2.28998-.1499-4.53998,0-6.73999v-.01001c1.07007-15.32996,8.76001-27.71997,8.76001-27.71997,0,0,10.20996,5.53998,18.28003,18.23999.86011,1.35004,1.69995,2.79004,2.5,4.31.56006-.45001,1.07007-.71997,1.5-.77997,0,0,.82007.82996,2.12012,2.32996.08984.11005.17993.22003.27979.33002.53003.62,1.13013,1.34003,1.78003,2.16003.59009-1.37006,1.21997-2.68005,1.88013-3.93005,8.29004-15.84998,20.84985-22.65997,20.84985-22.65997M881.47559,472.68774l-.99487,1.60297c-.32349.521-7.90332,12.8916-9.04248,28.44867-8.48657-12.33972-16.95215-15.12433-17.35913-15.25214l-1.37451-.43152-.84473,1.16681c-.27661.38232-2.71851,3.99487-3.22681,13.00012l-.00317.05634v.0083c-.1394,2.42029-.11768,5.08014.06421,7.90656.19116,3.14447.61011,6.6189,1.24463,10.31958.05591.33588.11987.68707.1853,1.04486l.0481.26416c.10376.57349.21289,1.14111.32739,1.70209-.00732-.0047-.01489-.00946-.02222-.01422-8.12329-5.18243-15.61499-6.64948-19.35791-7.06281-1.19336-.12683-1.87427-.14069-1.948-.14185l-2.41968-.03821.41821,2.38361c.08594.4892,2.17407,12.08917,8.42236,21.52826.86865,1.31244,1.78223,2.52496,2.73584,3.63214-.17554-.0022-.35083-.0033-.52588-.0033-2.29517,0-4.5293.18372-6.64062.54602-2,.34045-3.18408.72418-3.2334.74042l-1.95874.64081.69922,1.93854c.25928.71918,5.9707,16.15057,20.24121,23.67499-4.03101,1.20593-5.70996,2.62836-5.70996,4.60645h-.01001v16.6001c0,2.20569,2.10791,3.69989,7.17798,4.99646l.64746,4.0307,8.27979,51.69904c1.35425,8.43335,8.53101,14.55371,17.0647,14.55371h64.76001c8.53979,0,15.7207-6.12036,17.07471-14.55286l8.28027-51.68066.64819-4.03271c3.84497-.97455,7.21704-2.30243,7.21704-5.01367v-16.36499c.00806-.09027.00977-.16962.00977-.23511,0-1.97827-1.67822-3.40051-5.70996-4.60651,14.27173-7.52484,19.98218-22.95575,20.24146-23.67493l.69922-1.93872-1.95874-.64069c-.04956-.01617-1.23364-.3999-3.23608-.74084-2.10864-.36182-4.34253-.54553-6.63696-.54553-.17554,0-.35107.0011-.52686.0033.95361-1.10718,1.86743-2.31982,2.73608-3.63232,6.2478-9.4389,8.33594-21.03888,8.42188-21.52808l.41821-2.38361-2.41968.03821c-.07397.00116-.75488.01501-1.93164.14117-3.76978.41754-11.29199,1.89069-19.39453,7.07379-.0022.00128-.00415.00256-.0061.00391.11475-.55798.2251-1.12384.33057-1.69666l.04346-.23749c.06738-.36926.13354-.73157.19263-1.08691.45215-2.63544.802-5.2287,1.03809-7.69763l.00903-.09503v-.00989c.36108-3.79297.44751-7.32025.25635-10.48602-.50781-8.99744-2.94946-12.60999-3.22607-12.99225l-.84497-1.1673-1.37476.43201c-.40674.12781-8.8667,2.91321-17.35889,15.25-1.13965-15.55585-8.71899-27.92572-9.04248-28.44672l-.99463-1.60242-1.65796.89899c-.53467.28992-13.19336,7.28705-21.6687,23.49121-.19873.37646-.39453.75732-.58618,1.1416-.01074-.01318-.02148-.02637-.03247-.03961l-.01855-.02271-.01929-.02222c-1.32739-1.5318-2.17334-2.39001-2.20874-2.42584l-.70532-.71375-.99365.13873c-.13623.01898-.27246.04614-.40942.08154-.52222-.9201-1.06665-1.82513-1.62744-2.70544-8.2522-12.98651-18.57739-18.68695-19.01294-18.92322l-1.6582-.89978h0Z"/><path class="cls-17" d="M963.3839,594.81739l-.02002.12c-5.3999,1.22003-13.62988,2.24005-23.68994,2.95001l-.54004,5.20001-6.38,61.75h-58.39001c-7.5,0-13.8999-5.46002-15.08997-12.87l-8.27991-51.70001-.84009-5.22998c5.48999,1.20001,13.72998,2.20001,23.72998,2.88,6.33008.44,13.37.76001,20.87.90997,1.16003.02002,2.32996.04999,3.51001.06.57996.01001,1.18005.02002,1.77002.03003,2.21008.02997,4.46008.03998,6.73999.03998,2.18005,0,4.33997-.01001,6.46008-.03998.59985-.01001,1.19995-.01001,1.79993-.03003,1.12-.01996,2.22998-.02997,3.31995-.06.95996-.02002,1.91003-.03998,2.86011-.07001,6.61987-.19,12.82996-.5,18.45996-.89996,10.15991-.73004,18.41992-1.79004,23.70996-3.04004Z"/><path class="cls-12" d="M963.3839,594.81739l-.02002.12c-5.3999,1.22003-13.62988,2.24005-23.68994,2.95001l-.54004,5.20001c-9.47998.65997-20.54004,1.03003-32.35999,1.03003s-22.88-.38-32.35999-1.04004l-.53003-5.15997c6.33008.44,13.37.76001,20.87.90997-7.50989-.16998-14.55994-.48999-20.87-.94-9.78003-.69-17.82996-1.66998-23.22998-2.84998-4.76001-1.04004-7.45996-2.22003-7.45996-3.48004v-11.43994c0,4.08997,28.46997,7.40997,63.57996,7.40997,12.53992,0,24.23999-.41998,34.08997-1.15997l-1.18994,11.48999c10.15991-.73004,18.41992-1.79004,23.70996-3.04004Z"/><path class="cls-27" d="M970.34828,574.95741c0,4.09003-28.46008,7.41003-63.56995,7.41003s-63.58008-3.32001-63.58008-7.41003,28.46997-7.40002,63.58008-7.40002,63.56995,3.31006,63.56995,7.40002Z"/><path class="cls-10" d="M959.62848,573.95825c0,3.40038-23.66124,6.16058-52.851,6.16058s-52.85942-2.7602-52.85942-6.16058,23.66946-10.99678,52.85942-10.99678,52.851,7.59645,52.851,10.99678Z"/><path class="cls-14" d="M940.12825,509.80319v.01001c-.05994.84998-.14001,1.68994-.25,2.53998-.45007,3.45001-1.31995,6.98999-2.46997,10.46997-.10999.35004-.2301.70001-.34998,1.04004v.01001c-.13013.38995-.26001.77997-.41003,1.16998-.15002.42999-.30994.85999-.47009,1.27997-5.5199,14.66003-14.78992,27.53998-14.78992,27.53998,0,0-.69006-.67993-1.78003-1.92993-.46997-.54004-1.0199-1.18994-1.63-1.93994-3.37988-4.18005-8.44995-11.4201-11.19995-20.1001v-.01001c-.40002-1.23999-.75-2.50995-1.03003-3.81-.19995-.88-.37-1.77997-.5-2.67999-.43994-2.83997-.56006-5.77997-.25-8.77997.19995-2.04999.6001-4.12,1.23999-6.20001.17004-.56.3501-1.09998.54004-1.64001v-.01001c.33997-1.01996.69995-2.01996,1.08997-2.97998v-.01001c.23999-.62.5-1.23999.77002-1.83997.58997-1.37,1.21997-2.68005,1.88-3.93005,8.29004-15.84998,20.84998-22.65997,20.84998-22.65997,0,0,7.69006,12.39001,8.76001,27.72003v.00995c.15002,2.20001.16003,4.44,0,6.73004Z"/><path class="cls-29" d="M907.79829,526.0632v.00995c-.28003,1.30005-.63013,2.57001-1.02002,3.81v.01001c-.45996,1.42999-.96997,2.81-1.53003,4.15002-2.91992,6.98999-7.05005,12.73999-9.89001,16.20996-1.32996,1.63-2.38,2.75-2.87,3.28003l-.32996.32996s-9.27002-12.87994-14.79004-27.52997v-.01001c-.12-.31-.23999-.60999-.34998-.91998v-.01001c-.18994-.5-.37-1.01001-.53003-1.51996-.07996-.22003-.1499-.44-.21997-.66003-1.20996-3.60999-2.14001-7.28998-2.6001-10.85999-.10986-.85004-.18994-1.69-.25-2.53998-.15991-2.29004-.1499-4.54004,0-6.74005v-.00995c1.07007-15.33002,8.76001-27.72003,8.76001-27.72003,0,0,10.21008,5.53998,18.28003,18.23999.86011,1.35004,1.70007,2.79004,2.5,4.31.97998,1.84003,1.89014,3.79999,2.71997,5.88.39014.97003.75,1.96002,1.1001,2.98999v.01001c.17993.54004.35999,1.08002.53003,1.64001.63989,2.08002,1.04004,4.14001,1.23999,6.19v.01001c.3999,3.95001.06995,7.78998-.75,11.45001Z"/><path class="cls-2" d="M877.36824,519.58316c-.0199.25-.05994.51001-.09998.75.01001.01001,0,.02002,0,.02002-.17993,1.22998-.44995,2.39996-.78003,3.52002-.08997.28998-.18994.57996-.28003.85999-2.27002,6.64001-6.83997,11.20001-8.56995,12.75-.43005.38-.68005.58002-.68005.58002,0,0-.06995-.01001-.19995-.03003-1.21997-.22998-7.89001-2.06-12.33008-15.23999-.23999-.70001-.46997-1.44-.69995-2.21002-.58997-2.03998-1.12988-4.32001-1.58997-6.85999-.87-4.75-1.32996-8.85999-1.51001-12.38v-.01001c.48999-8.67999,2.84998-11.94,2.84998-11.94,0,0,10.67004,3.35004,19.93994,20.42004-.15991-2.29004-.1499-4.54004,0-6.74005.41016.75.82007,1.53003,1.22009,2.34003,2.58997,5.19,3.20007,9.96002,2.72998,14.16998Z"/><path class="cls-2" d="M962.91817,501.33316c-.17993,3.52002-.63989,7.63-1.50989,12.39001-.47009,2.54999-1.01001,4.83002-1.59998,6.87-.28003.97003-.58008,1.89001-.88013,2.76001-4.90991,14.01001-12.33984,14.71002-12.33984,14.71002,0,0-.25-.20001-.68005-.58002l-.03003-.03003c-1.77002-1.58997-6.39001-6.21997-8.60999-12.94-.07007-.20996-.14001-.41998-.20996-.63995v-.01001c-.34009-1.12-.61011-2.29999-.78003-3.53003-.04004-.23999-.08008-.5-.1001-.75-.46997-4.20996.14014-8.97998,2.7301-14.16998.40002-.81.80994-1.59003,1.21997-2.34003.15002,2.20001.16003,4.44,0,6.73004,9.28003-17.06,19.94006-20.41003,19.94006-20.41003,0,0,2.35986,3.26001,2.84985,11.94Z"/><path class="cls-20" d="M962.65828,511.60318v.01001c-.22009,2.29999-.55005,4.82001-1.02002,7.56-.06995.41998-.15002.84998-.22998,1.28998-.47009,2.54999-1.01001,4.83002-1.59998,6.87-.17004.59003-.3501,1.16003-.53003,1.72003v.02997c-4.90002,14.98999-12.68994,15.72003-12.68994,15.72003,0,0-.25-.20001-.68005-.58002-.55005-.5-1.39001-1.28998-2.33997-2.35999-.04004-.04004-.06006-.06-.1001-.10004v-.01001c-2.78003-3.12994-6.51001-8.50995-7.29004-15.42999-.02991-.26996-.05994-.53998-.06995-.81-.03992-.47998-.05994-.96997-.05994-1.45996-.03003-1.20001.05005-2.44.22998-3.72003.09998-.67999.22998-1.37.38989-2.08002.32007-1.33997.76001-2.71997,1.3501-4.13995,0-.01001.01001-.02002.01001-.03003.26001-.64001.56006-1.27997.88-1.92999.40002-.81.80994-1.58997,1.21997-2.33997v-.01001c9.28003-17.06,19.94006-20.41003,19.94006-20.41003,0,0,2.35986,3.26001,2.84985,11.94.17017,2.82001.13013,6.22003-.25989,10.27002Z"/><path class="cls-7" d="M877.49825,524.35318c-.01001.46997-.04004.94-.08008,1.39001-.00989.19-.0199.38995-.04993.57996v.01001c-.77991,6.91998-4.51001,12.29004-7.28992,15.41998-.31006.35004-.61011.67004-.89014.96002-.61987.65002-1.15991,1.16003-1.54993,1.51001-.43005.38-.68005.58002-.68005.58002,0,0-7.72998-.73004-12.63989-15.59003v-.02002c-.20007-.60999-.40015-1.21997-.59009-1.87-.58997-2.03998-1.12988-4.32001-1.58997-6.85999-.07996-.44-.16003-.87-.22998-1.28998-.65002-3.79004-1.04004-7.15002-1.22009-10.10999-.18994-2.95001-.18994-5.51001-.05994-7.72003v-.01001c.48999-8.67999,2.84998-11.94,2.84998-11.94,0,0,10.67004,3.35004,19.93994,20.42004.41016.75.82007,1.52997,1.22009,2.33997.31995.62.58997,1.25.84998,1.85999q0,.01001.01001.02002c.60999,1.46997,1.07007,2.90002,1.40002,4.28998,0,.01001,0,.02002.01001.03003.14001.66998.2699,1.33002.35999,1.97998.01001.01001,0,.02002,0,.02002.19995,1.38.27002,2.71002.22998,4Z"/><path class="cls-2" d="M982.65828,517.4332c-2.02002,6.42999-5.96008,15.81995-12.89001,21.06995l-.01001.01001c-.06006.05005-.12.10004-.18994.15002-2.20007,1.63-4.62012,2.95001-7.09009,4-1.54004.66998-3.10999,1.22998-4.6499,1.71002-2.43005.75995-4.82007,1.31-7,1.70996-.01001-.01001-.01001,0-.01001,0-2.52002.46002-4.76001.71002-6.47998.85999-2.19006.18005-3.54004.18005-3.54004.18005,0,0,.36987-.85004,1.06995-2.27002.02002-.03003.03003-.06.04004-.09003.42004-.82996.94006-1.84998,1.55994-3v-.01001c.6001-1.09998,1.29004-2.31995,2.06006-3.60999.02002-.01996.03003-.04999.04004-.07001.10986-.19995.22998-.38995.33997-.58997,3.09998-5.10999,7.47998-11.29004,12.80994-15.97003.36011-.32001.71997-.63,1.09009-.91998.20996-.17999.42993-.35999.6499-.52997.39014-.31006.79004-.61005,1.18005-.89001-.06995.41998-.15002.84998-.22998,1.28998-.47009,2.54999-1.01001,4.83002-1.59998,6.87.20996-.17999.42993-.35999.6499-.52997,1.22998-.96002,2.45007-1.82001,3.67004-2.60004,7.91003-5.06,15.28003-6.40997,18.53003-6.76996Z"/><path class="cls-2" d="M872.74825,547.1232s-.33008,0-.92993-.02002c-.61011-.02002-1.5-.07001-2.6001-.16003-1.71997-.14996-3.95996-.39996-6.47998-.85999-2.08997-.38-4.37-.89996-6.69995-1.60999-1.53003-.47003-3.09009-1.01001-4.62012-1.65002-2.58984-1.08997-5.12988-2.44995-7.43994-4.15997-.06995-.04999-.13989-.09998-.19995-.16003h-.01001c-6.91992-5.25995-10.85999-14.63995-12.87-21.06995,3.26001.35999,10.59998,1.71997,18.5,6.75995,1.21997.78003,2.45996,1.64001,3.69006,2.61005.21997.16998.42993.33997.63989.51996-.58997-2.03998-1.12988-4.32001-1.58997-6.85999-.07996-.44-.16003-.87-.22998-1.28998.39001.27997.78992.57996,1.18005.89001.21997.16998.42993.33997.63989.51996.27002.21002.54004.44.80005.66998,3.69995,3.18005,6.94995,7.10004,9.63,10.91003.00989,0,.00989.01001.00989.01001,1.28003,1.82996,2.45007,3.63,3.47009,5.31.93005,1.53998,1.75,2.98999,2.44006,4.26996,1.72998,3.21002,2.66992,5.37006,2.66992,5.37006Z"/><path class="cls-37" d="M984.40828,517.30319s-2.03003,11.57001-8.12,20.76996c-1.80005,2.72003-3.95996,5.23004-6.52002,7.17004-.06006.06-.13.10999-.19995.15997-2.92004,2.16003-6.21997,3.77002-9.53003,4.96997-1.51001.54004-3.02002,1-4.48999,1.39001-1.64001.44006-3.22998.78003-4.71997,1.05994h-.01001c-4.56006.83008-8.21008,1-9.51001,1.03003-.33008.01001-.51001.01001-.51001.01001,0,0,1.25-2.86987,3.54004-6.91998.46997-.85999,1-1.76996,1.56995-2.71997,3.19995-5.28003,7.7699-11.70001,13.32996-16.42999.18994-.15002.38-.31.57007-.46002.20996-.17999.42993-.35999.6499-.52997,1.22998-.96002,2.45007-1.82001,3.67004-2.60004,7.91003-5.06,15.28003-6.40997,18.53003-6.76996,1.12-.12,1.75-.13,1.75-.13Z"/><path class="cls-4" d="M872.74825,553.86313s-.17993,0-.51001-.01001c-1.30005-.03003-4.94995-.19995-9.5-1.03003-1.44995-.25989-2.98999-.58984-4.57996-1.00989-1.47009-.38-2.97009-.83997-4.4801-1.38-3.35986-1.19995-6.72998-2.83002-9.69995-5.03003-.06995-.04999-.13989-.09998-.19995-.15997-2.56006-1.94-4.71997-4.45001-6.52002-7.17004-6.09009-9.19995-8.12-20.76996-8.12-20.76996,0,0,.63.01001,1.76001.13,3.26001.35999,10.59998,1.71997,18.5,6.75995,1.21997.78003,2.45996,1.64001,3.69006,2.61005.21997.16998.42993.33997.63989.51996.18994.15002.38.31.57007.47003,5.56995,4.72998,10.13989,11.14996,13.33997,16.42999.57996.95001,1.10999,1.85999,1.57996,2.71997,2.28003,4.05011,3.53003,6.91998,3.53003,6.91998Z"/><path class="cls-2" d="M982.04829,545.32315c-3.44006,5.97003-10.07007,14.70001-20.80005,18.46002-6.23999,2.18005-11.63,2.67004-15.94995,2.40002-3.26001-.18994-5.91003-.82007-7.87012-1.44995-2.55994-.84009-3.92993-1.71008-3.92993-1.71008,0,0,2.76001-4.20007,7.81006-9.17004,4.01001-3.92993,9.44995-8.34998,16.08997-11.53992.31995-.15002.63-.30005.94006-.43005,6.87988-3.12,13.19995-3.88,17.94995-3.81-1.80005,2.72003-3.95996,5.23004-6.52002,7.17004,5.27002-.77002,9.59998-.38,12.28003.07996Z"/><path class="cls-2" d="M880.04829,563.02316s-1.37012.87-3.93005,1.71008c-2.04993.65991-4.87,1.31995-8.34998,1.47998-4.23999.19995-9.45996-.33008-15.46997-2.43005-7.61011-2.67004-13.16003-7.82996-16.94995-12.73999h-.01001c-.08008-.10999-.16016-.21008-.2301-.30994-1.46997-1.91016-2.66003-3.76007-3.60999-5.4101,2.67993-.45996,7.01001-.84998,12.28003-.07996-2.56006-1.94-4.71997-4.45001-6.52002-7.17004,1.93994-.02997,4.13.08002,6.52002.42999,3.56006.53003,7.56006,1.59003,11.76001,3.53003.19995.09003.40991.17999.60999.28003,2.34998,1.12994,4.54993,2.40997,6.58997,3.76996,3.71997,2.48004,6.91003,5.23004,9.5,7.76996,5.05005,4.96997,7.81006,9.17004,7.81006,9.17004Z"/><path class="cls-34" d="M984.99825,545.9932s-6.68994,18.54999-23.75,24.52997c-12.23999,4.29004-21.20996,2.03003-25.30005.41003-1.59985-.63-2.44995-1.17004-2.44995-1.17004,0,0,1.35999-2.06995,3.92993-5.02991,2.95007-3.40015,7.5-7.9801,13.39014-11.91016,0,0,0-.00989.01001,0,1.72998-1.15991,3.56995-2.25989,5.52991-3.25.33997-.17993.69006-.34985,1.04004-.5199,4.42004-2.12,8.63-3.26001,12.37-3.81,5.27002-.77002,9.59998-.38,12.28003.07996,1.87988.32001,2.94995.67004,2.94995.67004Z"/><path class="cls-9" d="M880.04829,569.76315s-1.13013.71008-3.22998,1.46008c0,0-.01001.01001-.01001,0-4.39014,1.56995-13,3.32996-24.51001-.70007-17.06006-5.97998-23.75-24.52997-23.75-24.52997,0,0,1.06995-.35004,2.94995-.67004,2.67993-.45996,7.01001-.84998,12.28003-.07996,3.73999.54999,7.94995,1.69,12.37,3.81.44006.20996.87.42004,1.28992.64001,1.87012.96997,3.64014,2.02002,5.30005,3.12988,4.25,2.84009,7.81006,6.02002,10.56006,8.84009,1.05994,1.08997,2.01001,2.13,2.81995,3.07007,2.56995,2.95996,3.93005,5.02991,3.93005,5.02991Z"/><polygon class="cls-2" points="928.40068 490.58326 917.71617 537.68915 915.01025 534.11468 928.40068 490.58326"/><polygon class="cls-2" points="957.48631 497.96308 943.6887 530.97417 946.11663 533.34872 957.48631 497.96308"/><polygon class="cls-2" points="954.22301 539.98702 978.54216 521.85936 951.35067 543.94447 954.22301 539.98702"/><path class="cls-2" d="M947.26557,561.11468s-.19004,1.82551,3.89434.91275,29.48804-12.27019,29.48804-12.27019c0,0-26.04195,13.91063-31.46748,14.42127s-8.93531-2.51294-8.93531-2.51294l7.02041-.55089Z"/><polygon class="cls-2" points="885.14607 490.58326 895.83058 537.68915 898.5365 534.11468 885.14607 490.58326"/><polygon class="cls-2" points="856.06044 497.96308 869.85805 530.97417 867.43012 533.34872 856.06044 497.96308"/><polygon class="cls-2" points="859.32374 539.98702 835.00459 521.85936 862.19608 543.94447 859.32374 539.98702"/><path class="cls-2" d="M866.28118,561.11468s.19004,1.82551-3.89434.91275-29.48804-12.27019-29.48804-12.27019c0,0,26.04195,13.91063,31.46748,14.42127s8.93531-2.51294,8.93531-2.51294l-7.02041-.55089Z"/><path class="cls-2" d="M963.98824,532.70316c-.03003.35004-.06006.70001-.08997,1.04999-.18005,2.07001-.47009,4.19-.87,6.32001-.16003.86005-.3501,1.72003-.55005,2.59003-.37988,1.60999-.83997,3.21997-1.37,4.82001-.32996.97003-.68005,1.94-1.06995,2.88995-1.48999,3.69995-3.45996,7.30005-6.04004,10.67004-.01001.02002-.03003.02991-.04004.04993-.65991.86011-1.36987,1.66003-2.12988,2.41003-.98999,1-2.07007,1.90002-3.21008,2.7301-3.28992,2.38989-7.07996,4.09985-10.94006,5.30994h-.01001c-11.41992,3.59998-23.46997,2.81995-24.98999,2.04993l-.3999-.43994-1.5-1.65991c-.01001.00989-.02002.0199-.03003.02991-2.17993,2.96008-4.15991,4.67004-5.42993,4.67004-.8501,0-2.06006-1.11011-3.5-3l-.02002-.02002v.02002c.04004.27002.05994.3999.05994.3999,0,0-13.92004,2.63013-26.97998-1.76001-3.70007-1.23999-7.32996-3.03992-10.54993-5.61987-1.09009-.87012-2.13013-1.83008-3.1001-2.88013-.69995-.73999-1.35999-1.5199-1.98999-2.35986,0,0,0-.01001-.01001-.01001-.29004-.40002-.57996-.80005-.85999-1.21997-1.93005-2.87012-3.46997-6.02002-4.69006-9.31006-.35986-.93994-.67993-1.90002-.97998-2.86005-.48999-1.57001-.91992-3.14996-1.28003-4.75-.19995-.87-.38989-1.75-.54993-2.63-.40002-2.07996-.70007-4.15997-.92004-6.19995-.03992-.37-.07996-.73004-.11987-1.09003-.29004-3.02997-.42004-5.96997-.43005-8.71002,1.21997.78003,2.45996,1.64001,3.69006,2.61005.21997.16998.42993.33997.63989.51996-.58997-2.03998-1.12988-4.32001-1.58997-6.85999-.07996-.44-.16003-.87-.22998-1.28998-.65002-3.79004-1.04004-7.15002-1.22009-10.10999.16016-.76001.33008-1.32001.47998-1.68005.1001-.23999.20007-.38995.28003-.42999,1.27002-.59998,1.67004.88,9.27002,5.51001.58008.35999,1.19995.72998,1.87012,1.12.63989.38,1.31995.77002,2.04993,1.17999,4.35999,2.46002,8.21008,5.32001,11.63,8.45001.10999.09003.20996.17999.32007.28998.30994.28003.60986.56006.90991.85004,3.43994,3.28998,6.40002,6.83997,8.93994,10.46997-.16992-1.32996-.26001-2.56-.26001-3.72998,0-5.17999,1.55005-11.5,3.78003-17.59003.08008-.20996.16003-.42999.23999-.63995.32007-.87.66003-1.73004,1.01001-2.58002.03003-.09003.07007-.19.11011-.28003,2.78992-6.76996,6.26001-12.90997,9.13989-16.41998.86011,1.35004,1.70007,2.79004,2.5,4.31.56006-.45001,1.07007-.71997,1.5-.77997,0,0,.82007.82996,2.12012,2.32996.08984.11005.17993.22003.27991.33002.53003.62,1.13,1.34003,1.78003,2.16003.58997-1.37,1.21997-2.68005,1.88-3.93005,3.32007,4.45001,7.27002,10.59003,9.98999,17.56006.04004.09998.08008.19995.10999.29999v.01001c.45007,1.16998.87,2.33997,1.23999,3.54999.07996.22998.15002.45996.22009.70001v.00995c1.23999,4.23004,1.93994,8.71002,1.72998,13.22003-.09009,1.85999-.25,3.70001-.5,5.52002,2.69995-4.76001,7.46997-9.98004,12.73999-14.82001.28003-.26001.55994-.52002.84998-.77002.17004-.15997.33997-.31.51001-.46002,4.93005-4.41998,10.18005-8.45996,14.47998-11.45996.56995-.40002,1.13-.78003,1.66003-1.15002h.01001c4.18994-2.83002,7.18994-4.45001,7.57996-4.12.13.09998.52991,1.23999,1,3.13v.02002c.17004.69.33997,1.46997.52002,2.35999v.01001c-.22009,2.29999-.55005,4.82001-1.02002,7.56-.06995.41998-.15002.84998-.22998,1.28998-.47009,2.54999-1.01001,4.83002-1.59998,6.87.20996-.17999.42993-.35999.6499-.52997,1.22998-.96002,2.45007-1.82001,3.67004-2.60004.09998,2.67999.07996,5.54004-.14001,8.5Z"/><path class="cls-38" d="M893.11958,572.32358c-9.50684,0-22.31934-2.20605-29.37305-12.71582-10.57031-15.74805-8.04395-40.61328-6.7002-45.73438.22656.15918.49121.35254.75195.54395,1.49707,1.09473,4.28223,3.13379,9.69824,6.18359,25.25879,14.22363,31.86035,44.3252,33.06836,51.25195-1.53906.20117-4.20312.4707-7.44531.4707Z"/><path class="cls-33" d="M858.06709,516.46396c1.68494,1.20032,4.3623,3.00507,8.69385,5.44427,23.08887,13.00195,30.24609,39.76324,32.03064,48.63788-1.47791.146-3.43237.27783-5.67139.27783-9.14172,0-21.4425-2.09094-28.12817-12.05164-9.12585-13.59631-8.12268-34.59717-6.92493-42.30835M856.62886,512.03775c-.15137.00006-.29834.03998-.46082.11731-1.33704.63611-5.6842,30.38513,6.33301,48.28912,7.58191,11.2959,21.42896,13.37976,30.61914,13.37976,5.3761,0,9.16003-.71375,9.16003-.71375,0,0-4.55188-37.20642-34.04724-53.81598-9.17822-5.16846-10.50964-7.25653-11.60413-7.25647h0Z"/><path class="cls-38" d="M918.29927,572.20346c-2.84473,0-4.62695-.2334-5.26855-.38574l-.95508-1.06055c.99414-3.21973,4.94727-15.60645,10.36426-27.19043,5.54004-11.8457,27.99609-27.70801,33.17383-30.375,1.7666,5.74023,6.39648,30.25781-6.82812,47.52734-8.16113,10.65625-25.39551,11.48438-30.48535,11.48438h-.00098ZM956.49751,512.81479h0Z"/><path class="cls-33" d="M954.65327,515.43198c1.849,7.78967,4.55383,29.21094-7.05945,44.37561-6.1521,8.03357-19.16699,10.89587-29.29553,10.89587-2.18884,0-3.71655-.14307-4.48999-.26367l-.04626-.05139c1.29187-4.10901,5.03296-15.48755,10.03674-26.18665,4.83081-10.32941,23.87329-24.56152,30.85449-28.76978M956.3636,511.32584c-2.46741,0-29.05933,18.29889-35.28235,31.60498-6.38464,13.65192-10.68689,28.20026-10.68689,28.20026l1.78113,1.97913c.58606.29565,2.88245.59326,6.1228.59326,8.6554,0,24.05737-2.1217,31.67737-12.0719,15.43665-20.15729,7.18823-49.73035,6.53088-50.26813-.03076-.02515-.07886-.0376-.14294-.0376h0Z"/><path class="cls-38" d="M905.50337,573.97104c-.17871-.08984-.76953-.46973-1.89551-1.91992l-.19141-.26074c-2.95996-3.93066-6.69922-11.30469-9.52441-18.78711-1.46094-3.81836-2.63281-7.58691-3.3916-10.9043-.37598-1.61035-.65234-3.12988-.82227-4.52539l-.0127-.11621c-.15137-1.14062-.22754-2.22559-.22754-3.22461,0-4.17188,1.16504-9.55664,3.36816-15.57422.34766-.95996.74609-1.9873,1.2207-3.14844,3.45898-8.37988,7.58301-14.61816,9.86816-16.44629.07227-.05664.1377-.10742.19922-.15137.3457.37402.80566.88379,1.35156,1.5127.07715.09668.18457.22754.30273.35742.48926.57324,1.07812,1.2793,1.71387,2.08203,3.19434,4.02344,7.60449,10.3623,10.47852,17.71484.5459,1.39746.9873,2.66992,1.34961,3.88379l.04785.1709c1.17773,4.0332,1.69043,7.93555,1.52148,11.59961-.08008,1.68359-.23047,3.33691-.44824,4.91406l-.01367.12012c-.21387,1.65527-.50977,3.32031-.90332,5.08887-.35742,1.68262-.80176,3.4082-1.32324,5.14453-2.12891,7.10742-5.4668,14.13086-8.92773,18.78711-2.04492,2.76465-3.32812,3.57031-3.74023,3.68262Z"/><path class="cls-33" d="M903.98982,501.03964c.0946.10754.19238.2196.29333.33588.10291.12573.2074.25092.32007.37665.59277.69403,1.14392,1.36322,1.68518,2.04608,3.13013,3.94366,7.4502,10.151,10.25464,17.3241.49744,1.27679.90503,2.43878,1.2406,3.53827l.11487.39343c1.13171,3.87561,1.62378,7.61395,1.46301,11.10822-.07678,1.63385-.22327,3.24261-.43518,4.78162l-.02808.21368v.0119c-.20862,1.58618-.49341,3.17963-.87476,4.89093-.34399,1.62103-.77759,3.30688-1.28906,5.01172-2.08118,6.9458-5.33142,13.79517-8.69788,18.32666-1.05713,1.42871-1.88013,2.2688-2.40918,2.71997-.18909-.19995-.42627-.4707-.71436-.83411l-.29846-.39636c-2.83655-3.76599-6.58191-11.16638-9.32422-18.42651-1.43335-3.74902-2.58411-7.44824-3.33069-10.71075-.35437-1.51752-.61707-2.953-.78149-4.2702v-.02502l-.02588-.19568c-.14209-1.07507-.21411-2.09351-.21411-3.02692,0-3.99768,1.13318-9.20477,3.28174-15.07104.33984-.9411.73059-1.94922,1.19141-3.0744,2.92114-7.07758,6.36743-12.65936,8.57849-15.0481M904.45821,497.11319c-.42993.06-.93994.32996-1.5.77997-2.84998,2.28003-7.07996,9.20001-10.31995,17.04999-.43005,1.05005-.84998,2.12006-1.23999,3.20001-2.04004,5.57001-3.46008,11.35004-3.46008,16.09003,0,1.07001.08008,2.20996.23999,3.41998v.01001c.18005,1.51001.47009,3.09998.86011,4.77002.81006,3.53998,2.02002,7.35999,3.44995,11.09998,2.94995,7.80994,6.80005,15.27002,9.72998,19.16003v.01001c1.32007,1.75,2.44995,2.78003,3.22998,2.78003,1.16003,0,2.97998-1.57007,5-4.30005,3.12012-4.19995,6.72998-11.14001,9.16003-19.25.51001-1.69995.97009-3.45996,1.34998-5.25.39014-1.75.70996-3.52002.94006-5.32001v-.01001c.22998-1.66998.38-3.35004.45996-5.04999.19006-4.13-.44995-8.22003-1.57996-12.09003v-.01001c-.42004-1.42999-.91003-2.81-1.43994-4.16998-2.94006-7.52002-7.43005-13.97998-10.70007-18.09998-.65002-.82001-1.25-1.54004-1.78003-2.16003-.09998-.10999-.19006-.21997-.27991-.33002-1.30005-1.5-2.12012-2.32996-2.12012-2.32996h0Z"/><path class="cls-1" d="M951.65462,523.66232c-4.97465,16.37414-18.65939,44.25335-37.48632,46.77636-.00013-.00012-.02736-.19824-.02736-.19824,2.44763-.76306,4.67871-2.0542,6.79602-3.42786,10.53952-7.23984,18.30335-17.877,24.24942-29.1014,2.39719-4.54758,4.57212-9.24027,6.27671-14.10624,0,0,.19153.05737.19153.05737h0Z"/><path class="cls-1" d="M862.8614,528.28525c5.60496,15.07327,15.34497,28.86823,28.8918,37.72136,1.92082,1.25337,3.93535,2.36458,6.0092,3.44722l-.06799.18811c-9.26999-2.17954-16.99173-8.75504-22.46181-16.3413-5.59786-7.52228-9.83126-16.01151-12.56239-24.95684.00003-.00001.1912-.05855.1912-.05855h0Z"/><path class="cls-1" d="M905.34883,516.11319c.22174,6.76279.57317,20.35133.69991,27.11321.33374,9.05382.39382,18.08822-.69999,27.11305.00008,0-.2,0-.2,0-1.09367-9.02484-1.03359-18.05924-.69986-27.1131.12719-6.75314.47793-20.36242.69989-27.11318-.00004.00002.20003.00002.20003.00002h0Z"/><path class="cls-17" d="M963.3839,594.81739l-.02002.12c-5.3999,1.22003-13.62988,2.24005-23.68994,2.95001-5.64001.40002-11.8501.70001-18.45996.87-.95007.03003-1.90015.04999-2.86011.07001-1.08997.03003-2.19995.04004-3.31995.06-.59998.02002-1.20007.02002-1.79993.03003-2.12012.02997-4.28003.03998-6.46008.03998-2.27991,0-4.52991-.01001-6.73999-.03998-.58997-.01001-1.19006-.02002-1.77002-.03003-1.18005-.01001-2.34998-.03998-3.51001-.06-7.50989-.16998-14.55994-.48999-20.87-.94-9.78003-.69-17.82996-1.66998-23.22998-2.84998-4.76001-1.04004-7.45996-2.22003-7.45996-3.48004v-16.59998c0,2.59998,11.53003,4.89001,28.95996,6.21002,9.95996.76001,21.85999,1.20001,34.62,1.20001,12.77002,0,24.67004-.44,34.63-1.20001l-.54004,5.20001-1.18994,11.48999c10.15991-.73004,18.41992-1.79004,23.70996-3.04004Z"/><path class="cls-42" d="M850.65392,595.03742c-4.76001-1.04004-7.45996-2.22003-7.45996-3.48004v-16.59998c0,2.59998,11.53003,4.89001,28.95996,6.21002l1.72998,16.71997c-9.78003-.69-17.82996-1.66998-23.22998-2.84998Z"/><path class="cls-21" d="M874.41393,603.0774c-9.81006-.66998-17.92993-1.64996-23.41992-2.81l-.84009-5.22998c5.48999,1.20001,13.72998,2.20001,23.72998,2.88l.53003,5.15997Z"/><path class="cls-23" d="M880.80394,664.83741h-6.44006c-7.5,0-13.8999-5.46002-15.08997-12.87l-8.27991-51.70001c5.48999,1.16003,13.60986,2.14001,23.41992,2.81l6.39001,61.76001Z"/><path class="cls-12" d="M970.34386,574.95741v16.59998c0,1.17004-2.31995,2.27002-6.45996,3.26001-.16992.04004-.33997.08002-.52002.12l.02002-.12c-5.29004,1.25-13.55005,2.31-23.70996,3.04004l1.18994-11.48999.54004-5.20001c17.41992-1.32001,28.93994-3.61005,28.93994-6.21002Z"/><path class="cls-32" d="M963.36388,594.93739l-.85999,5.35004-8.27991,51.67999c-1.19006,7.40997-7.59009,12.87-15.1001,12.87h-6.37l6.38-61.75.54004-5.20001c10.06006-.70996,18.29004-1.72998,23.68994-2.95001Z"/><path class="cls-32" d="M963.3839,594.81739l-.02002.12c-5.3999,1.22003-13.62988,2.24005-23.68994,2.95001v-.02997c10.15991-.73004,18.41992-1.79004,23.70996-3.04004Z"/><polygon class="cls-25" points="200.8125 667.5285 212.00684 636.54803 232.43555 580.03827 316.20312 653.62128 325.65625 667.5285 200.8125 667.5285"/><path class="cls-36" d="M232.87769,581.75824l82.56982,72.52997,8.32007,12.23999h-121.53003l10.70996-29.63995,11.77002-32.54999,8.16016-22.58002M231.99365,578.31976l-.99683,2.75873-8.16016,22.58002-11.77002,32.54962-10.71021,29.64038-.96802,2.67969h128.15698l-2.12378-3.12433-8.32007-12.23999-.14307-.21039-.19116-.16791-82.56982-72.52997-2.20386-1.93585h0Z"/><polygon class="cls-19" points="225.55759 604.39823 222.84757 642.34818 221.1276 666.52817 202.23759 666.52817 212.94761 636.88822 224.71757 604.33823 225.55759 604.39823"/><polygon class="cls-15" points="323.76755 666.52817 266.61759 666.52817 222.84757 642.34818 212.94761 636.88822 224.71757 604.33823 232.8776 581.75821 315.44761 654.28818 323.76755 666.52817"/><path class="cls-18" d="M311.4376,679.25821c-10.10004-.59003-16.26001-.98999-16.26001-.98999l-84.77002-54.13s-7.14996-4.33002-4.07996-15.31c2.38995-8.58002,17.75995-75.73004,37.51996-111.85004,6.66003,14.42999,64.10999,139.82001,67.59003,182.28003Z"/><path class="cls-18" d="M484.07761,679.51822c-.25,1.27997-.98004,1.89996-1.55005,2.19-4.29999,2.25-18.29999,3.33997-42.81,3.33997-39.72998,0-97.09998-2.98999-126.20001-4.66998-.68994-.03998-1.35999-.08002-2.00995-.10999-.02002-.33002-.04004-.67004-.07001-1.01001.64996.03998,1.32001.08002,2.01001.12-3.44-44.78998-65.40002-178.12-68.40002-184.53998,5.19-9.06006,10.65997-15.91003,16.26001-18.95001,10.64001-5.78003,22.64996-7.54999,33.39001-7.54999v-1c17.04999,0,31.10999,4.48999,31.25,4.53998l.26996.08002.17999.20996c.40002.47003,40.80005,47.14001,80.19,95.69,53.08002,65.39001,79.14001,102.96002,77.49005,111.66003Z"/><path class="cls-18" d="M406.58756,567.85819c-39.38995-48.54999-79.78998-95.21997-80.19-95.69l-.17999-.20996-.26996-.08002c-.14001-.04999-14.20001-4.53998-31.25-4.53998v1c17.07996-.01001,30.94995,4.48999,30.94995,4.48999,0,0,172.76001,199.48999,156.42004,208-4.54004,2.35999-20.98004,3.21997-42.35004,3.21997-40,0-97.29999-2.98999-126.26996-4.66998-.69-.03998-1.36005-.08002-2.01001-.12.02997.33997.04999.67999.07001,1.01001.00995.15997.01996.32001.02997.47998l2-.09998c0-.09003-.01001-.18005-.02002-.27002,29.10004,1.67999,86.47003,4.66998,126.20001,4.66998,24.51001,0,38.51001-1.08997,42.81-3.33997.57001-.29004,1.30005-.91003,1.55005-2.19,1.64996-8.70001-24.41003-46.27002-77.49005-111.66003Z"/><path class="cls-36" d="M461.7476,637.35819c-12.92999-18-31.22003-41.59998-54.38-70.13-39.41003-48.56-79.81-95.25-80.21002-95.70996l-.37-.42004-.52997-.16998c-.58002-.19-14.36005-4.58997-31.56-4.58997-13.27002,0-24.82001,2.62-34.35004,7.78998-11,5.97998-22.62,26.19-34.54999,60.07001-9.47998,26.95001-16.76001,55.82001-19.87,68.14996-.71002,2.82001-1.22998,4.87-1.53003,5.94-3.42999,12.30005,4.63,17.36005,4.97003,17.56l84.72998,54.11005.42999.27997.52002.03003c.89001.06,89.65997,5.77997,144.66998,5.77997,24.67004,0,38.83002-1.13,43.28003-3.45001.76001-.39996,1.73999-1.21997,2.06-2.89996.64001-3.34003-1.09003-11.38-23.31-42.34003ZM484.07761,679.51822c-.25,1.27997-.98004,1.89996-1.55005,2.19-4.29999,2.25-18.29999,3.33997-42.81,3.33997-39.72998,0-97.09998-2.98999-126.20001-4.66998.01001.08997.02002.17999.02002.27002l-2,.09998c-.01001-.15997-.02002-.32001-.02997-.47998-.02002-.33002-.04004-.67004-.07001-1.01001-10.10004-.59003-16.26001-.98999-16.26001-.98999l-84.77002-54.13s-7.14996-4.33002-4.07996-15.31c2.38995-8.58002,17.75995-75.73004,37.51996-111.85004,6.66003,14.42999,64.10999,139.82001,67.59003,182.28003.64996.03998,1.32001.08002,2.01001.12-3.44-44.78998-65.40002-178.12-68.40002-184.53998,5.19-9.06006,10.65997-15.91003,16.26001-18.95001,10.64001-5.78003,22.64996-7.54999,33.39001-7.54999v-1c17.04999,0,31.10999,4.48999,31.25,4.53998l.26996.08002.17999.20996c.40002.47003,40.80005,47.14001,80.19,95.69,53.08002,65.39001,79.14001,102.96002,77.49005,111.66003Z"/><path class="cls-36" d="M313.53757,680.64823l-2,.09998c-.01001-.15997-.02002-.32001-.02997-.47998-.02002-.33002-.04004-.67004-.07001-1.01001.64996.03998,1.32001.08002,2.01001.12.02997.33997.06.67999.06995,1,.01001.08997.02002.17999.02002.27002Z"/><polygon class="cls-25" points="714.67969 667.5285 724.13281 653.62128 807.90137 580.03827 839.52344 667.5285 714.67969 667.5285"/><path class="cls-36" d="M807.45874,581.75824l8.16016,22.58002,11.76978,32.54999,10.71021,29.63995h-121.53003l8.31982-12.23999,82.57007-72.52997M808.34277,578.31976l-2.20386,1.93585-82.57007,72.52997-.19116.16791-.14307.21039-8.31982,12.23999-2.12378,3.12433h128.15723l-.96851-2.67969-10.71021-29.63995-11.76978-32.55042-8.16016-22.57965-.99683-2.75873h0Z"/><polygon class="cls-19" points="814.77876 604.39823 817.48878 642.34818 819.20876 666.52817 838.09877 666.52817 827.38875 636.88822 815.61879 604.33823 814.77876 604.39823"/><polygon class="cls-15" points="716.5688 666.52817 773.71876 666.52817 817.48878 642.34818 827.38875 636.88822 815.61879 604.33823 807.45876 581.75821 724.88875 654.28818 716.5688 666.52817"/><path class="cls-18" d="M728.89876,679.25821c10.10004-.59003,16.26001-.98999,16.26001-.98999l84.77002-54.13s7.14996-4.33002,4.07996-15.31c-2.38995-8.58002-17.75995-75.73004-37.51996-111.85004-6.66003,14.42999-64.10999,139.82001-67.59003,182.28003Z"/><path class="cls-18" d="M556.25874,679.51822c.25,1.27997.98004,1.89996,1.55005,2.19,4.29999,2.25,18.29999,3.33997,42.81,3.33997,39.72998,0,97.09998-2.98999,126.20001-4.66998.68994-.03998,1.35999-.08002,2.00995-.10999.02002-.33002.04004-.67004.07001-1.01001-.64996.03998-1.32001.08002-2.01001.12,3.44-44.78998,65.40002-178.12,68.40002-184.53998-5.19-9.06006-10.65997-15.91003-16.26001-18.95001-10.64001-5.78003-22.64996-7.54999-33.39001-7.54999v-1c-17.04999,0-31.10999,4.48999-31.25,4.53998l-.26996.08002-.17999.20996c-.40002.47003-40.80005,47.14001-80.19,95.69-53.08002,65.39001-79.14001,102.96002-77.49005,111.66003Z"/><path class="cls-18" d="M556.25874,679.51822c.25,1.27997.98004,1.89996,1.55005,2.19,4.29999,2.25,18.29999,3.33997,42.81,3.33997,39.72998,0,97.09998-2.98999,126.20001-4.66998-.01001.08997-.02002.17999-.02002.27002l2,.09998c.01001-.15997.02002-.32001.02997-.47998.02002-.33002.04004-.67004.07001-1.01001-.64996.03998-1.32001.08002-2.01001.12-28.96997,1.67999-86.26996,4.66998-126.26996,4.66998-21.37,0-37.81-.85999-42.35004-3.21997-16.33997-8.51001,156.42004-208,156.42004-208,0,0,13.87-4.5,30.94995-4.48999v-1c-17.04999,0-31.10999,4.48999-31.25,4.53998l-.26996.08002-.17999.20996c-.40002.47003-40.80005,47.14001-80.19,95.69-53.08002,65.39001-79.14001,102.96002-77.49005,111.66003Z"/><path class="cls-36" d="M555.27876,679.69821c.32001,1.67999,1.29999,2.5,2.06,2.89996,4.45001,2.32001,18.60999,3.45001,43.28003,3.45001,55.01001,0,143.77997-5.71997,144.66998-5.77997l.52002-.03003.42999-.27997,84.72998-54.11005c.34003-.19995,8.40002-5.25995,4.97003-17.56-.30005-1.07001-.82001-3.12-1.53003-5.94-3.10999-12.32996-10.39001-41.19995-19.87-68.14996-11.92999-33.88-23.54999-54.09003-34.54999-60.07001-9.53003-5.16998-21.08002-7.78998-34.35004-7.78998-17.19995,0-30.97998,4.39996-31.56,4.58997l-.52997.16998-.37.42004c-.40002.45996-40.79999,47.14996-80.21002,95.70996-23.15997,28.53003-41.45001,52.13-54.38,70.13-22.21997,30.96002-23.95001,39-23.31,42.34003ZM633.74879,567.85819c39.38995-48.54999,79.78998-95.21997,80.19-95.69l.17999-.20996.26996-.08002c.14001-.04999,14.20001-4.53998,31.25-4.53998v1c10.74005,0,22.75,1.76996,33.39001,7.54999,5.60004,3.03998,11.07001,9.88995,16.26001,18.95001-3,6.41998-64.96002,139.75-68.40002,184.53998.69-.03998,1.36005-.08002,2.01001-.12,3.48004-42.46002,60.92999-167.85004,67.59003-182.28003,19.76001,36.12,35.13,103.27002,37.51996,111.85004,3.07001,10.97998-4.07996,15.31-4.07996,15.31l-84.77002,54.13s-6.15997.39996-16.26001.98999c-.02997.33997-.04999.67999-.07001,1.01001-.00995.15997-.01996.32001-.02997.47998l-2-.09998c0-.09003.01001-.18005.02002-.27002-29.10004,1.67999-86.47003,4.66998-126.20001,4.66998-24.51001,0-38.51001-1.08997-42.81-3.33997-.57001-.29004-1.30005-.91003-1.55005-2.19-1.64996-8.70001,24.41003-46.27002,77.49005-111.66003Z"/><path class="cls-36" d="M726.79878,680.64823l2,.09998c.01001-.15997.02002-.32001.02997-.47998.02002-.33002.04004-.67004.07001-1.01001-.64996.03998-1.32001.08002-2.01001.12-.02997.33997-.06.67999-.06995,1-.01001.08997-.02002.17999-.02002.27002Z"/><rect class="cls-18" x="350.3538" y="570.09038" width="325.38311" height="104.87719"/><path class="cls-39" d="M775.95891,357.39537l-17.5,233.63007c-.09003,1.23999-.29999,2.43994-.60999,3.58997-2.23004,8.39001-9.88,14.47998-18.86005,14.47998h-437.63995c-8.98004,0-16.63-6.08997-18.86005-14.47998-.31-1.15002-.51996-2.34998-.60999-3.58997l-17.5-233.63007c-.08002-1-.07001-2,0-2.96997.76001-10,9.13-18.02002,19.47003-18.02002h472.63995c9.30005,0,17.01001,6.48999,19.02002,15.07001.44,1.89001.60004,3.88.45001,5.91998Z"/><rect class="cls-28" x="298.80648" y="558.28569" width="442.7234" height="3.74468"/><path class="cls-5" d="M757.8482,594.6154c-2.23004,8.39001-9.88,14.47998-18.86005,14.47998h-437.63995c-8.98004,0-16.63-6.08997-18.86005-14.47998h475.36005Z"/><rect class="cls-8" x="26.40234" y="665.94452" width="987.53223" height="36.21289"/><path class="cls-13" d="M1012.93408,666.94446v34.21277H27.4021v-34.21277h985.53198M1014.93408,664.94446H25.4021v38.21277h989.53198v-38.21277h0Z"/><rect class="cls-6" x="27.40222" y="699.1147" width="985.53191" height="2.04255"/><rect class="cls-24" x="27.40222" y="666.94449" width="985.53191" height="2.7234"/><path class="cls-40" d="M664.94795,664.98704h-289.55954c-.78115,0-1.15294-.96147-.57503-1.48701l.00003-.00002c15.20777-13.82967,35.02512-21.493,55.58079-21.493h179.54795c20.55564,0,40.37296,7.66331,55.58072,21.49294l.0001.00009c.57792.52555.20612,1.48701-.57503,1.48701Z"/><path class="cls-3" d="M775.85821,351.47539l-71.59998,47.85999c-11.92999,7.97003-25.94,12.22003-40.29004,12.22003h-291.75c-14.34998,0-28.35999-4.25-40.28998-12.22003l-67.20001-44.90997c.76001-10,9.13-18.02002,19.47003-18.02002h472.63995c9.30005,0,17.01001,6.48999,19.02002,15.07001Z"/><path class="cls-11" d="M267.71819,357.15538c-.06-.77997-.06-1.63,0-2.5.65002-8.54999,7.89001-15.25,16.48004-15.25h483.02997c-3-1.90002-6.56-3-10.39001-3h-472.63995c-10.34003,0-18.71002,8.02002-19.47003,18.02002-.07001.96997-.08002,1.96997,0,2.96997l17.5,233.63007c.09003,1.23999.29999,2.43994.60999,3.58997.64001,2.40002,1.72003,4.59998,3.15002,6.53992l-.77002-10.34985-17.5-233.65009Z"/><path class="cls-36" d="M756.48887,338.40544c8.18652,0,15.20709,5.56213,17.07208,13.52344.4007,1.72095.53632,3.51074.40356,5.31708l-17.50037,233.6347c-.07825,1.07825-.26202,2.15967-.5481,3.22107-2.03351,7.65051-8.99414,12.99365-16.92719,12.99365h-437.63998c-7.93298,0-14.89365-5.34314-16.92892-13.00049-.28427-1.05457-.46808-2.13599-.54666-3.21887l-17.50079-233.64014c-.06668-.83398-.06628-1.73114.00067-2.65894.68912-9.06812,8.36539-16.17151,17.47571-16.17151h472.63998ZM756.48887,336.40544h-472.63998c-10.34,0-18.70999,8.01996-19.47,18.01996-.06998.96997-.07999,1.96997,0,2.96997l17.5,233.63007c.09003,1.23999.30002,2.43994.61002,3.58997,2.23001,8.39001,9.88,14.47998,18.85999,14.47998h437.63998c8.98004,0,16.63-6.08997,18.86005-14.47998.31-1.15002.51996-2.34998.60999-3.58997l17.5-233.63007c.15002-2.03998-.01001-4.02997-.45001-5.91998-2.01001-8.58002-9.71997-15.06995-19.02002-15.06995h0Z"/><path class="cls-35" d="M499.3132,490.34538c-10.85999,0-20.12,8.94-21.82001,21.08002l-18.26001,130.58002h-8l20.66003-130.58002c1.91998-12.14001,12.38995-21.08002,24.67999-21.08002h2.73999Z"/><path class="cls-41" d="M589.10318,642.00542h-8l-18.26996-130.58002c-1.70001-12.14001-10.95001-21.08002-21.82001-21.08002h2.73999c12.28998,0,22.76001,8.94,24.67999,21.08002l20.66998,130.58002Z"/><path class="cls-43" d="M581.10318,642.00542h-121.87l18.26001-130.58002c1.70001-12.14001,10.96002-21.08002,21.82001-21.08002h41.70001c10.87,0,20.12,8.94,21.82001,21.08002l18.26996,130.58002Z"/><path class="cls-22" d="M504.3432,489.32343c-3.47003,0-6.38,3.13-6.72003,7.22998l-12.08997,145.45001h-6.47003l14.35004-145.45001c.39996-4.09998,3.85999-7.22998,7.97998-7.22998h2.95001Z"/><path class="cls-31" d="M561.27319,642.00343h-6.47003l-12.08997-145.45001c-.34003-4.09998-3.23999-7.22998-6.72003-7.22998h2.95001c4.13,0,7.58002,3.13,7.97998,7.22998l14.35004,145.45001Z"/><path class="cls-26" d="M554.80316,642.00343h-69.26996l12.08997-145.45001c.34003-4.09998,3.25-7.22998,6.72003-7.22998h31.64996c3.48004,0,6.38,3.13,6.72003,7.22998l12.08997,145.45001Z"/></svg>