<?xml version="1.0" encoding="UTF-8"?><svg id="Camada_1" xmlns="http://www.w3.org/2000/svg" viewBox="0 0 295.75405 377.49219"><defs><style>.cls-1{fill:#dcc1a6;}.cls-2{fill:#f6dbc2;}.cls-3{fill:#cda681;stroke:#1a365b;stroke-miterlimit:10;stroke-width:2px;}.cls-4{fill:#c39b75;}.cls-5{fill:none;}.cls-6{fill:#eacab0;}.cls-7{fill:#2d3041;}.cls-8{fill:#62798f;}.cls-9{fill:#ecd4ba;}.cls-10{fill:#ceab90;}.cls-11{fill:#38434c;}.cls-12{fill:#1a365b;}</style></defs><path class="cls-9" d="M147.02172,360.43964c-16.16797,0-30.96777-2.13281-43.98828-6.33887C17.97387,326.55585,20.85472,215.53339,22.5764,149.1994c.21875-8.41211.4248-16.3584.4248-23.20898C23.00121,62.89764,70.15258,9.56659,132.67992,1.93768c4.99316-.62207,10.14551-.9375,15.31152-.9375,5.03613,0,10.08594.30176,15.00977.89648,62.69824,7.49902,109.98047,60.84766,109.98047,124.09375,0,6.35254.16016,13.64062.3291,21.35742,1.46387,66.64453,3.91309,178.18555-81.35547,206.46191-13.26172,4.39941-28.37988,6.62988-44.93359,6.62988Z"/><path class="cls-12" d="M147.9912,2c5.04004,0,10.01001.30005,14.89014.89001,61.45996,7.35004,109.09985,59.6601,109.09985,123.10004,0,60.32007,14.2002,195.52002-80.33984,226.87-12.78003,4.23999-27.55005,6.57996-44.62012,6.57996-16.67993,0-31.13989-2.23999-43.67993-6.28992C8.2014,322.34003,24.00121,186.50006,24.00121,125.99005,24.00121,62.65009,71.4912,10.41003,132.80126,2.93005c4.97998-.62,10.05005-.93005,15.18994-.93005M147.9912,0c-5.2041,0-10.39795.31805-15.43701.94531C69.53075,8.6344,22.00121,62.39215,22.00121,125.99005c0,6.83752-.20605,14.7771-.42432,23.18298-1.72876,66.6134-4.62207,178.104,81.14819,205.87976,13.12354,4.2384,28.02637,6.38721,44.29614,6.38721,16.66187,0,31.88623-2.24805,45.25-6.68176,85.96826-28.50757,83.50879-140.51111,82.03931-207.43091-.16943-7.71167-.32935-14.99561-.32935-21.33728,0-63.75232-47.6604-117.52759-110.8623-125.08588-4.96191-.59991-10.05249-.90417-15.12769-.90417h0Z"/><path class="cls-1" d="M191.64124,352.86007l-23.19995-8.79004s56.37-72.94995,56.37-160.50995c0-18.27002-30.97003-9.48004-31.95001-9.20001l27.39001-18.72003S248.65124,40.43007,162.88129,2.89003c61.45996,7.35004,109.09998,59.66003,109.09998,123.10004,0,60.32001,14.20001,195.51996-80.34003,226.87Z"/><path class="cls-2" d="M75.50128,155.64003l27.38995,18.72003c-.97998-.28003-31.94995-9.07001-31.94995,9.20001,0,87.56,56.37,160.50995,56.37,160.50995l-23.97003,9.08002C8.20129,322.34005,24.00128,186.50002,24.00128,125.99007,24.00128,62.65004,71.49127,10.41005,132.80127,2.93007c-85.67999,37.56995-57.29999,152.70996-57.29999,152.70996Z"/><path class="cls-6" d="M270.42699,236.89178c-1.6748,0-2.82812-.44727-3.42676-1.3291-.55078-.8125-.4248-1.68457-.31543-2.10059l-1.94922-53.89355.13281-.24219c.23047-.42188,5.76562-10.33789,15.28027-10.33789,2.9082,0,5.87891.9502,8.83203,2.82422,5.11035,3.24414,6.90332,11.95898,5.0498,24.53809-2.4043,16.31738-10.95312,37.60547-17.96289,39.56738-2.30664.64551-4.20508.97363-5.64062.97363h0Z"/><path class="cls-12" d="M280.14818,169.98871c2.49731,0,5.27612.75159,8.29663,2.66882,13.94385,8.85107-2.9187,59.57446-12.64697,62.29785-2.43213.68091-4.15479.93616-5.37085.93616-3.64819,0-2.73608-2.29785-2.73608-2.29785l-1.94556-53.78723s5.37134-9.81775,14.40283-9.81775M280.14818,167.98871c-10.10107,0-15.91479,10.41443-16.15747,10.85779l-.26392.48254.01978.54968,1.93433,53.47461c-.17676.79626-.12964,1.85498.49219,2.77075.79614,1.17285,2.22754,1.76746,4.25391,1.76746,1.54858,0,3.48169-.33044,5.90991-1.01025,7.47852-2.09351,16.18384-23.42834,18.68262-40.38501,1.35474-9.19202,1.49976-21.08228-5.50293-25.52734-3.11548-1.97754-6.26758-2.98022-9.36841-2.98022h0Z"/><path class="cls-3" d="M271.28749,224.63022c3.68955-3.05778,13.84071-29.78119,10.99839-31.82374s-13.19651,10.58404-13.19651,10.58404l2.19812,21.2397Z"/><path class="cls-6" d="M25.32738,236.89178c-1.43555,0-3.33398-.32812-5.64062-.97363-7.00977-1.96191-15.55859-23.25-17.96289-39.56738-1.85449-12.5791-.06055-21.29395,5.04883-24.53809,2.95312-1.87402,5.9248-2.82422,8.83301-2.82422,9.51465,0,15.0498,9.91602,15.28027,10.33789l.13281.24219-1.9502,53.89355c.10938.41602.23633,1.28809-.31543,2.10059-.59863.88184-1.75098,1.3291-3.42578,1.3291Z"/><path class="cls-12" d="M15.60595,169.98871c9.03149-.00134,14.40283,9.81775,14.40283,9.81775l-1.9458,53.78723s.91211,2.29785-2.73608,2.29785c-1.21606,0-2.93872-.25525-5.37085-.93616-9.72827-2.72339-26.59058-53.44678-12.64673-62.29785,3.02051-1.91724,5.79932-2.66846,8.29663-2.66882M15.60765,167.98871v2l-.00049-2h-.00146c-3.10156.00049-6.25342,1.00317-9.36816,2.98022-7.00269,4.44507-6.85767,16.33557-5.50317,25.52771,2.49902,16.95654,11.20435,38.29114,18.68262,40.38464,2.42822.67981,4.36133,1.01025,5.90991,1.01025,2.02637,0,3.45776-.5946,4.25391-1.76746.62183-.91577.66895-1.97449.49219-2.77087l1.93457-53.47449.01978-.54968-.26392-.48254c-.24268-.44336-6.05688-10.85779-16.15576-10.85779h0Z"/><path class="cls-3" d="M24.4665,224.63022c-3.68955-3.05778-13.84071-29.78119-10.99839-31.82374s13.19651,10.58404,13.19651,10.58404l-2.19812,21.2397Z"/><path class="cls-11" d="M123.46162,170.75502c2.05071-6.44022-3.31857-8.01822-15.87398-11.9763-12.55542-3.95808-16.77465-5.15254-26.64542-4.97609-18.72119.33466-32.63207,12.66452-32.94233,14.3724s12.52519-4.09826,31.46821-1.47378,20.60722,10.08556,27.96739,12.33865,13.9754-1.84466,16.02612-8.28488Z"/><path class="cls-11" d="M172.29237,170.75502c-2.05071-6.44022,3.31857-8.01822,15.87398-11.9763s16.77465-5.15254,26.64542-4.97609c18.72119.33466,32.63207,12.66452,32.94233,14.3724s-12.52519-4.09826-31.46821-1.47378c-18.94302,2.62448-20.60722,10.08556-27.96739,12.33865-7.36017,2.25309-13.9754-1.84466-16.02612-8.28488Z"/><path class="cls-11" d="M272.29701,210.23218s-22.56,76.62006-54.75,76.62006c0-.48004-.35004-23.84003-68.61005-24.25-.06995,0-.14996-.01001-.21997,0-.23999-.02002-.47998-.02002-.72998-.02002-.33002,0-.63,0-.92999.02002h-.02002c-.07001-.01001-.15002,0-.22003,0-68.25995.40997-68.60999,23.76996-68.60999,24.25-32.19,0-54.75-76.62006-54.75-76.62006,0,0-9.03998,63.36005,31.66998,116.53003,20.46002,26.71997,59.08002,50.39001,91.91003,50.71997.22998.01001.46997.01001.70001.01001h.27997c.23004,0,.47003,0,.70001-.01001,32.83002-.32996,71.45001-24,91.90997-50.71997,40.71002-53.16998,31.67004-116.53003,31.67004-116.53003ZM176.26698,320.6322c-21.77997,0-19.46997-14.17999-19.46997-14.17999l-8.08002.87-.71002.08002-.13-.01001-.12994.01001-.71002-.08002-8.08002-.87s2.31,14.17999-19.46997,14.17999-22.06-8.52002-22.06-19.08002c0-9.75995,43.87-10.27997,50.44995-10.29999h.82001c8.77002.07001,49.63.88,49.63,10.29999,0,10.56-.27997,19.08002-22.06,19.08002Z"/><path class="cls-7" d="M149.48464,377.49219v-.01001c-.22998.01001-.46997.01001-.70001.01001h.70001ZM148.64461,307.39221l.13.01001.71002-.08002v-.02002l-.84003.09003Z"/><path class="cls-7" d="M147.80465,307.30218v.02002l.71002.08002.12994-.01001-.83997-.09003ZM147.80465,377.49219h.70001c-.23004,0-.47003,0-.70001-.01001v.01001Z"/><path class="cls-7" d="M149.46635,262.58296v.02161c-.30255-.02161-.60458-.02161-.92847-.02161h.92847Z"/><path class="cls-7" d="M148.53788,262.58296c-.3239,0-.64753,0-.95009.02161v-.02161h.95009Z"/><path class="cls-7" d="M181.76467,190.31219h.00995c-.00995.01001-.01996.03003-.01996.04004l.01001-.04004Z"/><path class="cls-10" d="M73.94945,131.0329c12.39661-.82318,24.81781,1.31248,36.89943,3.87558,9.04553,2.07066,17.95399,4.69569,27.11376,6.18788,2.9728.45867,6.11494.95258,9.11157.6447,5.25962-.57821,12.74429-2.79556,17.97542-4.03402,11.99351-3.09156,24.231-5.52385,36.61029-6.42307,6.19041-.47018,12.40501-.52914,18.58934-.2673v.19995c-6.17529.40295-12.32349.83093-18.43335,1.63452-15.32546,1.85685-30.32531,5.40026-45.40305,8.66298-3.03714.62523-6.11697,1.15294-9.26882,1.31969-5.52748.16869-12.96952-1.958-18.39927-2.90415-18.09714-3.40523-36.77913-7.27991-54.79531-8.89676h0Z"/><path class="cls-10" d="M73.94945,118.409c12.39659-.8233,24.8178,1.31254,36.89943,3.87546,9.04553,2.07083,17.95397,4.69579,27.11376,6.188,2.9728.45867,6.11494.95258,9.11157.6447,5.25962-.57821,12.74429-2.79556,17.97542-4.03402,11.99351-3.09156,24.231-5.52385,36.61029-6.42307,6.19041-.47018,12.40501-.52914,18.58934-.2673v.19995c-6.17529.40295-12.32349.83093-18.43335,1.63452-15.32546,1.85689-30.32531,5.4002-45.40305,8.66298-3.03714.62523-6.11697,1.15294-9.26882,1.31969-5.52748.1686-12.96952-1.95797-18.39927-2.90415-18.09714-3.40523-36.77913-7.27991-54.79531-8.89676h0Z"/><path class="cls-5" d="M271.98113,125.98999C271.98113,57.51108,216.46801,1.99796,147.98911,1.99796S23.99709,57.51108,23.99709,125.98999s-20.23461,233.45479,123.02337,233.45479,124.96068-164.97588,124.96068-233.45479Z"/><path class="cls-4" d="M134.23651,229.68602c1.02128,1.14894,1.02128,14.80851-3.19149,19.14894s1.71166-3.19149,1.8771-11.48936c.16545-8.29787,1.31438-7.65957,1.31438-7.65957Z"/><path class="cls-4" d="M161.78125,230.19666s8.29787,17.10638,4.59574,21.06383c-3.70213,3.95745-4.59574-21.06383-4.59574-21.06383Z"/><path class="cls-4" d="M130.91684,224.63022s4.00942-12.81654,16.67096-12.81654,18.03796,14.85317,18.03796,14.85317l-1.80195-31.1936h-30.38298l-2.52399,29.15696Z"/><path class="cls-8" d="M74.26993,168.93297c.14573.23221.53218.14016.76911.14264,15.18536.15926,36.14625,1.36384,48.90718,10.25845,4.85814,3.38621,8.19151,7.81225,14.74167,8.25178,5.98239-.29141,12.29634.3671,18.23903.00103,7.43398-.45794,11.45049-6.38534,17.35442-9.84514,12.65433-7.41564,31.99118-8.48759,46.4336-8.66612.23709-.00293.62321.08989.76911-.14264h11.49672c.14556.23217.53206.14015.76911.14264,12.95147.13609,26.24539,1.24056,39.10148,2.81906,1.953.23979,6.09455.49159,7.73678,1.09607.91094.3353,1.50588,1.26318,1.88461,2.1112v1.40204c-.18264.1873-.19819.55671-.23799.81416-.56591,3.66085-1.02746,8.17777-1.90407,11.69509-.56501,2.26703-1.91593,2.58456-3.46809,3.96271-6.7911,6.02976-7.16921,14.92213-9.03963,23.20727-2.45492,10.87418-7.19309,27.76365-15.98897,35.04526-5.3818,4.45528-11.94609,5.50588-18.66296,6.57375l-10.56536,1.00147h-7.43081l-4.13467-.28176c-8.59172-.99196-18.05912-2.60473-25.91929-6.32761-8.67364-4.10817-14.06848-13.34705-17.92049-21.75723-3.41093-7.44717-7.34354-22.43182-15.95909-24.98046-13.83743-4.09336-18.53278,15.88994-22.68774,24.98051-4.13308,9.04269-9.58642,18.19117-19.09695,22.2632-7.73469,3.31169-16.40008,4.93559-24.74287,5.82158l-4.13467.28176h-7.57101l-10.42515-1.00147c-7.38809-1.12456-14.53661-2.41485-20.07253-7.82805-7.84489-7.67098-12.37261-23.7832-14.71957-34.3518-1.79942-8.10295-2.22896-16.77061-8.89946-22.64642-1.11913-.98581-2.63981-1.62772-3.19257-3.11661l-2.41759-13.35536v-1.40204c.45273-.97675.90587-1.78517,1.99086-2.14508,1.99466-.66168,6.45456-.92751,8.75217-1.20238,12.72696-1.52257,25.59027-2.49303,38.40971-2.67551l.33925-.14599h11.49672ZM73.82048,177.52667c-9.80317.26189-26.72738,1.46231-33.47569,9.42671-10.888,12.85011-3.65535,40.64552,4.42409,53.61193,3.43579,5.51397,6.79321,9.42893,13.37229,10.88299,14.26061,3.15178,29.4541,2.70112,43.3581-1.7982,8.53286-2.76122,12.27117-6.13136,16.67877-13.88569,7.69319-13.53468,16.33318-41.36755-.77141-51.15258-11.78114-6.73964-30.2644-7.44105-43.58614-7.08516ZM211.92135,177.52667c-10.6504.25574-25.38032,1.88953-34.53439,7.667-15.64297,9.87285-7.45695,36.53638-.37171,49.58921,3.58908,6.61202,7.33236,11.22714,14.53262,13.92878,14.10517,5.29245,29.80932,5.94555,44.54669,3.04103,2.59142-.51073,4.76973-.90571,7.02424-2.36943,7.96486-5.17112,13.69006-19.50806,15.84438-28.46006,2.58476-10.74066,3.89026-27.79597-5.37043-35.79866-8.88385-7.67703-30.37975-7.86901-41.6714-7.59786Z"/><path class="cls-11" d="M227.14401,199.24719l-10.60872-3.47781c-4.34711-4.08573-12.04406-6.42958-20.56581-5.72509-8.43077.69697-15.55306,4.19569-19.22317,8.85394l-.88215-.2783c3.5931-7.39117,12.3983-14.08935,23.18415-14.98102,14.69979-1.21524,27.28251,5.77184,28.09569,15.60828Z"/><path class="cls-11" d="M68.60998,199.24719l10.60872-3.47781c4.34711-4.08573,12.04406-6.42958,20.56581-5.72509,8.43077.69697,15.55306,4.19569,19.22317,8.85394l.88215-.2783c-3.5931-7.39117-12.3983-14.08935-23.18415-14.98102-14.69979-1.21524-27.28251,5.77184-28.09569,15.60828Z"/></svg>