<?xml version="1.0" encoding="UTF-8"?><svg id="Camada_1" xmlns="http://www.w3.org/2000/svg" viewBox="0 0 19.42409 19.4236"><defs><style>.cls-1{fill:#5f5aa4;}</style></defs><path class="cls-1" d="M3.27271,18.50784c-.63461-.07925-1.17159-.55723-1.25636-1.20315l-.00518-7.08349c-1.46053.28418-2.65789-1.03029-1.62056-2.30025,2.61631-1.9453,5.02437-4.50251,7.64402-6.40093,1.14109-.82693,2.26082-.79367,3.38911.02947,2.58619,1.88675,4.95964,4.3807,7.54317,6.30761,1.14373,1.24226-.03968,2.66834-1.55496,2.36409l-.00518,7.08349c-.10042.49891-.36177.90845-.85445,1.08732-.06216.02257-.37272.11583-.40191.11583h-3.85036v-4.56394c0-3.28298-5.17696-3.27203-5.17696,0v4.56394h-3.85036Z"/></svg>