<?xml version="1.0" encoding="UTF-8"?><svg id="Camada_1" xmlns="http://www.w3.org/2000/svg" viewBox="0 0 19.42409 19.4236"><defs><style>.cls-1{fill:#fcfefe;}</style></defs><path class="cls-1" d="M19.4063,2.03288v.52176c-.09732.43334-.22995.83133-.51296,1.17625l-13.15968,13.15968-3.63482,1.75992h7.48188c.01771,0,.19459.11497.2211.15033.16804.2211.02656.49525-.20339.60138H.28581c-.15918-.12377-.32722-.25645-.2476-.49525.84018-1.75992,1.63609-3.53755,2.52048-5.27091L15.69187.52941c1.18505-.96401,2.95382-.49525,3.53755.89324l.17689.61023Z"/><path class="cls-1" d="M12.62302,19.4022h-1.69801c-.43334-.20339-.37143-.7075.13268-.76056.27416-.0265,1.34423-.03536,1.56533.02656.38913.09727.34492.60138,0,.734Z"/></svg>