<?xml version="1.0" encoding="UTF-8"?><svg id="Camada_1" xmlns="http://www.w3.org/2000/svg" viewBox="0 0 19.42409 19.4236"><defs><style>.cls-1{fill:#5f5aa4;}</style></defs><path class="cls-1" d="M0,12.24717V4.1428C.23978,1.9262,2.0259.17012,4.2601.01329h10.87522c2.28621.16158,4.12863,2.00353,4.26193,4.29811.026.44753.04508,1.23589-.00158,1.66838-.10053.93165-1.43162.94855-1.51686-.03676-.06353-.73448.09132-1.42654-.10161-2.17067-.32242-1.24352-1.44268-2.13891-2.71776-2.2441H4.336c-1.49101.12262-2.68147,1.2952-2.82012,2.78558.13476,2.51925-.18144,5.22943-.00207,7.72651.10707,1.49059,1.33284,2.71443,2.82219,2.82138,2.02051.14509,4.21043-.11429,6.2487.00177.93024.15716.86375,1.45101-.07118,1.51295-2.0488-.10116-4.21893.12988-6.25341.00024-2.18352-.13914-4.07363-1.93763-4.2601-4.12951Z"/><path class="cls-1" d="M13.63741,19.40477c-.41048-.05509-.86844-.43768-1.01424-.82279-.12548-.33146-.12628-1.6098-.08011-1.99438.08786-.73203,1.08219-.91467,1.41268-.28458.01688.03217.09837.22941.09837.2425v1.04145c.3894-.25017.63623-.76992,1.15517-.76034.47707.00881.75248.51771,1.11773.76034v-1.04145c0-.10797.1598-.35794.24643-.43531.45919-.41007,1.18611-.12891,1.2656.47641.04823.36723.03739,1.24575.0046,1.62658-.04825.56025-.53404,1.11562-1.09994,1.19157h-.4167c-.4908-.10597-.74854-.4688-1.12437-.75124-.39981.25103-.6431.65191-1.14853.75124-.13255-.01231-.28853.0172-.4167,0Z"/><path class="cls-1" d="M18.52778,12.72861c.3717,1.22137-.69036,2.28343-1.91167,1.91167-.33632.45138-.69036.83194-1.29218.86738-.69917.03538-1.10631-.34518-1.48687-.86738-1.22137.37176-2.28343-.69031-1.91173-1.91167-.4779-.33632-.84075-.70802-.86733-1.32757-.02652-.67264.35404-1.09745.86733-1.45149-.3186-1.01777.40714-2.05331,1.50459-1.98249.1062.00886.3629.09734.43366.06196.28322-.45138.64612-.7877,1.2037-.8408.4248-.04424.89385.1062,1.19479.40714.07968.07962.29208.43366.35404.44252,1.22131-.37176,2.28337.69031,1.91167,1.91167.4691.33632.8408.71688.86733,1.33643.02658.65492-.36284,1.08859-.86733,1.44263Z"/><path class="cls-1" d="M4.42314,4.1906l10.48286-.00948c.93303.0945.93299,1.41944,0,1.51396H4.48942c-.90335-.0915-.9408-1.34383-.06628-1.50447Z"/><path class="cls-1" d="M4.42314,7.22027l5.66811-.00571c.89994.12934.88673,1.4169-.0341,1.51018l-5.60183-.00378c-.86833-.12481-.89498-1.3406-.03217-1.5007Z"/><path class="cls-1" d="M4.42314,10.24994c1.13807.09239,2.59055-.1619,3.69255,0,.8515.1251.84255,1.39573-.03217,1.5007-1.12596.13511-2.50804-.08409-3.66038-.00571-.84392-.15261-.84489-1.34177,0-1.49499Z"/></svg>