<?xml version="1.0" encoding="UTF-8"?><svg id="Camada_1" xmlns="http://www.w3.org/2000/svg" viewBox="0 0 19.42409 19.4236"><defs><style>.cls-1{fill:#5f5aa4;}</style></defs><path class="cls-1" d="M9.13592.0166c6.977-.3998,12.10474,6.49182,9.67696,13.07489-2.13562,5.79086-9.18562,8.15676-14.38103,4.76637l-3.55772,1.52528c-.49915.1785-.97966-.26154-.85385-.77321l1.5451-3.61773c-2.15167-3.30442-2.06728-7.6029.18369-10.83376C3.42225,1.7569,6.19561.18509,9.13592.0166ZM6.58708,4.58525c-.34655.03796-1.09014.7793-1.32496,1.06366-.69048.83616-.61077,2.01843-.28581,2.99366.75644,2.27017,3.94896,5.43211,6.31147,5.94534,1.41929.30833,2.23771-.03404,3.15672-1.09153.31233-.3594.57913-.71856.25916-1.19171-.13629-.20154-1.06079-1.11707-1.27063-1.27781-.74193-.56828-1.0743.39225-1.55803.70902-.27602.18075-.83463-.04583-1.11449-.18044-1.02713-.49405-3.16898-2.56728-3.15344-3.76431.00691-.53238,1.25424-.87048.88553-1.65366-.06961-.14786-1.18038-1.27746-1.35092-1.39971-.15949-.11434-.3565-.17423-.5546-.15253Z"/></svg>