<?xml version="1.0" encoding="UTF-8"?><svg id="Camada_1" xmlns="http://www.w3.org/2000/svg" viewBox="0 0 18.4928 13.00466"><defs><style>.cls-1{fill:#f2f2f2;}</style></defs><path class="cls-1" d="M18.4928,11.59439c-.06396.13288-.06956.29187-.13666.42401-.0173.03407.00932.05805-.06148.04519l-5.54161-5.54839L18.29465.94061c.07081-.01286.04418.01112.06148.04519.03596.07081.12739.35123.13666.42401v10.18459Z"/><path class="cls-1" d="M1.4383.0114l15.52089-.0114c.09233.01104.58438.08227.55806.19903l-7.87193,7.87493c-.20999.18281-.58683.18244-.79621,0L.97682.16438,1.4383.0114Z"/><path class="cls-1" d="M6.48934,7.29925c.70205.49276,1.51854,1.82956,2.39489,1.96752,1.51728.23885,2.09219-1.19611,3.12087-1.96752l5.51252,5.54056c-.01747.07449-.49882.16877-.59421.16472H1.57103c-.12191-.00856-.47023-.06246-.55722-.12896-.03659-.02797-.05907-.05134-.01991-.09012l5.49544-5.48621Z"/><polygon class="cls-1" points=".14653 12.0638 .00034 11.46929 0 1.57069 .16452 .93993 5.7414 6.5152 .14653 12.0638"/></svg>