<?xml version="1.0" encoding="UTF-8"?><svg id="Camada_1" xmlns="http://www.w3.org/2000/svg" viewBox="0 0 14.93655 14.93617"><defs><style>.cls-1{fill:#f2f2f2;}</style></defs><path class="cls-1" d="M7.02525.01277c5.36511-.30744,9.30819,4.99202,7.4413,10.0542-1.64223,4.453-7.06347,6.27231-11.05858,3.6652l-2.73578,1.17289c-.38383.13726-.75333-.20112-.65658-.59458l1.18813-2.78193C-.45083,8.98755-.38594,5.68214,1.34499,3.19772,2.63161,1.351,4.76424.14233,7.02525.01277ZM5.06527,3.52592c-.26648.02919-.83829.59926-1.01886.81792-.53096.64298-.46966,1.55212-.21978,2.30204.58168,1.74569,3.03664,4.17713,4.85333,4.57179,1.09139.23709,1.72073-.02617,2.42742-.83935.24017-.27636.44533-.55255.19929-.91639-.10481-.15498-.81571-.859-.97708-.9826-.57052-.43699-.8261.30163-1.19808.54521-.21225.13899-.6418-.03524-.85701-.13875-.78984-.37991-2.43685-1.97416-2.4249-2.89464.00531-.40939.96447-.66937.68095-1.27161-.05353-.1137-.90768-.98233-1.03881-1.07634-.12265-.08792-.27414-.13398-.42647-.11729Z"/></svg>