<?xml version="1.0" encoding="UTF-8"?><svg xmlns="http://www.w3.org/2000/svg" xmlns:xlink="http://www.w3.org/1999/xlink" viewBox="0 0 317.54141 280.99268"><defs><style>.cls-1{fill:url(#linear-gradient-2);}.cls-2{fill:#fff;}.cls-3{fill:url(#linear-gradient-4);}.cls-4{isolation:isolate;}.cls-5{fill:url(#linear-gradient-7);}.cls-6{fill:url(#linear-gradient-3);mix-blend-mode:multiply;}.cls-7{fill:url(#linear-gradient-6);}.cls-8{fill:url(#linear-gradient);}.cls-9{fill:url(#linear-gradient-5);mix-blend-mode:screen;}</style><linearGradient id="linear-gradient" x1="158.77833" y1="285.58113" x2="158.77833" y2="268.60255" gradientUnits="userSpaceOnUse"><stop offset="0" stop-color="#343434"/><stop offset=".29983" stop-color="#424242"/><stop offset=".34047" stop-color="#585858"/><stop offset=".46253" stop-color="#989797"/><stop offset=".56565" stop-color="#c6c5c5"/><stop offset=".64462" stop-color="#e3e2e2"/><stop offset=".68999" stop-color="#eeeded"/><stop offset=".83305" stop-color="#ecebeb"/><stop offset=".88456" stop-color="#e5e4e4"/><stop offset=".92129" stop-color="#d9d8d8"/><stop offset=".95098" stop-color="#c8c8c8"/><stop offset=".9761" stop-color="#b2b2b2"/><stop offset=".99826" stop-color="#989898"/><stop offset="1" stop-color="#969696"/></linearGradient><linearGradient id="linear-gradient-2" x1="158.76977" y1="221.74691" x2="158.76977" y2="286.26303" gradientUnits="userSpaceOnUse"><stop offset="0" stop-color="#343434"/><stop offset=".04631" stop-color="#707070"/><stop offset=".1084" stop-color="#bcbcbc"/><stop offset=".15282" stop-color="#ececec"/><stop offset=".17487" stop-color="#fff"/><stop offset=".21251" stop-color="#f9f9f9"/><stop offset=".25997" stop-color="#e9e9e9"/><stop offset=".31271" stop-color="#d0d0d0"/><stop offset=".36884" stop-color="#acacac"/><stop offset=".41938" stop-color="#868686"/><stop offset=".46237" stop-color="#7c7c7c"/><stop offset=".5374" stop-color="#717171"/><stop offset=".62336" stop-color="#6e6e6e"/><stop offset=".86516" stop-color="#eeeded"/><stop offset=".92738" stop-color="#ecebeb"/><stop offset=".94979" stop-color="#e5e4e4"/><stop offset=".96577" stop-color="#d9d8d8"/><stop offset=".97868" stop-color="#c8c8c8"/><stop offset=".9896" stop-color="#b2b2b2"/><stop offset=".99924" stop-color="#989898"/><stop offset="1" stop-color="#969696"/></linearGradient><linearGradient id="linear-gradient-3" x1="158.77038" y1="222.06051" x2="158.77038" y2="230.98556" gradientUnits="userSpaceOnUse"><stop offset="0" stop-color="#343434"/><stop offset=".14092" stop-color="#707070"/><stop offset=".32988" stop-color="#bcbcbc"/><stop offset=".46506" stop-color="#ececec"/><stop offset=".53217" stop-color="#fff"/><stop offset=".99904" stop-color="#fff"/></linearGradient><linearGradient id="linear-gradient-4" x1="158.7707" y1="-131.0581" x2="158.7707" y2="384.57775" gradientUnits="userSpaceOnUse"><stop offset="0" stop-color="#343434"/><stop offset=".05051" stop-color="#3d3d3d"/><stop offset=".13556" stop-color="#575757"/><stop offset=".24476" stop-color="#828282"/><stop offset=".37252" stop-color="#bdbdbd"/><stop offset=".5002" stop-color="#fff"/><stop offset=".57064" stop-color="#c8c8c8"/><stop offset=".65746" stop-color="#8c8c8c"/><stop offset=".74115" stop-color="#5a5a5a"/><stop offset=".81936" stop-color="#333"/><stop offset=".89087" stop-color="#171717"/><stop offset=".95337" stop-color="#060606"/><stop offset="1" stop-color="#000"/></linearGradient><linearGradient id="linear-gradient-5" x1="158.77037" y1="-162.91185" x2="158.77037" y2="348.02418" xlink:href="#linear-gradient-4"/><linearGradient id="linear-gradient-6" x1="2.78599" y1="88.82639" x2="314.75541" y2="88.82639" gradientUnits="userSpaceOnUse"><stop offset="0" stop-color="#343434"/><stop offset=".28174" stop-color="#2a2a2a"/><stop offset=".75435" stop-color="#101010"/><stop offset="1" stop-color="#000"/></linearGradient><linearGradient id="linear-gradient-7" x1="158.76973" y1="3.85539" x2="158.76973" y2="10.55857" xlink:href="#linear-gradient-3"/></defs><g class="cls-4"><g id="Camada_1"><path class="cls-8" d="M191.03293,275.48299l-.01408-.0636-32.24176.0318-32.24059-.0318-.0146.0636-68.77597.06751v3.85128s.26665,1.45849,2.3997,1.5909h197.26538c2.13371-.13241,2.3997-1.5909,2.3997-1.5909v-3.85128l-68.77779-.06751Z"/><path class="cls-1" d="M259.79351,275.5505c.19862-2.31512-4.18153-4.05238-4.18153-4.05238,0,0-40.21163-8.6851-51.36002-13.31769-11.14957-4.63155-11.54798-17.94793-11.54798-17.94793v-55.0643h-67.8672v55.0643s-.39841,13.31638-11.54681,17.94793c-11.1484,4.63259-51.3612,13.31769-51.3612,13.31769,0,0-4.38145,1.73725-4.18283,4.05238,0,0-.64277,1.49537,6.3916,1.49537h189.26568c7.03438,0,6.39031-1.49537,6.39031-1.49537Z"/><rect class="cls-6" x="124.83678" y="185.1682" width="67.8672" height="45.83835"/><path class="cls-3" d="M308.74563,0H8.79512C-.0852,0,.00003,8.69526.00003,8.69526v206.45575s-.08523,8.69396,8.79509,8.69396h299.95051c8.87967,0,8.79574-8.69396,8.79574-8.69396V8.69526s.08392-8.69526-8.79574-8.69526Z"/><path class="cls-9" d="M306.53164.70129H11.00911C2.25911.70129,2.34252,9.31757,2.34252,9.31757v204.57592s-.08341,8.6125,8.66659,8.6125h295.52253c8.74804,0,8.66659-8.6125,8.66659-8.6125V9.31757s.08145-8.61628-8.66659-8.61628Z"/><path class="cls-2" d="M314.75538,175.68772V10.50889s.08458-8.54382-8.63857-8.54382H11.42459C2.70144,1.96506,2.78602,10.50889,2.78602,10.50889v165.17883h311.96936Z"/><path class="cls-7" d="M314.75538,175.68772V10.50889s.08458-8.54382-8.63857-8.54382H11.42459C2.70144,1.96506,2.78602,10.50889,2.78602,10.50889v165.17883h311.96936Z"/><path class="cls-5" d="M159.72456,4.33362c0,.52691-.4276.95451-.95451.95451-.52756,0-.95516-.4276-.95516-.95451,0-.52821.4276-.95582.95516-.95582.52691,0,.95451.4276.95451.95582Z"/></g></g></svg>