<?xml version="1.0" encoding="UTF-8"?><svg id="Camada_1" xmlns="http://www.w3.org/2000/svg" viewBox="0 0 555.04999 484.10986"><defs><style>.cls-1{fill:#fff;}.cls-2{fill:#221d2e;}.cls-3{opacity:.1;}</style></defs><g class="cls-3"><path class="cls-1" d="M63.14493,408.82264c.5638-1.53389,1.16333-3.04969,1.81579-4.53064-.65246,1.48095-1.2692,2.99676-1.81579,4.53064ZM72.8406,480.64109c.82849,1.18097,1.70991,2.32708,2.66192,3.47276-.93436-1.14568-1.81579-2.30944-2.66192-3.47276ZM77.17714,384.58346c1.16333-1.39272,2.36194-2.7325,3.61393-4.03699-1.25198,1.30449-2.46825,2.64427-3.61393,4.03699Z"/><path class="cls-2" d="M496.64702,14.50821v352.19971c-6.55775,35.98003-34.74569,65.15484-72.08271,68.41628-33.17694,2.90853-66.24801-16.28871-79.46938-46.83902-25.9138-59.86629,26.01967-123.02888,89.58812-109.34959,8.00297,1.72756,15.05437,5.25326,22.3881,8.62057V125.30346l-240.02982,67.41134-.07015,247.25725c-2.00989,29.22818-20.837,56.79895-47.9847,68.11673-7.17492,2.97911-14.64938,4.16008-22.0184,6.346-6.32835-.52894-13.64401.74026-19.79676,0-.95158-.10587-1.92123-.24661-2.87324-.44071-.7932-.12352-1.60404-.2819-2.39723-.45836-.68775-.14117-1.35743-.29955-2.04518-.476-1.62168-.38778-3.24337-.86378-4.84784-1.41037-.52894-.17603-1.05788-.35248-1.58639-.54616-.52894-.1941-1.05788-.38821-1.58682-.58188-.52894-.1941-1.05745-.40542-1.56875-.61717-1.41037-.5638-2.80309-1.18097-4.17816-1.85065-1.39272-.67011-2.75015-1.35743-4.10715-2.09812-5.04194-2.7325-9.87213-6.01116-14.2969-9.64273-.63438-.54659-1.28685-1.0751-1.90401-1.62168-.72261-.61717-1.44523-1.25155-2.15062-1.92166h-.01765c-.70497-.66968-1.39272-1.32214-2.0624-1.99181-1.11039-1.07553-2.15062-2.1687-3.13792-3.27909-1.00494-1.11039-1.97417-2.23885-2.90853-3.36689v-.01765c-.93436-1.14568-1.81579-2.30944-2.66192-3.47276-1.2692-1.76285-2.43296-3.54334-3.47276-5.35913-7.56269-13.11593-10.96487-26.74272-10.96487-39.87586,0-.77555.01722-1.5511.03529-2.30901.01722-.54659.03486-1.07553.07015-1.62211.01765-.58145.05294-1.14568.10587-1.72756.29955-3.96641.89907-7.89753,1.78049-11.72278.17646-.74069.37013-1.48095.56423-2.22121.19367-.77555.42307-1.56918.65203-2.34473v-.01765c.22939-.77555.476-1.5511.74026-2.32708.24704-.7579.5113-1.53346.79363-2.29136.5638-1.53389,1.16333-3.04969,1.81579-4.53064.24661-.54659.49365-1.11082.74026-1.65697.5113-1.11082,1.05745-2.18592,1.60404-3.27909.28233-.52894.56423-1.0751.86378-1.60404,2.1687-3.94877,4.65416-7.7215,7.45725-11.2472.49322-.65203,1.02216-1.28685,1.5511-1.92123,1.16333-1.39272,2.36194-2.7325,3.61393-4.03699.61674-.65246,1.25155-1.28685,1.90358-1.92166,7.28079-7.12198,15.91858-12.90418,25.49073-16.81765,1.19905-.47557,2.39766-.93436,3.61393-1.357,1.62211-.58188,3.27909-1.09317,4.93606-1.55153.58188-.17646,1.14568-.31719,1.72756-.45836.86378-.22896,1.7452-.42307,2.62663-.61717.07058-.01722.15881-.03529.22939-.05251.58188-.12352,1.16333-.22939,1.76285-.35291.12309-.01765.24661-.03529.35248-.05251,1.21626-.22939,2.45017-.4235,3.70173-.58188.54659-.07058,1.11082-.14117,1.67505-.21175.31719-.03529.65203-.07058.96922-.0878,1.11082-.12352,2.23885-.1941,3.38496-.26469,3.26101-.17603,6.59304-.14117,9.95993.10587.03529,0,.05294.01765.08823,0,1.93931.15881,3.89583.37013,5.87043.66968h.05294c1.97417.31719,3.96641.68775,5.95822,1.12846h.03529c2.00946.47557,4.03699,1.00494,6.0641,1.62168,1.41037.42307,2.78544.93436,4.14287,1.49816.66968.28233,1.33978.58188,2.00946.88142,1.67505.75834,3.31438,1.56918,4.97136,2.34473.42307.1941.82849.38821,1.25155.58188,1.23391.59909,2.48546,1.14568,3.75509,1.65697V94.31243c0-.12309.01765-.26426.03529-.40542.01722-.15838.07058-.33484.12309-.5113.03529-.15838.08823-.29955.15881-.45793.07058-.21175.15881-.44071.2819-.67011.14117-.31719.31762-.67011.52894-1.02259.24661-.45836.54659-.93436.86378-1.42758,1.21626-1.83343,2.85602-3.82568,4.60123-5.53559.37013-.35248.74026-.70497,1.09274-1.02259,1.30449-1.16333,2.64427-2.11533,3.84332-2.66149.17603-.08866.33484-.15881.51086-.21175.49365-.1941.96965-.29955,1.41037-.31762l79.76893-22.58177L472.54901.31762c1.12803-.15881,2.20356-.26469,3.22572-.29998.35291,0,.68775-.01765,1.04024-.01765.5113,0,1.00494.01765,1.49859.05294.14074.01765.2819.01765.42307.01765.5113.05294,1.00451.10587,1.48052.17646.54659.07058,1.07553.17603,1.60447.29955.5113.12352,1.02259.26426,1.51581.42307.49365.15881.96965.33484,1.42801.52894h.01765c.476.19367.91672.42307,1.35743.65246.38778.19367.77555.42264,1.14568.65203l.15881.10587c.38778.24661.7579.49365,1.11039.77555.10587.07058.1941.14074.28233.21132.35248.26469.68732.56423,1.02259.86421.19367.15838.38778.33484.5638.52851.1941.17646.37013.37013.56423.54659.35248.38778.70497.7932,1.05745,1.19862,1.72799,2.08004,3.2438,4.58358,4.60123,7.47446Z"/><path d="M64.96071,404.29199c-.65246,1.48095-1.25198,2.99676-1.81579,4.53064.54659-1.53389,1.16333-3.04969,1.81579-4.53064Z"/><path d="M75.50252,484.11386c-.95201-1.14568-1.83343-2.29179-2.66192-3.47276.84613,1.16333,1.72756,2.32708,2.66192,3.47276Z"/><path d="M80.79107,380.54647c-1.25198,1.30449-2.4506,2.64427-3.61393,4.03699,1.14568-1.39272,2.36194-2.7325,3.61393-4.03699Z"/></g></svg>