<?xml version="1.0" encoding="UTF-8"?><svg id="Camada_1" xmlns="http://www.w3.org/2000/svg" xmlns:xlink="http://www.w3.org/1999/xlink" viewBox="0 0 177.6329 364.6018"><defs><style>.cls-1{fill:url(#linear-gradient-2);}.cls-2{fill:url(#linear-gradient-4);}.cls-3{fill:url(#linear-gradient-3);}.cls-4{fill:url(#linear-gradient-5);}.cls-5{fill:url(#linear-gradient-6);}.cls-6{fill:#3f3f3f;}.cls-7{fill:#010101;}.cls-8{fill:url(#linear-gradient);}</style><linearGradient id="linear-gradient" x1="169.2939" y1="182.39595" x2="175.773" y2="182.39595" gradientUnits="userSpaceOnUse"><stop offset="0" stop-color="#f0f0f0"/><stop offset=".00344" stop-color="#eee"/><stop offset=".1403" stop-color="#b5b5b5"/><stop offset=".27285" stop-color="#868686"/><stop offset=".398" stop-color="#616161"/><stop offset=".514" stop-color="#464646"/><stop offset=".61743" stop-color="#363636"/><stop offset=".69783" stop-color="#313131"/></linearGradient><linearGradient id="linear-gradient-2" x1="5.5748" y1="352.78665" x2="172.0627" y2="352.78665" gradientUnits="userSpaceOnUse"><stop offset="0" stop-color="#010101"/><stop offset=".09679" stop-color="#131313"/><stop offset=".25439" stop-color="#2b2b2b"/><stop offset=".40052" stop-color="#393939"/><stop offset=".52293" stop-color="#3f3f3f"/><stop offset=".63295" stop-color="#373737"/><stop offset=".79864" stop-color="#222"/><stop offset=".99859" stop-color="#010101"/><stop offset="1" stop-color="#010101"/></linearGradient><linearGradient id="linear-gradient-3" y1="11.92875" x2="175.787" y2="11.92875" xlink:href="#linear-gradient-2"/><linearGradient id="linear-gradient-4" x1="1.8552" y1="182.2847" x2="5.69919" y2="182.2847" gradientUnits="userSpaceOnUse"><stop offset="0" stop-color="#3f3f3f"/><stop offset=".04127" stop-color="#3c3c3c"/><stop offset=".67416" stop-color="#121213"/><stop offset="1" stop-color="#030304"/></linearGradient><linearGradient id="linear-gradient-5" x1="169.2846" y1="182.3306" x2="175.7823" y2="182.3306" gradientUnits="userSpaceOnUse"><stop offset="0" stop-color="#030304"/><stop offset=".32584" stop-color="#121213"/><stop offset=".95873" stop-color="#3c3c3c"/><stop offset="1" stop-color="#3f3f3f"/></linearGradient><linearGradient id="linear-gradient-6" x1="78.1492" y1="11.1413" x2="99.4837" y2="11.1413" gradientUnits="userSpaceOnUse"><stop offset="0" stop-color="#313131"/><stop offset=".12519" stop-color="#232323"/><stop offset=".30567" stop-color="#171717"/><stop offset=".47874" stop-color="#131313"/><stop offset=".77732" stop-color="#141414"/><stop offset=".88486" stop-color="#1b1b1b"/><stop offset=".96125" stop-color="#272727"/><stop offset="1" stop-color="#313131"/></linearGradient></defs><path class="cls-6" d="M156.7946.0278h-.0046c-.371-.0186-.7467-.0278-1.127-.0278H21.9746c-.3804,0-.756.0092-1.1271.0278h-.0139C9.2435.6261,0,10.2405,0,21.9699v320.662c0,11.5299,8.9234,21.0145,20.2307,21.905.1994.0139.4035.0278.6029.0371.3757.0185.756.0278,1.141.0278h133.6884c.3803,0,.756-.0093,1.1316-.0278.1995-.0093.4035-.0232.603-.0371,11.3072-.8905,20.2353-10.3751,20.2353-21.905V21.9699c0-11.734-9.2481-21.3485-20.8383-21.9421ZM175.7777,342.6319c0,10.4261-8.1396,19.2382-18.51,20.0545-.1855.0139-.3757.0278-.5658.0324-.3432.0186-.6911.0278-1.0389.0278H21.9746c-.3525,0-.705-.0092-1.0529-.0278-.1855-.0046-.3756-.0185-.5472-.0324-10.3843-.8163-18.5193-9.6284-18.5193-20.0545V21.9699C1.8552,11.2748,10.2081,2.4581,20.8847,1.883h.0092l.0464-.0047c.3386-.0139.6864-.0231,1.0343-.0231h133.6884c.3478,0,.6957.0092,1.0342.0231l.0325.0047c10.6858.5612,19.048,9.3825,19.048,20.0869v320.662Z"/><path class="cls-8" d="M175.773,22.0997v320.6621c0,1.985-.2968,3.9144-.8441,5.7371-.4405,1.4563-1.0389,2.8477-1.7856,4.151-.153.269-.3153.5333-.4776.7931-.2505.3895-.5102.7698-.7792,1.1409-.7699,1.0481-1.6372,2.0175-2.588,2.9033,1.7578-3.0703,2.7642-6.6322,2.7642-10.3982v-3.6965c.0093-.2179.0139-.4405.0139-.6632V22.0673c0-.2273-.0046-.4546-.0139-.6772v-3.6176c0-3.8124-1.0064-7.3928-2.7688-10.4678,3.9932,3.6825,6.4791,8.9605,6.4791,14.795Z"/><path class="cls-7" d="M156.6326,3.734l-.0851-.0054c-.2927-.0106-.5854-.016-.8835-.016H21.9736c-.3032,0-.6066.0054-.9046.016l-.0904.0107h-.0427C11.2723,4.2821,3.7105,12.2854,3.7105,21.9704v320.6592c0,9.4721,7.3808,17.465,16.8157,18.2099.1383.0107.2927.0213.4417.0266h.0531c.3141.016.6334.0267.9526.0267h133.6904c.3141,0,.6281-.0107.9366-.0267h.0586c.1544-.0053.3139-.0159.463-.0319,9.4188-.7396,16.7997-8.7378,16.7997-18.2046V21.9704c0-9.7168-7.5937-17.7256-17.2893-18.2364ZM169.0529,342.6349c0,3.0385-1.0378,5.8642-2.7779,8.1365-.0958.1224-.1915.2394-.2873.3565-.2927.3566-.6067.6971-.9312,1.0218-.2874.2819-.5908.5586-.9047.8195h-.0054c-.3937.3245-.8088.6279-1.2398.9099-.4311.282-.8727.5375-1.3357.7663h-.0053c-.2288.1171-.4629.2235-.7025.3245h-.0053c-.2341.1012-.4789.197-.7237.2821-.4896.1756-.9951.3247-1.5113.4417-.6173.1384-1.2506.2341-1.8997.2874-.0586.0053-.1172.0106-.1756.016h-.0852l-.0585.0053h-.0639c-.0585.0053-.1118.0053-.165.0107-.0585,0-.1118.0053-.1702.0053-.1171,0-.2341.0052-.3459.0052H21.9736c-.1117,0-.2288-.0052-.3458-.0052-.1171-.0053-.2342-.0107-.3513-.016h-.0478l-.0533-.0053h-.0851c-.0586-.0054-.1171-.0107-.181-.016-6.9125-.5428-12.3297-6.407-12.3297-13.3462V21.9704c0-7.0561,5.4811-12.899,12.5054-13.3621h.117l.181-.0159c.2181-.0107.4098-.0107.5906-.0107h133.6852c.1809,0,.3778,0,.5906.0107l.064.0053h.0638c.0426,0,.0904.0053.133.0106.133.0054.2607.016.3884.032.0586,0,.1171.0053.1757.016.1171.0105.2341.0212.3512.0425.1383.0106.2767.0319.4151.0586.0053,0,.0159,0,.0213.0053.2021.0266.3991.0638.5959.1064.0373.0106.0746.0213.1117.0266.165.032.3247.0745.4844.1171.2341.0638.4682.133.7023.2075.1863.0532.3726.1171.5534.1863.197.0691.394.149.5855.2341.3884.1596.7609.3406,1.1282.5428.3351.1756.6597.3724.9737.58.0692.048.1384.0958.2129.1437.1277.0905.2554.1809.3832.2714.1703.1171.3298.2448.4895.3778.3193.2608.6279.5322.9206.8196.1543.1383.298.2873.4311.4415.1383.1491.2767.3034.4097.4577.5375.6279,1.0164,1.2984,1.4261,2.0169.2076.3565.3938.729.5695,1.1069.1703.3778.3298.7609.4682,1.16.0692.1969.133.3938.1916.596.1277.4364.2394.8781.3193,1.3303.0372.181.0692.3565.0905.5375.0957.6333.1437,1.2879.1437,1.9476v320.6645Z"/><path class="cls-7" d="M44.329,14.7546c-.048-.0905-.0851-.181-.1277-.2714-.0107-.0373-.0266-.0692-.0372-.1011.0531.1278.1064.2501.1649.3725Z"/><path class="cls-7" d="M133.4683,14.3821c-.0106.0319-.0265.0638-.0371.1011-.0426.0904-.0799.1809-.1278.2714.0585-.1224.1117-.2447.1649-.3725Z"/><path class="cls-7" d="M136.3686,8.5817c-1.1015.0586-1.9955.91-2.1074,2.0009,0,.101-.0053.1969-.0106.2927-.016.4044-.0585.8035-.1277,1.1973-.0213.1384-.0426.2714-.0745.4044v.0054c-.0319.165-.0692.3246-.1117.4842-.032.1437-.0746.2873-.1171.431-.0106.032-.0213.064-.0319.1011-.0107.032-.0213.0693-.0373.1065-.0053.0319-.016.0585-.0266.0851-.0159.048-.032.0958-.0478.1437-.0213.0532-.0373.1064-.0586.1597-.0425.133-.0958.2606-.1491.3884-.0532.1278-.1064.2501-.1649.3725-.0052.0213-.0107.0373-.0214.0532-.0052.0106-.0052.0159-.0105.0266-.0479.1064-.1012.2076-.1543.3087-.0426.0904-.0906.181-.1384.2661-.0106.0266-.0266.0531-.0479.085-.0212.048-.048.0905-.0745.1331-.0319.0639-.0692.1224-.1065.181-.0105.0159-.0158.0319-.0265.0479-.0107.0212-.0266.0425-.0426.0691-.0266.0426-.0478.0798-.0745.1171-.0266.0479-.0532.0905-.0852.133-.0212.0373-.0478.0744-.0744.1117-.0107.0213-.0267.0373-.0426.0586-.032.0478-.0585.0905-.0905.1331-.0213.0319-.0426.0638-.0691.0904-.0267.0479-.0586.0904-.0959.133-.0053.0107-.0159.0213-.0213.032-.0053.0106-.0158.0213-.0265.0266-.0319.0478-.0692.0958-.1065.1437-.0107.0212-.0265.0372-.0426.0531-.0372.0533-.0798.1066-.1224.1544h-.0052c-.0533.0639-.1065.1277-.1597.1863-.0479.0691-.1064.133-.165.1915,0,.0053-.0053.0106-.0053.0106h-.0053c-.032.0427-.0693.0798-.1064.1171-.0373.0426-.0798.0852-.1224.1277-.0373.0426-.0746.0799-.1171.1172-.0692.0744-.1383.1435-.2182.2128-.0531.0585-.1064.1064-.1703.1597-.0372.0318-.0692.0638-.1063.0957-.0852.0745-.1757.149-.2609.2181-.0798.0693-.165.1331-.2501.2023-.0531.0426-.1011.0798-.1542.1171-.0586.0479-.1172.0904-.181.133,0,.0053-.0053.0053-.0053.0053-.0586.0427-.117.0851-.181.1224-.0266.0267-.0531.0426-.0797.0585-.1012.0639-.2023.133-.3034.1916-.0798.0586-.1597.1064-.2394.149-.1012.064-.2023.1224-.3087.1704-.0373.0266-.0798.0478-.1171.0691-.0106.0053-.016.0106-.0266.0106-.0744.0426-.149.0799-.2288.1171-.0639.0373-.133.0692-.2076.1011-.0585.0319-.1224.0586-.1862.0852-.0319.016-.0638.0265-.101.0426-.0267.0159-.0533.0265-.0853.0372h-.0053c-.165.0692-.3245.133-.4895.1916-.1544.0531-.3034.1064-.4576.1542-.1703.0533-.3353.1012-.5056.1437-.3406.0852-.6917.1597-1.043.2129-.1437.0213-.2927.0425-.4417.0586-.0319.0052-.0585.0052-.0905.0105-.1277.0107-.2554.0213-.3778.0267-.149.0106-.2927.016-.4364.0213-.0479,0-.0957,0-.1383.0053H53.8864c-.0426-.0053-.0906-.0053-.1385-.0053-.1437-.0053-.2874-.0107-.4363-.0213-.1224-.0054-.2502-.016-.3778-.0267-.0319-.0053-.0586-.0053-.0905-.0105-.1491-.0161-.2979-.0373-.4416-.0586-.3513-.0532-.7025-.1277-1.043-.2129-.1703-.0425-.3353-.0904-.5057-.1437-.1543-.0478-.3032-.1011-.4575-.1542-.165-.0586-.3247-.1224-.4897-.1916h-.0053c-.032-.0107-.0585-.0213-.0851-.0372-.0373-.0161-.0693-.0266-.1011-.0426-.0639-.0266-.1277-.0533-.1863-.0852-.0744-.0319-.1437-.0638-.2075-.1011-.0799-.0372-.1543-.0745-.2289-.1171-.0106,0-.0158-.0053-.0265-.0106-.0373-.0213-.0799-.0425-.1172-.0691-.1064-.048-.2074-.1064-.3085-.1704-.0799-.0426-.1597-.0904-.2395-.149-.101-.0586-.2022-.1277-.3033-.1916-.0267-.0159-.0533-.0318-.0799-.0585-.0638-.0373-.1224-.0797-.1809-.1224,0,0-.0053,0-.0053-.0053-.0638-.0426-.1224-.0851-.181-.133-.0531-.0373-.101-.0745-.1543-.1171-.0851-.0692-.1702-.133-.2501-.2023-.0851-.0691-.1755-.1436-.2607-.2181-.0372-.0319-.0692-.0639-.1065-.0957-.0637-.0533-.117-.1012-.1703-.1597-.0797-.0693-.1489-.1384-.2181-.2128-.0426-.0373-.0799-.0746-.1171-.1172-.0426-.0425-.0852-.0851-.1223-.1277-.0373-.0373-.0746-.0744-.1066-.1171h-.0052c-.0319-.0319-.0586-.0638-.0852-.101-.0851-.0958-.165-.1917-.2448-.2874h-.0053c-.0425-.0478-.0851-.1011-.1224-.1544-.016-.0159-.0319-.0319-.0425-.0531-.0372-.0479-.0745-.0959-.1065-.1437-.0106-.0053-.0213-.016-.0265-.0266-.0055-.0107-.0161-.0213-.0213-.032-.0373-.0426-.0692-.0851-.0959-.133-.0265-.0266-.0478-.0585-.0691-.0904-.032-.0426-.0586-.0853-.0904-.1331-.0161-.016-.0267-.0373-.0426-.0586-.0267-.0373-.0533-.0744-.0746-.1117-.032-.0425-.0585-.0851-.0851-.133-.0266-.0373-.0479-.0745-.0744-.1171-.0107-.0213-.0267-.0426-.0427-.0691-.0106-.016-.0159-.032-.0266-.0479-.0373-.0586-.0744-.1171-.1064-.181-.0266-.0426-.0533-.0851-.0746-.1331-.0158-.0265-.0318-.0584-.0478-.085-.0479-.0851-.0959-.1757-.1383-.2661-.0533-.1011-.1064-.2023-.1544-.3087-.0053-.0107-.0053-.016-.0106-.0266-.0107-.0159-.016-.0319-.0213-.0532-.0585-.1224-.1118-.2447-.1649-.3725-.0533-.1278-.1065-.2554-.1492-.3884-.0211-.0533-.0371-.1065-.0584-.1597-.016-.0479-.032-.0957-.0478-.1437-.0107-.0266-.0213-.0532-.0268-.0851-.0158-.0372-.0265-.0692-.0371-.1065-.0107-.032-.0214-.0691-.032-.1011-.0426-.1437-.0851-.2873-.1171-.431-.0426-.1596-.0799-.3192-.1117-.4842v-.0054c-.0319-.133-.0533-.266-.0744-.4044-.0693-.3938-.1119-.7929-.1279-1.1973-.0052-.0958-.0106-.1917-.0106-.2927-.1118-1.0909-1.0057-1.9423-2.1073-2.0009h95.1048Z"/><path class="cls-7" d="M53.3116,20.9594c.1489.0106.2926.016.4363.0213-.0798,0-.1649,0-.2448-.0053-.0851,0-.1702-.0054-.2554-.016-.0958-.0054-.1863-.016-.2821-.0213-.0105,0-.0211,0-.0318-.0054.1276.0107.2554.0213.3778.0267Z"/><path class="cls-7" d="M124.6986,20.9327c-.0106.0054-.0213.0054-.0319.0054-.0958.0053-.1862.0159-.2819.0213-.0853.0106-.1704.016-.2555.016-.0799.0053-.165.0053-.2449.0053.1437-.0053.2874-.0107.4364-.0213.1224-.0054.2501-.016.3778-.0267Z"/><path class="cls-7" d="M44.0149,13.9937c-.0051-.0055-.0051-.0107-.0105-.016-.016-.0479-.0319-.0959-.0479-.1437.0213.0532.0373.1064.0584.1597Z"/><path class="cls-7" d="M44.329,14.7546c-.048-.0905-.0851-.181-.1277-.2714-.0107-.0373-.0266-.0692-.0372-.1011.0531.1278.1064.2501.1649.3725Z"/><path class="cls-7" d="M45.6381,16.9045c-.0479-.0533-.0905-.1119-.133-.1703.0052.0106.0159.0213.0265.0266.032.0478.0693.0958.1065.1437Z"/><path class="cls-7" d="M46.0531,17.3994c-.0585-.0586-.1117-.1171-.1595-.181-.032-.0373-.064-.0691-.0906-.1064h.0053c.0798.0957.1597.1916.2448.2874Z"/><path class="cls-7" d="M46.2501,17.6175c-.0427-.0373-.0798-.0798-.1118-.1171h.0052c.032.0427.0693.0798.1066.1171Z"/><path class="cls-7" d="M47.4952,18.751c-.0851-.0586-.1702-.1277-.2501-.1969-.0478-.0372-.1011-.0798-.149-.1277-.0425-.0319-.0745-.0638-.1117-.0958.0852.0745.1756.149.2607.2181.0799.0693.165.1331.2501.2023Z"/><path class="cls-7" d="M47.6495,18.8681c.0586.0479.1172.0904.181.133-.0213-.0106-.0373-.0213-.0533-.0319-.0424-.032-.0851-.0638-.1277-.1011Z"/><path class="cls-7" d="M48.3999,19.3789c-.0639-.0319-.1223-.0692-.1809-.1064-.0054,0-.0054-.0053-.0107-.0053-.0373-.0266-.0744-.0533-.1117-.0799.1011.0639.2023.133.3033.1916Z"/><path class="cls-7" d="M50.3955,20.3528c-.1384-.048-.2714-.0958-.4098-.1544-.0266-.0106-.0533-.0213-.0799-.0372.165.0692.3247.133.4897.1916Z"/><path class="cls-7" d="M50.853,20.507c.1704.0533.3354.1012.5057.1437-.1119-.0265-.2289-.0585-.3407-.0904-.0584-.016-.1117-.032-.165-.0478-.0744-.0214-.149-.048-.2234-.0746-.0798-.0267-.1597-.0533-.2341-.0851.1543.0531.3032.1064.4575.1542Z"/><path class="cls-7" d="M52.4017,20.8636c.1437.0213.2925.0425.4416.0586-.1331-.0106-.2661-.0266-.3938-.0479-.016,0-.032-.0054-.0478-.0054-.0586-.0106-.1172-.0213-.1757-.0319-.117-.016-.2341-.0373-.3513-.0639-.1489-.0319-.2926-.0638-.4416-.1011-.0213-.0053-.0479-.0107-.0744-.0213.3405.0852.6917.1597,1.043.2129Z"/><path class="cls-7" d="M53.3116,20.9594h-.0639c-.032,0-.0691,0-.1011-.0054-.0584-.0053-.1224-.0106-.181-.0159-.0105,0-.0211,0-.0318-.0054.1276.0107.2554.0213.3778.0267Z"/><path class="cls-7" d="M123.7461,20.986c-.0426.0053-.0904.0053-.1384.0053H54.0246c-.0478,0-.0957,0-.1382-.0053h69.8597Z"/><path class="cls-7" d="M124.3208,20.9594c.1224-.0054.2501-.016.3778-.0267-.0106.0054-.0213.0054-.0319.0054-.0585.0053-.1224.0106-.1809.0159-.0319.0054-.0692.0054-.101.0054h-.064Z"/><path class="cls-7" d="M125.2308,20.8636c.3513-.0532.7024-.1277,1.043-.2129-.0265.0106-.0532.016-.0745.0213-.149.0373-.2927.0692-.4417.1011-.1171.0266-.2341.0479-.3512.0639-.0586.0106-.117.0213-.1756.0319-.016,0-.032.0054-.0478.0054-.1279.0213-.2609.0373-.3939.0479.149-.0161.298-.0373.4417-.0586Z"/><path class="cls-7" d="M127.237,20.3528c-.0746.0318-.1544.0584-.2341.0851-.0746.0266-.1491.0532-.2235.0746-.0533.0158-.1065.0318-.165.0478-.1117.0319-.2289.0639-.3406.0904.1703-.0425.3353-.0904.5056-.1437.1542-.0478.3032-.1011.4576-.1542Z"/><path class="cls-7" d="M127.237,20.3528c.165-.0586.3245-.1224.4895-.1916-.0265.0159-.0531.0266-.0798.0372-.1383.0586-.2714.1064-.4097.1544Z"/><path class="cls-7" d="M129.2325,19.3789c.1011-.0586.2022-.1277.3034-.1916-.0373.0266-.0746.0533-.1119.0799-.0052,0-.0052.0053-.0105.0053-.0586.0372-.1171.0745-.181.1064Z"/><path class="cls-7" d="M129.9829,18.8681c-.0426.0373-.0852.0691-.1278.1011-.0159.0106-.032.0213-.0532.0319.0638-.0426.1224-.0851.181-.133Z"/><path class="cls-7" d="M130.6481,18.3306c-.0373.032-.0693.0639-.1119.0958-.0479.0479-.101.0905-.149.1277-.0798.0692-.165.1383-.2501.1969.0851-.0692.1703-.133.2501-.2023.0852-.0691.1757-.1436.2609-.2181Z"/><path class="cls-7" d="M131.4941,17.5004c-.0319.0373-.0691.0798-.1117.1171.0371-.0373.0744-.0744.1064-.1171h.0053Z"/><path class="cls-7" d="M131.8293,17.112c-.0265.0373-.0585.0691-.0904.1064-.0213.0266-.0426.0533-.0745.0799.0532-.0586.1064-.1224.1597-.1863h.0052Z"/><path class="cls-7" d="M132.1273,16.7342c-.0426.0584-.0851.117-.133.1703.0373-.0479.0746-.0959.1065-.1437.0107-.0053.0212-.016.0265-.0266Z"/><path class="cls-7" d="M133.4683,14.3821c-.0106.0319-.0265.0638-.0371.1011-.0426.0904-.0799.1809-.1278.2714.0585-.1224.1117-.2447.1649-.3725Z"/><path class="cls-7" d="M133.676,13.834c-.016.0478-.032.0958-.048.1437-.0053.0053-.0053.0105-.0106.016.0213-.0533.0373-.1065.0586-.1597Z"/><path class="cls-1" d="M172.0627,343.3925v3.6965c0,3.766-1.0064,7.3279-2.7642,10.3982-3.2141,2.9776-7.3975,4.9301-12.0215,5.2965-.1855.014-.3757.0279-.5658.0325-.3432.0186-.6911.0278-1.0389.0278H21.9838c-.3524,0-.7049-.0092-1.0528-.0278-.1855-.0046-.3757-.0185-.5473-.0325-.255-.0185-.5101-.0463-.7652-.0788-4.3226-.5055-8.2231-2.4025-11.2563-5.213-1.7716-3.0796-2.7874-6.6555-2.7874-10.4354v-4.3272c0,4.9394,2.2401,9.4382,5.7743,12.4621,2.5509,2.1892,5.7788,3.613,9.3268,3.8913.116.0093.2319.0232.3479.0232l.051.0046h.051c.2829.0139.5705.0232.858.0232h133.6885c.2782,0,.5611-.0093.8394-.0232h.0557l.051-.0046c.1299,0,.2551-.0139.3803-.0232,8.2277-.6447,14.7301-7.4764,15.064-15.6902Z"/><path class="cls-3" d="M175.773,22.0023l.014-.0324c0-10.7044-8.3622-19.5257-19.048-20.0869l-.0325-.0046c-.3385-.014-.6864-.0232-1.0342-.0232H21.9838c-.3478,0-.6957.0092-1.0342.0232l-.0464.0046h-.0093c-.436.0232-.8626.0603-1.2893.1113-4.3365.5102-8.2324,2.3885-11.2609,5.1806-1.7624,3.0749-2.7689,6.6554-2.7689,10.4678v4.3272c0-4.9812,2.2262-9.466,5.7604-12.4853,2.625-2.2401,5.969-3.6733,9.6654-3.8913h.0881l.1206-.0139c.2829-.0093.538-.0139.7745-.0139h133.6885c.2133,0,.4452.0046.7003.0139h.0046l.167.0093c8.4828.4452,15.1753,7.2815,15.5185,15.704v-3.6175c0-3.8124-1.0064-7.3929-2.7688-10.4679,3.9932,3.6826,6.4791,8.9605,6.4791,14.795Z"/><path class="cls-2" d="M8.3529,357.3945c-3.9978-3.7011-6.4977-8.9837-6.4977-14.7626V21.9699c0-5.8346,2.4859-11.1125,6.4792-14.795-1.7624,3.0749-2.7689,6.6554-2.7689,10.4678v329.3164c0,3.7799,1.0158,7.3558,2.7874,10.4354Z"/><path class="cls-4" d="M175.7823,22.0158v320.6621c0,1.985-.2968,3.9144-.8441,5.7371-.4406,1.4563-1.0389,2.8477-1.7856,4.1509-.153.269-.3153.5334-.4777.7931-.2411.3896-.5009.7699-.7792,1.1409-.7698,1.0621-1.6464,2.05-2.6111,2.9405.0093-.0139.0139-.0232.0232-.0371,1.7578-3.0703,2.7642-6.6322,2.7642-10.3982V17.6886c0-3.8124-1.0064-7.3928-2.7688-10.4678,3.9932,3.6825,6.4791,8.9605,6.4791,14.795Z"/><path class="cls-5" d="M98.3629,12.2621h-19.0929c-.619,0-1.1208-.5018-1.1208-1.1208h0c0-.619.5018-1.1208,1.1208-1.1208h19.0929c.619,0,1.1208.5018,1.1208,1.1208h0c0,.619-.5018,1.1208-1.1208,1.1208Z"/></svg>