<?xml version="1.0" encoding="UTF-8"?><svg id="Camada_1" xmlns="http://www.w3.org/2000/svg" xmlns:xlink="http://www.w3.org/1999/xlink" viewBox="0 0 397.33842 314.51598"><defs><style>.cls-1{fill:url(#linear-gradient-2);}.cls-2{fill:#dfdfdf;}.cls-3{fill:none;}.cls-4{fill:url(#linear-gradient-4);}.cls-5{fill:url(#linear-gradient-3);}.cls-6{fill:url(#linear-gradient-5);}.cls-7{fill:url(#linear-gradient-8);}.cls-8{fill:url(#linear-gradient-7);}.cls-9{fill:url(#linear-gradient-9);}.cls-10{fill:url(#linear-gradient-6);}.cls-11{fill:#010101;}.cls-12{fill:url(#linear-gradient);}</style><linearGradient id="linear-gradient" x1="-631.37583" y1="-703.17852" x2="-624.58086" y2="-709.97348" gradientTransform="translate(712.20688 712.20688)" gradientUnits="userSpaceOnUse"><stop offset="0" stop-color="#808181"/><stop offset=".28472" stop-color="#bababa"/><stop offset=".36646" stop-color="#cecece"/><stop offset=".49754" stop-color="#e9e9e9"/><stop offset=".61435" stop-color="#f9f9f9"/><stop offset=".70428" stop-color="#fff"/><stop offset=".82754" stop-color="#fcfcfb"/><stop offset=".92357" stop-color="#f2f2f2"/><stop offset="1" stop-color="#e5e5e4"/></linearGradient><linearGradient id="linear-gradient-2" x1="-517.35987" y1="-700.94429" x2="-517.35987" y2="-712.20688" xlink:href="#linear-gradient"/><linearGradient id="linear-gradient-3" x1="-401.55219" y1="-703.10537" x2="-401.55219" y2="-710.04567" xlink:href="#linear-gradient"/><linearGradient id="linear-gradient-4" x1="-407.67697" y1="-703.01701" x2="-407.67697" y2="-710.13409" gradientTransform="translate(712.20688 712.20688)" gradientUnits="userSpaceOnUse"><stop offset="0" stop-color="#808181"/><stop offset=".02945" stop-color="#898989"/><stop offset=".1177" stop-color="#9e9f9f"/><stop offset=".21503" stop-color="#aeaeae"/><stop offset=".32739" stop-color="#b7b7b7"/><stop offset=".48944" stop-color="#bababa"/><stop offset=".66838" stop-color="#b7b7b7"/><stop offset=".79832" stop-color="#adadad"/><stop offset=".91241" stop-color="#9d9d9e"/><stop offset="1" stop-color="#8c8c8d"/></linearGradient><linearGradient id="linear-gradient-5" x1="-674.82289" y1="-710.68069" x2="-352.25242" y2="-388.11022" gradientTransform="translate(712.20688 712.20688)" gradientUnits="userSpaceOnUse"><stop offset="0" stop-color="#f1f2f4"/><stop offset=".46399" stop-color="#ededee"/><stop offset="1" stop-color="#e2e1e1"/></linearGradient><linearGradient id="linear-gradient-6" x1="-712.05099" y1="-549.37986" x2="-696.00917" y2="-549.37986" gradientTransform="translate(712.20688 712.20688)" gradientUnits="userSpaceOnUse"><stop offset="0" stop-color="#f0f0f0"/><stop offset=".05663" stop-color="#dddcdc"/><stop offset=".14308" stop-color="#c7c6c6"/><stop offset=".2447" stop-color="#b6b5b5"/><stop offset=".36948" stop-color="#aaa9a9"/><stop offset=".54246" stop-color="#a3a2a2"/><stop offset="1" stop-color="#a2a1a1"/></linearGradient><linearGradient id="linear-gradient-7" x1="-330.61425" y1="-549.39805" x2="-315.02429" y2="-549.39805" gradientTransform="translate(712.20688 712.20688)" gradientUnits="userSpaceOnUse"><stop offset="0" stop-color="#a2a1a1"/><stop offset=".45754" stop-color="#a3a2a2"/><stop offset=".63052" stop-color="#aaa9a9"/><stop offset=".7553" stop-color="#b6b5b5"/><stop offset=".85692" stop-color="#c7c6c6"/><stop offset=".94337" stop-color="#dddcdc"/><stop offset="1" stop-color="#f0f0f0"/></linearGradient><linearGradient id="linear-gradient-8" x1="-710.49253" y1="-692.53101" x2="-316.58276" y2="-692.53101" gradientTransform="translate(712.20688 712.20688)" gradientUnits="userSpaceOnUse"><stop offset="0" stop-color="#cac9c9"/><stop offset=".47778" stop-color="#f0f0f0"/><stop offset=".63825" stop-color="#ebebeb"/><stop offset=".82392" stop-color="#ddd"/><stop offset="1" stop-color="#cac9c9"/></linearGradient><linearGradient id="linear-gradient-9" y1="-406.25988" y2="-406.25988" xlink:href="#linear-gradient-8"/></defs><path class="cls-12" d="M85.39268.00007v11.26259c-3.10658,0-5.62609-2.52472-5.62609-5.6313C79.76659,2.51964,82.28611.00007,85.39268.00007Z"/><polygon class="cls-1" points="293.7089 0 304.30134 2.07279 304.30134 9.18987 293.7089 11.26259 85.39268 11.26259 85.39268 0 293.7089 0"/><path class="cls-5" d="M315.41325,7.01318l-10.65477,2.08834V2.16121l10.65477,2.08827c1.51689.2961,1.51689,2.46759,0,2.7637Z"/><polygon class="cls-4" points="304.75848 2.16121 304.75848 9.10152 304.30134 9.18987 304.30134 2.07279 304.75848 2.16121"/><path class="cls-3" d="M397.09944,26.43706c-.06754-.69611-.17658-1.37147-.32727-2.03642-.02596-.13507-.05713-.26494-.0935-.39487-.02596-.11425-.05713-.23371-.08829-.34282-.32206-1.18441-.77406-2.31691-1.3351-3.38186-.06233-.11946-.12466-.23377-.18699-.34809-.2598-.46755-.54029-.91947-.84159-1.36106-.07274-.0987-.14548-.20261-.21822-.30651-.13501-.18699-.27528-.37405-.42076-.55577-.37405-.47796-.77406-.92995-1.20003-1.36633-.0935-.0987-.18699-.1922-.28576-.28569-.04671-.05199-.0987-.09877-.14542-.14028-.04678-.04678-.09356-.09356-.14028-.12987-.14548-.14548-.2961-.28049-.45193-.41035-.14028-.12473-.2909-.24945-.44159-.36891-.06233-.05192-.12466-.10391-.18706-.15062-.0363-.03117-.07268-.0624-.11425-.08836-.16103-.12473-.32206-.24939-.4883-.36884-.01562-.00521-.02596-.01562-.04158-.03117-.1974-.14028-.40521-.27535-.60782-.41042-.02075-.01028-.04158-.02589-.06233-.04151-.20261-.12987-.40521-.25453-.61296-.36884-.22343-.13507-.4572-.25973-.69097-.38439-.03637-.02082-.07274-.03637-.10911-.05719-.1974-.10391-.39994-.20254-.60255-.2909-.23898-.11432-.48316-.21822-.72734-.31686-.24412-.10397-.49351-.19747-.74803-.28576-.7533-.27014-1.5325-.48309-2.33252-.63378-.27014-.05719-.54029-.10384-.81043-.14028-.23898-.03637-.47268-.06754-.71166-.08822-.03637,0-.07795-.00521-.11432-.01041-.11946-.01562-.24418-.02603-.36884-.02603-.15069-.01562-.30131-.02596-.45193-.03117-.25973-.01562-.51953-.02082-.78447-.02082H16.98212c-.26494,0-.52467.00521-.7844.02082-.15069.00521-.30131.01555-.45193.03117-.12473,0-.24939.01041-.36884.02603-.03637.00521-.07795.01041-.11425.01041-.23904.02069-.47282.05185-.71173.08822-.27014.03644-.54029.08309-.81043.14028-.80002.15069-1.57928.36364-2.33252.63378-.25453.08829-.50392.18179-.74803.28576-.24418.09864-.48837.20254-.72728.31686-.20267.08836-.40528.18699-.60268.2909-.03637.02082-.07274.03637-.10905.05719-.23377.12466-.46755.24932-.69097.38439-.20775.11432-.41035.23898-.61296.36884-.02082.01562-.04158.03123-.06233.04151-.20261.13507-.41042.27014-.60782.41042-.01562.01555-.02603.02596-.04158.03117-.16617.11946-.32727.24412-.4883.36884-.04158.02596-.07788.05719-.11432.08836-.06233.04671-.12466.0987-.18699.15062-.15062.11946-.30131.24418-.44159.36891-.15583.12987-.30651.26487-.45193.41035-.04671.0363-.09356.08309-.14028.12987-.04671.04151-.0987.08829-.14548.14028-.0987.0935-.1922.18699-.28569.28569-.42597.43638-.82604.88838-1.20003,1.36633-.14548.18172-.28576.36878-.42083.55577-.07268.10391-.14542.20781-.21816.30651-.30131.44159-.5818.89351-.84153,1.36106-.06233.11432-.12473.22863-.18706.34809-.56104,1.06496-1.01297,2.19745-1.3351,3.38186-.03117.10911-.06233.22857-.08829.34282-.03637.12993-.0676.2598-.0935.39487-.15062.66495-.2598,1.3403-.32733,2.03642-.01555.12987-.02596.26494-.03637.3948-.03117.41556-.04665.83639-.04665,1.25722v269.44471c0,.42083.01548.84166.04665,1.25715.01041.11946.02082.23384.03117.35336.06754.70639.17671,1.40257.33254,2.08313.02589.12987.05713.25973.0935.3896.02082.0935.04671.1922.07268.29083.32213,1.2053.77926,2.35334,1.35072,3.43391.05713.11946.11952.23377.18706.34802.12987.23904.26494.46761.41035.69618.0624.10384.12987.21295.20267.31679.06747.10918.14021.21829.21809.32733.20261.30137.42083.59748.6494.8831.0987.12987.1974.24939.30137.36884.15056.19226.31679.37412.48303.56111.0987.10905.19747.21308.30137.31679.17138.18706.35843.36898.54543.54562.00521.00507.01041.01548.02075.02069.37405.35857.76371.69618,1.17407,1.01831.01034.00507.01555.01028.02596.02069.60782.48309,1.25201.91947,1.92731,1.30914.22343.13507.4572.26494.69097.38439.0363.01562.07268.03637.10905.05719.1974.10391.40001.20254.60268.29083.23891.11438.48309.22343.72728.31692.24932.10391.49871.19747.74803.28576.24412.08829.49351.17144.74283.24412.01041,0,.02603.00521.04158.01041.24939.07788.50392.14548.75844.20775.2598.0676.52474.12466.78967.17151.27014.05719.54029.10384.81043.14028.23891.03637.47268.0676.71173.08822.0363,0,.07788.00521.11425.01041.3896.03644.7792.0624,1.17407.07268.14542.00534.28569.00534.43111.00534h363.37412c.14548,0,.28576,0,.43117-.00534.3948-.01028.78447-.03624,1.17407-.07268.03637-.00521.07795-.01041.11432-.01041.23898-.02062.47268-.05185.71166-.08822.27014-.03644.54029-.08309.81043-.14028.26494-.04685.52988-.10391.78961-.17151.25459-.06226.50912-.12987.75844-.20775.01562-.00521.03117-.01041.04158-.01041.24932-.07268.49871-.15583.74289-.24412.24939-.08829.49871-.18185.74803-.28576.24418-.0935.48837-.20254.72734-.31692.20261-.08829.40515-.18693.60255-.29083.03637-.02082.07274-.04158.10911-.05719.23377-.11946.46755-.24932.69097-.38439.67529-.38966,1.31948-.82604,1.92724-1.30914.01041-.01041.01562-.01562.02603-.02069.41042-.32213.80002-.65974,1.174-1.01831.01041-.00521.01562-.01562.02082-.02069.18699-.17665.37405-.35857.54549-.54562.10391-.10371.20261-.20775.30131-.31679.16617-.18699.33241-.36884.48309-.56111.10391-.11946.20261-.23898.30131-.36884.22857-.28563.44679-.58173.64933-.8831.07795-.10905.15069-.21816.21822-.32733.07274-.10384.14028-.21295.20261-.31679.14542-.22857.28049-.45713.41042-.69618.06754-.11425.12987-.22857.18699-.34802.57145-1.08057,1.02859-2.22861,1.35065-3.43391.02603-.09864.05199-.19734.07274-.29083.03637-.12987.06754-.25973.0935-.3896.15583-.68056.26494-1.37674.33247-2.08313.01041-.11952.02082-.2339.03117-.35336.03117-.41549.04678-.83632.04678-1.25715V28.08908c0-.42083-.01562-.84166-.04678-1.25722-.01034-.12987-.02075-.26494-.03637-.3948ZM395.62413,297.5338c0,8.42095-6.84687,15.26796-15.26783,15.26796H16.98212c-8.42095,0-15.26776-6.84701-15.26776-15.26796V28.08908c0-8.42102,6.84681-15.26796,15.26776-15.26796h363.37418c8.42095,0,15.26783,6.84694,15.26783,15.26796v269.44471Z"/><path class="cls-2" d="M380.35623,11.10683H16.98212C7.61566,11.10683,0,18.72783,0,28.08908v269.44471c0,9.36125,7.61566,16.98218,16.98212,16.98218h363.37412c9.36125,0,16.98218-7.62093,16.98218-16.98218V28.08908c0-9.36125-7.62093-16.98225-16.98218-16.98225ZM397.18259,297.5338c0,.42083-.01562.84166-.04678,1.25715-.01034.11946-.02075.23384-.03117.35336-.06754.70639-.17665,1.40257-.33247,2.08313-.02596.12987-.05713.25973-.0935.3896-.02075.0935-.04671.1922-.07274.29083-.32206,1.2053-.7792,2.35334-1.35065,3.43391-.05713.11946-.11946.23377-.18699.34802-.12993.23904-.265.46761-.41042.69618-.06233.10384-.12987.21295-.20261.31679-.06754.10918-.14028.21829-.21822.32733-.20254.30137-.42076.59748-.64933.8831-.0987.12987-.1974.24939-.30131.36884-.15069.19226-.31692.37412-.48309.56111-.0987.10905-.1974.21308-.30131.31679-.17144.18706-.3585.36898-.54549.54562-.00521.00507-.01041.01548-.02082.02069-.37398.35857-.76358.69618-1.174,1.01831-.01041.00507-.01562.01028-.02603.02069-.60776.48309-1.25195.91947-1.92724,1.30914-.22343.13507-.4572.26494-.69097.38439-.03637.01562-.07274.03637-.10911.05719-.1974.10391-.39994.20254-.60255.29083-.23898.11438-.48316.22343-.72734.31692-.24932.10391-.49864.19747-.74803.28576-.24418.08829-.49357.17144-.74289.24412-.01041,0-.02596.00521-.04158.01041-.24932.07788-.50385.14548-.75844.20775-.25973.0676-.52467.12466-.78961.17151-.27014.05719-.54029.10384-.81043.14028-.23898.03637-.47268.0676-.71166.08822-.03637,0-.07795.00521-.11432.01041-.3896.03644-.77926.0624-1.17407.07268-.14542.00534-.28569.00534-.43117.00534H16.98212c-.14542,0-.28569,0-.43111-.00534-.39487-.01028-.78447-.03624-1.17407-.07268-.03637-.00521-.07795-.01041-.11425-.01041-.23904-.02062-.47282-.05185-.71173-.08822-.27014-.03644-.54029-.08309-.81043-.14028-.26494-.04685-.52988-.10391-.78967-.17151-.25453-.06226-.50905-.12987-.75844-.20775-.01555-.00521-.03117-.01041-.04158-.01041-.24932-.07268-.49871-.15583-.74283-.24412-.24932-.08829-.49871-.18185-.74803-.28576-.24418-.0935-.48837-.20254-.72728-.31692-.20267-.08829-.40528-.18693-.60268-.29083-.03637-.02082-.07274-.04158-.10905-.05719-.23377-.11946-.46755-.24932-.69097-.38439-.67529-.38966-1.31948-.82604-1.92731-1.30914-.01041-.01041-.01562-.01562-.02596-.02069-.41035-.32213-.80002-.65974-1.17407-1.01831-.01034-.00521-.01555-.01562-.02075-.02069-.18699-.17665-.37405-.35857-.54543-.54562-.10391-.10371-.20267-.20775-.30137-.31679-.16624-.18699-.33247-.36884-.48303-.56111-.10397-.11946-.20267-.23898-.30137-.36884-.22857-.28563-.44679-.58173-.6494-.8831-.07788-.10905-.15062-.21816-.21809-.32733-.07281-.10384-.14028-.21295-.20267-.31679-.14542-.22857-.28049-.45713-.41035-.69618-.06754-.11425-.12993-.22857-.18706-.34802-.57145-1.08057-1.02859-2.22861-1.35072-3.43391-.02596-.09864-.05185-.19734-.07268-.29083-.03637-.12987-.0676-.25973-.0935-.3896-.15583-.68056-.265-1.37674-.33254-2.08313-.01034-.11952-.02075-.2339-.03117-.35336-.03117-.41549-.04665-.83632-.04665-1.25715V28.08908c0-.42083.01548-.84166.04665-1.25722.01041-.12987.02082-.26494.03637-.3948.06754-.69611.17671-1.37147.32733-2.03642.02589-.13507.05713-.26494.0935-.39487.02596-.11425.05713-.23371.08829-.34282.32213-1.18441.77406-2.31691,1.3351-3.38186.06233-.11946.12473-.23377.18706-.34809.25973-.46755.54022-.91947.84153-1.36106.07274-.0987.14548-.20261.21816-.30651.13507-.18699.27535-.37405.42083-.55577.37398-.47796.77406-.92995,1.20003-1.36633.0935-.0987.18699-.1922.28569-.28569.04678-.05199.09877-.09877.14548-.14028.04671-.04678.09356-.09356.14028-.12987.14542-.14548.2961-.28049.45193-.41035.14028-.12473.29096-.24945.44159-.36891.06233-.05192.12466-.10391.18699-.15062.03644-.03117.07274-.0624.11432-.08836.16103-.12473.32213-.24939.4883-.36884.01555-.00521.02596-.01562.04158-.03117.1974-.14028.40521-.27535.60782-.41042.02075-.01028.04151-.02589.06233-.04151.20261-.12987.40521-.25453.61296-.36884.22343-.13507.4572-.25973.69097-.38439.0363-.02082.07268-.03637.10905-.05719.1974-.10391.40001-.20254.60268-.2909.23891-.11432.48309-.21822.72728-.31686.24412-.10397.49351-.19747.74803-.28576.75324-.27014,1.5325-.48309,2.33252-.63378.27014-.05719.54029-.10384.81043-.14028.23891-.03637.47268-.06754.71173-.08822.0363,0,.07788-.00521.11425-.01041.11946-.01562.24412-.02603.36884-.02603.15062-.01562.30124-.02596.45193-.03117.25973-.01562.51947-.02082.7844-.02082h363.37412c.26494,0,.52474.00521.78447.02082.15062.00521.30124.01555.45193.03117.12466,0,.24939.01041.36884.02603.03637.00521.07795.01041.11432.01041.23898.02069.47268.05185.71166.08822.27014.03644.54029.08309.81043.14028.80002.15069,1.57922.36364,2.33252.63378.25453.08829.50392.18179.74803.28576.24418.09864.48837.20254.72734.31686.20261.08836.40515.18699.60255.2909.03637.02082.07274.03637.10911.05719.23377.12466.46755.24932.69097.38439.20775.11432.41035.23898.61296.36884.02075.01562.04158.03123.06233.04151.20261.13507.41042.27014.60782.41042.01562.01555.02596.02596.04158.03117.16624.11946.32727.24412.4883.36884.04158.02596.07795.05719.11425.08836.0624.04671.12473.0987.18706.15062.15069.11946.30131.24418.44159.36891.15583.12987.30645.26487.45193.41035.04671.0363.0935.08309.14028.12987.04671.04151.0987.08829.14542.14028.09877.0935.19226.18699.28576.28569.42597.43638.82598.88838,1.20003,1.36633.14548.18172.28576.36878.42076.55577.07274.10391.14548.20781.21822.30651.30131.44159.5818.89351.84159,1.36106.06233.11432.12466.22863.18699.34809.56104,1.06496,1.01304,2.19745,1.3351,3.38186.03117.10911.06233.22857.08829.34282.03637.12993.06754.2598.0935.39487.15069.66495.25973,1.3403.32727,2.03642.01562.12987.02603.26494.03637.3948.03117.41556.04678.83639.04678,1.25722v269.44471Z"/><path class="cls-6" d="M380.3563,23.73049H16.98212c-2.40328,0-4.35846,1.95524-4.35846,4.35859v269.44471c0,2.40328,1.95518,4.35859,4.35846,4.35859h363.37418c2.40328,0,4.35853-1.95531,4.35853-4.35859V28.08908c0-2.40335-1.95524-4.35859-4.35853-4.35859ZM384.45509,297.5338c0,2.26011-1.83875,4.09886-4.0988,4.09886H16.98212c-2.25998,0-4.09873-1.83875-4.09873-4.09886V28.08908c0-2.26018,1.83875-4.09886,4.09873-4.09886h363.37418c2.26004,0,4.0988,1.83869,4.0988,4.09886v269.44471Z"/><path class="cls-11" d="M380.3563,12.82112H16.98212c-8.42095,0-15.26776,6.84694-15.26776,15.26796v269.44471c0,8.42095,6.84681,15.26796,15.26776,15.26796h363.37418c8.42095,0,15.26783-6.84701,15.26783-15.26796V28.08908c0-8.42102-6.84687-15.26796-15.26783-15.26796ZM384.71483,297.5338c0,2.40328-1.95524,4.35859-4.35853,4.35859H16.98212c-2.40328,0-4.35846-1.95531-4.35846-4.35859V28.08908c0-2.40335,1.95518-4.35859,4.35846-4.35859h363.37418c2.40328,0,4.35853,1.95524,4.35853,4.35859v269.44471Z"/><path class="cls-10" d="M16.19771,314.3394c-.18179-.01041-.36364-.02075-.54543-.03637-.09356-.00521-.18185-.01041-.27535-.02082-.03637-.00521-.07795-.01041-.11425-.01041-.23904-.02596-.47796-.05706-.71173-.08822-.27535-.04164-.54029-.08842-.81043-.14028-.26494-.05192-.52988-.10911-.78967-.17151-.25453-.06747-.50905-.13507-.75844-.20775-.01555-.00521-.03117-.01041-.04158-.01041-.24932-.07795-.49871-.16103-.74283-.24412-.25453-.08829-.50392-.18185-.74803-.28576-.24418-.09864-.48837-.20254-.72728-.31692-.20267-.0935-.40528-.19213-.60268-.29083-.03637-.02082-.07274-.04158-.10905-.05719-.23377-.12466-.46755-.24932-.69097-.38439-.67529-.39487-1.31948-.83112-1.92731-1.30914-.01041-.01041-.01562-.01562-.02596-.02069-.40515-.32213-.80002-.66508-1.17407-1.01831-.01034-.00521-.01555-.01562-.02075-.02069-.18699-.17665-.36891-.35857-.54543-.54562-.10391-.10371-.20267-.20775-.30137-.31679-.16103-.18192-.32727-.36884-.48303-.56111-.10397-.11946-.20267-.23898-.30137-.36884-.22336-.28563-.44159-.58173-.6494-.8831-.07268-.10905-.14542-.21816-.21809-.32733-.0676-.10384-.13507-.21295-.20267-.31679-.14542-.22857-.28049-.45713-.41035-.69618-.06233-.11425-.12473-.23377-.18706-.34802-.57145-1.08057-1.02859-2.22861-1.35072-3.43391-.02596-.09343-.05185-.19213-.07268-.29083-.03637-.12987-.0676-.25973-.0935-.3896-.15583-.68056-.265-1.37674-.33254-2.08313-.01034-.11952-.02075-.2339-.03117-.35336-.03117-.41549-.04665-.83632-.04665-1.25715V28.08908c0-.42083.01548-.84166.04665-1.25722.01041-.12987.02082-.26494.03637-.3948.06754-.69611.17671-1.37147.32733-2.03642.02589-.13507.05713-.26494.0935-.39487.02596-.11425.05713-.23371.08829-.34282.32213-1.18441.77406-2.31691,1.3351-3.38186.06233-.11946.12473-.23377.18706-.34809.25973-.46755.54022-.91947.84153-1.36106.07274-.0987.14548-.20261.21816-.30651.13507-.18699.27535-.37405.42083-.55577.37398-.47796.77406-.92995,1.20003-1.36633.0935-.0987.18699-.1922.28569-.28569.04678-.05199.09877-.09877.14548-.14028.04671-.04678.09356-.09356.14028-.12987.14542-.14548.2961-.28049.45193-.41035.14028-.12473.29096-.24945.44159-.36891.06233-.05192.12466-.10391.18699-.15062.03644-.03117.07274-.0624.11432-.08836.16103-.12473.32213-.24939.4883-.36884.01555-.00521.02596-.01562.04158-.03117.1974-.14028.40521-.27535.60782-.41042.02075-.01028.04151-.02589.06233-.04151.20261-.12466.40521-.24932.61296-.36884.22343-.13507.4572-.25973.69097-.38439.0363-.02082.07268-.03637.10905-.05719.1974-.0987.40001-.19734.60268-.2909.23891-.11432.48309-.21822.72728-.31686.24412-.10397.49351-.19747.74803-.28576.75324-.26494,1.5325-.47789,2.33252-.63378.27014-.05199.53508-.09864.81043-.14028.23377-.03117.47268-.06233.71173-.08822.0363,0,.07788-.00521.11425-.01041.11946-.01562.24412-.02603.36884-.02603-.0987.00521-.19747.01562-.2961.02603-.24939.02589-.49871.05706-.74283.09343-.11959.01562-.23904.03644-.35329.06233-.15069.02082-.2961.04678-.44159.07795-.22336.04158-.44159.0935-.65454.15069-.23384.05706-.46755.11946-.69618.19213-.19213.05719-.37919.11959-.56625.18712-.40001.13507-.79475.28569-1.174.46227-.11952.04678-.23898.10391-.35329.16103-.18179.08315-.36364.17151-.54022.265-.01562.01034-.03117.01555-.04678.02596-.20261.10911-.40001.21816-.59741.33241-.01041.00521-.02082.01041-.02603.01562-.14021.08315-.28049.1663-.41556.25453-.11946.07274-.23891.15069-.35323.22863-.02596.01555-.05199.03637-.07795.05713-.18699.12466-.37405.25973-.55584.3948-.17665.12993-.35329.265-.52467.41042-.04158.02596-.07795.05713-.10918.0935-.17138.12987-.33761.27535-.49871.43124-.18179.16097-.35837.33241-.52988.50385-.15062.14548-.30124.30131-.44666.46234-.03644.04158-.07801.08315-.11952.12987-.14021.16103-.28049.32733-.42076.49351-.1611.18706-.31178.37925-.45206.57666-.11946.15589-.23371.31172-.33761.47275-.06233.07795-.11425.16103-.17144.24418-.06747.0987-.13507.20261-.19734.31165-.0676.09877-.12993.1974-.18712.30137-.11946.20254-.23891.40521-.34802.61296-.06754.12466-.13507.25453-.1974.38439-.15062.30137-.29604.61303-.4259.92989-.04164.0987-.08322.20261-.12479.30651-.06233.15589-.11946.31165-.17658.47275-.07274.20261-.14028.41042-.20261.61817-.06754.20781-.12466.42083-.18179.63378-.00521.01041-.00521.02075-.00521.03117-.06233.23377-.11952.46755-.1663.70138,0,.01555-.00521.02596-.00521.0363-.0363.17665-.07268.35329-.09343.52988-.14548.82604-.21816,1.67278-.21816,2.5404v272.56164c0,.30137.01034.60782.0311.90393.00521.1611.01555.32213.03117.47802.01041.13494.02596.27014.04678.40508.00521.0676.01562.12987.02082.19226.02075.18192.04665.35843.08309.53515.00521.02596.00521.04678.01034.07268.01562.10905.03644.21809.05719.32733.01034.05185.02075.10384.0311.15583.00521.02069.01041.0363.01041.05713.03123.16103.0676.31679.10911.47789.01555.0676.03117.13507.05199.20267.05713.2233.11946.44666.18699.66495.06754.21816.13507.43631.21302.64419.00521.01034.00521.01542.01041.02583.0363.10924.07268.21308.11946.31699.00521.01555.01041.02596.01562.04158.04151.11946.08822.23371.13507.34802.00521.01041.00521.01562.01041.02596.13501.31686.27528.62337.4259.92475.06233.12987.12987.25453.1974.38439.10911.20775.22857.41042.34802.61296.05719.10391.11952.20254.18712.30137.06226.10384.12987.20775.19734.31159.05199.08322.10911.1663.17144.24431.10391.1609.21816.31679.33761.47268.14028.19734.29096.3896.45206.57666.11425.14535.23891.29083.36878.43111.01562.02082.03644.04164.05199.06226.04151.04685.08309.08842.11952.12987.01555.01575.0311.03123.04144.04685.13507.14028.27014.28055.40521.41562.13507.14028.27014.27014.40521.3948.01041.00521.02082.01562.03123.02596.05713.05713.11946.11432.18699.16617.12466.11946.25453.2287.38439.33254.04158.03644.08315.07281.12993.10911.17138.14021.34288.28049.52467.41042.12987.10384.25973.19734.3948.28569.01034.01041.02596.02069.04158.0311.10384.07281.20775.14561.31172.21308.17652.11425.35843.23371.54543.34282.01041.00521.02075.01041.03117.02075.12466.07268.24932.14548.37919.21295.0676.04164.14028.08322.21308.11952.13501.07281.27008.14555.40515.20788.17658.09343.3637.18172.55063.25973.13507.06226.27014.12466.40521.18172.05199.02082.09877.04158.15069.0624.14548.05706.2909.11432.44152.1663.08836.03637.18185.06747.27535.09864.02075.00521.03637.01562.05713.02082.1663.05719.33254.10905.50392.16097.17665.05719.3585.10918.54029.15062.02603.01041.04678.01562.07274.02082.06233.01562.12466.03123.18699.04678.17151.04685.34802.08309.52474.11952.01041,0,.01555.00521.02596.00521.14548.03117.2909.05706.44159.07788.11425.02596.23371.04678.35329.0624.24412.03624.49344.06747.74283.09343.24412.02603.49871.04678.74803.05719Z"/><path class="cls-8" d="M397.18259,28.08908v269.44471c0,.42083-.01562.84166-.04678,1.25715-.01034.11946-.02075.23384-.03117.35336-.06754.70639-.17665,1.40257-.33247,2.08313-.02596.12987-.05713.25973-.0935.3896-.02075.0987-.04671.1974-.07274.29083-.32206,1.2053-.7792,2.35334-1.35065,3.43391-.06233.11425-.12466.23377-.18699.34802-.12993.23904-.265.46761-.41042.69618-.06754.10384-.13507.21295-.20261.31679-.07274.10918-.14548.21829-.21822.32733-.20775.30137-.42597.59748-.64933.8831-.0987.12987-.1974.24939-.30131.36884-.15589.19226-.32206.37919-.48309.56111-.0987.10905-.1974.21308-.30131.31679-.17665.18706-.3585.36898-.54549.54562-.00521.00507-.01041.01548-.02082.02069-.37398.35323-.76879.69618-1.174,1.01831-.01041.00507-.01562.01028-.02603.02069-.60776.47802-1.25195.91427-1.92724,1.30914-.22343.13507-.4572.25973-.69097.38439-.03637.01562-.07274.03637-.10911.05719-.1974.0987-.39994.19734-.60255.29083-.23898.11438-.48316.21829-.72734.31692-.24412.10391-.49351.19747-.74803.28576-.24418.08309-.49357.16617-.74289.24412-.01041,0-.02596.00521-.04158.01041-.24932.07268-.50385.14028-.75844.20775-.25973.0624-.52467.11959-.78961.17151-.27014.05185-.53508.09864-.81043.14028-.23377.03117-.47268.06226-.71166.08822-.03637,0-.07795.00521-.11432.01041-.0935.01041-.18185.01562-.27535.02082.06754-.00521.13507-.01562.20261-.02082.24939-.02075.49871-.05185.74289-.09343.11946-.01562.23898-.03644.35323-.0624.15069-.02082.29617-.04671.44159-.07788.24939-.05205.49351-.10911.73769-.17151.20781-.05185.41562-.10905.61303-.17144.17138-.05192.33761-.10377.50385-.16097.31692-.10905.62344-.22336.92475-.34816.13507-.05706.27008-.11946.40515-.18172.18706-.07801.37405-.1663.5507-.25973.13507-.0676.27014-.13507.40521-.20788.07274-.0363.14542-.07788.21295-.11952.14028-.07268.27535-.15062.41042-.23371.18699-.10911.36884-.22857.54549-.34282.10391-.06747.20775-.14028.31165-.21308.15069-.0987.2961-.20775.43638-.31679.17665-.12993.35329-.265.52474-.41042.04671-.0363.08829-.07268.12987-.10911.12987-.10384.25973-.21308.38439-.33254.06754-.05185.12987-.10905.18699-.16617.15069-.13507.29617-.27014.43638-.42076.15069-.14548.30131-.30137.44679-.46247.03637-.04144.07788-.08302.11946-.12987.14028-.1609.28055-.3272.42083-.49337.16103-.18706.31165-.37932.45193-.57666.11952-.15589.23377-.31178.33768-.47268.06233-.07801.11946-.1611.17144-.24431.06747-.10384.13507-.20775.1974-.31159.06754-.09883.12987-.19747.18699-.30137.11952-.20254.23898-.40521.34809-.61296.06754-.12987.13507-.25453.1974-.38439.15062-.30137.2909-.60789.42597-.92475.05192-.12466.0987-.24932.14548-.37398.05192-.12466.0987-.25453.14542-.38439.07795-.20788.14548-.42604.21302-.64419.06754-.21829.12987-.44165.18706-.66495.06747-.23898.11946-.4883.17138-.73769.04158-.18185.07274-.36891.0987-.55584.14028-.81563.21302-1.65729.21302-2.51444V26.53062c0-.86762-.07274-1.71435-.21822-2.5404-.02075-.17658-.05713-.35323-.0935-.52988,0-.01034-.00521-.02075-.00521-.0363-.04671-.23384-.10384-.46761-.16617-.70138,0-.01041,0-.02075-.00521-.03117-.05719-.21295-.11432-.42597-.18185-.63378-.06233-.20775-.12987-.41556-.20261-.61817-.05713-.1611-.11432-.31686-.17665-.47275-.04158-.10391-.08309-.20781-.12466-.30651-.12987-.31686-.27535-.62851-.42597-.92989-.06233-.12987-.12987-.25973-.1974-.38439-.10911-.20775-.22857-.41042-.34809-.61296-.05713-.10397-.11946-.20261-.18699-.30137-.06233-.10905-.12993-.21295-.1974-.31165-.05719-.08315-.10911-.16624-.17144-.24418-.10391-.16103-.21816-.31686-.33768-.47275-.14028-.1974-.2909-.3896-.45193-.57666-.14028-.16617-.28055-.33247-.42083-.49351-.04158-.04671-.08309-.08829-.11946-.12987-.14548-.16103-.2961-.31686-.44679-.46234-.17144-.17144-.34802-.34288-.52988-.50385-.16103-.15589-.32727-.30137-.49871-.43124-.03117-.03637-.06754-.06754-.10905-.0935-.17144-.14542-.34809-.28049-.52474-.41042-.18185-.13507-.36884-.27014-.55584-.3948-.02596-.02075-.05199-.04158-.07795-.05713-.11425-.07795-.23377-.15589-.35323-.22863-.13507-.08822-.27535-.17138-.41562-.25453-.00521-.00521-.01555-.01041-.02596-.01562-.1974-.11425-.3948-.2233-.59741-.33241-.01555-.01041-.03117-.01562-.04671-.02596-.17665-.0935-.3585-.18185-.54029-.265-.11432-.05713-.23384-.11425-.35329-.16103-.37919-.17658-.77406-.3272-1.17407-.46227-.18699-.06754-.37398-.12993-.56618-.18712-.22863-.07268-.46241-.13507-.69618-.19213-.21295-.05719-.43117-.10911-.65454-.15069-.14542-.03117-.2909-.05713-.44159-.07795-.11425-.02589-.23377-.04671-.35323-.06233-.24418-.03637-.49351-.06754-.74289-.09343-.0987-.01041-.1974-.02082-.2961-.02603.12466,0,.24939.01041.36884.02603.03637.00521.07795.01041.11432.01041.23898.02589.47789.05706.71166.08822.27535.04164.54029.08829.81043.14028.80002.15589,1.57922.36884,2.33252.63378.25453.08829.50392.18179.74803.28576.24418.09864.48837.20254.72734.31686.20261.09356.40515.1922.60255.2909.03637.02082.07274.03637.10911.05719.23377.12466.46755.24932.69097.38439.20775.11952.41035.24418.61296.36884.02075.01562.04158.03123.06233.04151.20261.13507.41042.27014.60782.41042.01562.01555.02596.02596.04158.03117.16624.11946.32727.24412.4883.36884.04158.02596.07795.05719.11425.08836.0624.04671.12473.0987.18706.15062.15069.11946.30131.24418.44159.36891.15583.12987.30645.26487.45193.41035.04671.0363.0935.08309.14028.12987.04671.04151.0987.08829.14542.14028.09877.0935.19226.18699.28576.28569.42597.43638.82598.88838,1.20003,1.36633.14548.18172.28576.36878.42076.55577.07274.10391.14548.20781.21822.30651.30131.44159.5818.89351.84159,1.36106.06233.11432.12466.22863.18699.34809.56104,1.06496,1.01304,2.19745,1.3351,3.38186.03117.10911.06233.22857.08829.34282.03637.12993.06754.2598.0935.39487.15069.66495.25973,1.3403.32727,2.03642.01562.12987.02603.26494.03637.3948.03117.41556.04678.83639.04678,1.25722Z"/><path class="cls-7" d="M395.62413,26.53062v1.55846c0-8.42102-6.84687-15.26796-15.26789-15.26796H16.98212c-8.42089,0-15.26776,6.84694-15.26776,15.26796v-1.55846c0-.86762.07268-1.71435.21816-2.5404.02075-.17658.05713-.35323.09343-.52988,0-.01034.00521-.02075.00521-.0363.04678-.23384.10397-.46761.1663-.70138,0-.01041,0-.02075.00521-.03117.05713-.21295.11425-.42597.18179-.63378.06233-.20775.12987-.41556.20261-.61817.05713-.1611.11425-.31686.17658-.47275.04158-.10391.08315-.20781.12479-.30651.12987-.31686.27528-.62851.4259-.92989.06233-.12987.12987-.25973.1974-.38439.10911-.20775.22857-.41042.34802-.61296.05719-.10397.11952-.20261.18712-.30137.06226-.10905.12987-.21295.19734-.31165.05199-.08315.10911-.16624.17144-.24418.10391-.16103.21816-.31686.33761-.47275.14548-.1974.29617-.3896.45206-.57666.14028-.16617.28055-.33247.42076-.49351.04151-.04671.08309-.08829.11952-.12987.14542-.15583.29604-.31165.44666-.46234.17151-.17144.34809-.34288.52988-.50385.1611-.15069.32733-.29096.49871-.43124.03123-.03637.0676-.06754.10918-.0935.17138-.14028.34288-.27535.52467-.41042s.36884-.27014.55584-.3948c.02596-.02075.05199-.04158.07795-.05713.11432-.07795.23377-.15589.35323-.22863.13507-.08822.27535-.17138.41556-.25453.00521-.00521.01562-.01041.02603-.01562.1974-.11425.3948-.2233.59741-.33241.01562-.01041.03117-.01562.04678-.02596.17658-.0935.35843-.18185.54022-.265.11432-.05713.23377-.11425.35329-.16103.37925-.17658.77399-.3272,1.174-.46227.18706-.06754.37412-.12993.56625-.18712.22863-.06747.46234-.13507.69618-.19213.21295-.05719.43117-.10911.65454-.15069.14548-.03117.2909-.05713.44159-.07795.11425-.02589.23371-.04671.35329-.06233.24412-.03637.49344-.06754.74283-.09343.09864-.01041.1974-.02082.2961-.02603.15062-.01562.30124-.02596.45193-.03117.25973-.01562.51947-.02082.7844-.02082h363.37412c.26494,0,.52474.00521.78447.02082.15062.00521.30124.01555.45193.03117.0987.00521.1974.01562.2961.02603.24939.02589.49871.05706.74289.09343.11946.01562.23898.03644.35323.06233.15069.02082.29617.04678.44159.07795.22336.04158.44159.0935.65454.15069.23377.05706.46755.12466.69618.19213.1922.05719.37919.11959.56618.18712.40001.13507.79488.28569,1.17407.46227.11946.04678.23898.10391.35329.16103.18179.08315.36364.17151.54029.265.01555.01034.03117.01555.04671.02596.20261.10911.40001.21816.59741.33241.01041.00521.02075.01041.02596.01562.14028.08315.28055.1663.41562.25453.11946.07274.23898.15069.35323.22863.02596.01555.05199.03637.07795.05713.18699.12466.37398.25973.55584.3948s.35329.27014.52474.41042c.04151.02596.07788.05713.10905.0935.17144.14028.33768.28055.49871.43124.18185.16097.35843.33241.52988.50385.15069.15069.30131.30651.44679.46234.03637.04158.07788.08315.11946.12987.14028.16103.28055.32733.42083.49351.15583.18706.30651.37925.45193.57666.11952.15589.23377.31172.33768.47275.06233.07795.11946.16103.17144.24418.06747.0987.13507.20261.1974.31165.06754.09877.12987.1974.18699.30137.11952.20254.23898.40521.34809.61296.06754.12466.13507.25453.1974.38439.15062.30137.2961.61303.42597.92989.04158.0987.08309.20261.12466.30651.06233.15589.11952.31165.17665.47275.07274.20261.14028.41042.20261.61817.06754.20781.12466.42083.18185.63378.00521.01041.00521.02075.00521.03117.06233.23377.11946.46755.16617.70138,0,.01555.00521.02596.00521.0363.03637.17665.07274.35329.0935.52988.14548.82604.21822,1.67278.21822,2.5404Z"/><path class="cls-9" d="M395.62413,297.5338v1.55846c0,.85714-.07274,1.6988-.21302,2.51444-.02596.18693-.05713.37398-.0987.55584-.05192.24939-.10391.49871-.17138.73769-.05719.2233-.11952.44666-.18706.66495-.06754.21816-.13507.43631-.21302.64419-.04671.12987-.0935.25973-.14542.38439-.04678.12466-.09356.24932-.14548.37398-.13507.31686-.27535.62337-.42597.92475-.06233.12987-.12987.25453-.1974.38439-.10911.20775-.22857.41042-.34809.61296-.05713.10391-.11946.20254-.18699.30137-.06233.10384-.12993.20775-.1974.31159-.05199.08322-.10911.1663-.17144.24431-.10391.1609-.21816.31679-.33768.47268-.14542.19734-.2961.3896-.45193.57666-.14028.16617-.28055.33247-.42083.49337-.04158.04685-.08309.08842-.11946.12987-.14548.15602-.2961.31178-.44679.46247-.14021.14028-.28569.28049-.43638.42076-.05713.05713-.11946.11432-.18699.16617-.12466.11438-.25453.22349-.38439.33254-.04158.03644-.08315.07281-.12987.10911-.17144.14021-.34288.28049-.52474.41042-.14028.10905-.28569.21289-.43638.31679-.10391.07281-.20775.14561-.31165.21308-.17665.11425-.3585.23371-.54549.34282-.13507.08309-.27014.16103-.41042.23371-.06754.04164-.14021.08322-.21295.11952-.13507.07281-.27014.14028-.40521.20788-.17665.09343-.36364.18172-.5507.25973-.13507.06226-.27008.12466-.40515.18172-.30131.12479-.60782.23911-.92475.34816-.16624.05719-.33247.10905-.50385.16097-.1974.0624-.40521.11959-.61303.17144-.24418.0624-.4883.11946-.73769.17151-.14542.03117-.2909.05706-.44159.07788-.11425.02596-.23377.04678-.35323.0624-.24418.03624-.49351.06747-.74289.09343-.06754.00521-.13507.01562-.20261.02082-.18179.01562-.36364.02596-.54543.03637-.11952.00521-.23377.01041-.35329.01548-.14542.00534-.28569.00534-.43117.00534H16.98212c-.14542,0-.28569,0-.43111-.00534-.11952-.00507-.23384-.01028-.35329-.01548-.18179-.01041-.36364-.02075-.54543-.03637-.06754-.00521-.13507-.01562-.20261-.02082-.24939-.02596-.49871-.05719-.74283-.09343-.11959-.01562-.23904-.03644-.35329-.0624-.15069-.02082-.2961-.04671-.44159-.07788-.01041,0-.01555-.00521-.02596-.00521-.17671-.03644-.35323-.07268-.52474-.11952-.06233-.01555-.12466-.03117-.18699-.04678-.02596-.00521-.04671-.01041-.07274-.02082-.18179-.04144-.36364-.09343-.54029-.15062-.17138-.05192-.33761-.10377-.50392-.16097-.02075-.00521-.03637-.01562-.05713-.02082-.0935-.03117-.18699-.06226-.27535-.09864-.15062-.05199-.29604-.10924-.44152-.1663-.05192-.02082-.0987-.04158-.15069-.0624-.13507-.05706-.27014-.11946-.40521-.18172-.18693-.07801-.37405-.1663-.55063-.25973-.13507-.06233-.27014-.13507-.40515-.20788-.07281-.0363-.14548-.07788-.21308-.11952-.12987-.06747-.25453-.14028-.37919-.21295-.01041-.01034-.02075-.01555-.03117-.02075-.18699-.10911-.36891-.22857-.54543-.34282-.10397-.06747-.20788-.14028-.31172-.21308-.01562-.01041-.03123-.02069-.04158-.0311-.13507-.09343-.27014-.18706-.3948-.28569-.18179-.12993-.35329-.27021-.52467-.41042-.04678-.0363-.08836-.07268-.12993-.10911-.12987-.10905-.25973-.21816-.38439-.33254-.06754-.05185-.12987-.10905-.18699-.16617-.01041-.01034-.02082-.02075-.03123-.02596-.14028-.13507-.27535-.26494-.40521-.3948-.13507-.13507-.27014-.27535-.40521-.41562-.01034-.01562-.02589-.0311-.04144-.04685-.03644-.04144-.07801-.08302-.11952-.12987-.01555-.02062-.03637-.04144-.05199-.06226-.12466-.14028-.24412-.28576-.36878-.43111-.15589-.18706-.30658-.37932-.45206-.57666-.11946-.15589-.23371-.31178-.33761-.47268-.06233-.07801-.11946-.1611-.17144-.24431-.06747-.10384-.13507-.20775-.19734-.31159-.0676-.09883-.12993-.19747-.18712-.30137-.11946-.20254-.23891-.40521-.34802-.61296-.06754-.12987-.13507-.25453-.1974-.38439-.15062-.30137-.2909-.60789-.4259-.92475-.00521-.01034-.00521-.01555-.01041-.02596-.04685-.11432-.09356-.23377-.13507-.34802-.00521-.01562-.01041-.02603-.01562-.04158-.04678-.10391-.08315-.20775-.11946-.31699-.00521-.01041-.00521-.01548-.01041-.02583-.07795-.20788-.14548-.42604-.21302-.64419-.06754-.21829-.12987-.44165-.18699-.66495-.02082-.0676-.03644-.13507-.05199-.20267-.04151-.1611-.07788-.31686-.10911-.47789,0-.02082-.00521-.03644-.01041-.05713-.01034-.05199-.02075-.10397-.0311-.15583-.02075-.10924-.04158-.21829-.05719-.32733-.00514-.02589-.00514-.04671-.01034-.07268-.03123-.17671-.05719-.35323-.08309-.53515-.00521-.0624-.01562-.12466-.02082-.19226-.02082-.13494-.03117-.27014-.04678-.40508-.01562-.15589-.02596-.31692-.03117-.47802-.02075-.2961-.0311-.60255-.0311-.90393v-1.55846c0,8.42095,6.84687,15.26796,15.26776,15.26796h363.37412c8.42102,0,15.26789-6.84701,15.26789-15.26796Z"/></svg>