<?xml version="1.0" encoding="UTF-8"?><svg id="Camada_1" xmlns="http://www.w3.org/2000/svg" xmlns:xlink="http://www.w3.org/1999/xlink" viewBox="0 0 314.51598 397.33842"><defs><style>.cls-1{fill:url(#linear-gradient-2);}.cls-2{fill:#dfdfdf;}.cls-3{fill:none;}.cls-4{fill:url(#linear-gradient-4);}.cls-5{fill:url(#linear-gradient-3);}.cls-6{fill:url(#linear-gradient-5);}.cls-7{fill:url(#linear-gradient-8);}.cls-8{fill:url(#linear-gradient-7);}.cls-9{fill:url(#linear-gradient-9);}.cls-10{fill:url(#linear-gradient-6);}.cls-11{fill:#010101;}.cls-12{fill:url(#linear-gradient);}</style><linearGradient id="linear-gradient" x1="-3691.79902" y1="4071.48668" x2="-3685.00405" y2="4064.69172" gradientTransform="translate(4376.97429 3772.63007) rotate(90)" gradientUnits="userSpaceOnUse"><stop offset="0" stop-color="#808181"/><stop offset=".28472" stop-color="#bababa"/><stop offset=".36646" stop-color="#cecece"/><stop offset=".49754" stop-color="#e9e9e9"/><stop offset=".61435" stop-color="#f9f9f9"/><stop offset=".70428" stop-color="#fff"/><stop offset=".82754" stop-color="#fcfcfb"/><stop offset=".92357" stop-color="#f2f2f2"/><stop offset="1" stop-color="#e5e5e4"/></linearGradient><linearGradient id="linear-gradient-2" x1="-3577.78306" y1="4073.72091" x2="-3577.78306" y2="4062.45832" xlink:href="#linear-gradient"/><linearGradient id="linear-gradient-3" x1="-3461.97538" y1="4071.55983" x2="-3461.97538" y2="4064.61953" xlink:href="#linear-gradient"/><linearGradient id="linear-gradient-4" x1="-3468.10016" y1="4071.64819" x2="-3468.10016" y2="4064.5311" gradientTransform="translate(4376.97429 3772.63007) rotate(90)" gradientUnits="userSpaceOnUse"><stop offset="0" stop-color="#808181"/><stop offset=".02945" stop-color="#898989"/><stop offset=".1177" stop-color="#9e9f9f"/><stop offset=".21503" stop-color="#aeaeae"/><stop offset=".32739" stop-color="#b7b7b7"/><stop offset=".48944" stop-color="#bababa"/><stop offset=".66838" stop-color="#b7b7b7"/><stop offset=".79832" stop-color="#adadad"/><stop offset=".91241" stop-color="#9d9d9e"/><stop offset="1" stop-color="#8c8c8d"/></linearGradient><linearGradient id="linear-gradient-5" x1="-3023.0392" y1="4776.19139" x2="-2700.46873" y2="5098.76186" gradientTransform="translate(5089.18118 3060.42319) rotate(90)" gradientUnits="userSpaceOnUse"><stop offset="0" stop-color="#f1f2f4"/><stop offset=".46399" stop-color="#ededee"/><stop offset="1" stop-color="#e2e1e1"/></linearGradient><linearGradient id="linear-gradient-6" x1="-3772.47418" y1="4225.28534" x2="-3756.43236" y2="4225.28534" gradientTransform="translate(4376.97429 3772.63007) rotate(90)" gradientUnits="userSpaceOnUse"><stop offset="0" stop-color="#f0f0f0"/><stop offset=".05663" stop-color="#dddcdc"/><stop offset=".14308" stop-color="#c7c6c6"/><stop offset=".2447" stop-color="#b6b5b5"/><stop offset=".36948" stop-color="#aaa9a9"/><stop offset=".54246" stop-color="#a3a2a2"/><stop offset="1" stop-color="#a2a1a1"/></linearGradient><linearGradient id="linear-gradient-7" x1="-3391.03744" y1="4225.26715" x2="-3375.44748" y2="4225.26715" gradientTransform="translate(4376.97429 3772.63007) rotate(90)" gradientUnits="userSpaceOnUse"><stop offset="0" stop-color="#a2a1a1"/><stop offset=".45754" stop-color="#a3a2a2"/><stop offset=".63052" stop-color="#aaa9a9"/><stop offset=".7553" stop-color="#b6b5b5"/><stop offset=".85692" stop-color="#c7c6c6"/><stop offset=".94337" stop-color="#dddcdc"/><stop offset="1" stop-color="#f0f0f0"/></linearGradient><linearGradient id="linear-gradient-8" x1="-3770.91572" y1="4082.13419" x2="-3377.00594" y2="4082.13419" gradientTransform="translate(4376.97429 3772.63007) rotate(90)" gradientUnits="userSpaceOnUse"><stop offset="0" stop-color="#cac9c9"/><stop offset=".47778" stop-color="#f0f0f0"/><stop offset=".63825" stop-color="#ebebeb"/><stop offset=".82392" stop-color="#ddd"/><stop offset="1" stop-color="#cac9c9"/></linearGradient><linearGradient id="linear-gradient-9" y1="4368.40532" y2="4368.40532" xlink:href="#linear-gradient-8"/></defs><path class="cls-12" d="M314.51591,85.39268h-11.26259c0-3.10658,2.52472-5.62609,5.6313-5.62609,3.11172,0,5.6313,2.51951,5.6313,5.62609Z"/><polygon class="cls-1" points="314.51598 293.7089 312.44319 304.30134 305.32611 304.30134 303.25338 293.7089 303.25338 85.39268 314.51598 85.39268 314.51598 293.7089"/><path class="cls-5" d="M307.5028,315.41325l-2.08834-10.65477h6.9403l-2.08827,10.65477c-.2961,1.51689-2.46759,1.51689-2.7637,0Z"/><polygon class="cls-4" points="312.35477 304.75848 305.41446 304.75848 305.32611 304.30134 312.44319 304.30134 312.35477 304.75848"/><path class="cls-3" d="M288.07892,397.09944c.69611-.06754,1.37147-.17658,2.03642-.32727.13507-.02596.26494-.05713.39487-.0935.11425-.02596.23371-.05713.34282-.08829,1.18441-.32206,2.31691-.77406,3.38186-1.3351.11946-.06233.23377-.12466.34809-.18699.46755-.2598.91947-.54029,1.36106-.84159.0987-.07274.20261-.14548.30651-.21822.18699-.13501.37405-.27528.55577-.42076.47796-.37405.92995-.77406,1.36633-1.20003.0987-.0935.1922-.18699.28569-.28576.05199-.04671.09877-.0987.14028-.14542.04678-.04678.09356-.09356.12987-.14028.14548-.14548.28049-.2961.41035-.45193.12473-.14028.24945-.2909.36891-.44159.05192-.06233.10391-.12466.15062-.18706.03117-.0363.0624-.07268.08836-.11425.12473-.16103.24939-.32206.36884-.4883.00521-.01562.01562-.02596.03117-.04158.14028-.1974.27535-.40521.41042-.60782.01028-.02075.02589-.04158.04151-.06233.12987-.20261.25453-.40521.36884-.61296.13507-.22343.25973-.4572.38439-.69097.02082-.03637.03637-.07274.05719-.10911.10391-.1974.20254-.39994.2909-.60255.11432-.23898.21822-.48316.31686-.72734.10397-.24412.19747-.49351.28576-.74803.27014-.7533.48309-1.5325.63378-2.33252.05719-.27014.10384-.54029.14028-.81043.03637-.23898.06754-.47268.08822-.71166,0-.03637.00521-.07795.01041-.11432.01562-.11946.02603-.24418.02603-.36884.01562-.15069.02596-.30131.03117-.45193.01562-.25973.02082-.51953.02082-.78447V16.98212c0-.26494-.00521-.52467-.02082-.7844-.00521-.15069-.01555-.30131-.03117-.45193,0-.12473-.01041-.24939-.02603-.36884-.00521-.03637-.01041-.07795-.01041-.11425-.02069-.23904-.05185-.47282-.08822-.71173-.03644-.27014-.08309-.54029-.14028-.81043-.15069-.80002-.36364-1.57928-.63378-2.33252-.08829-.25453-.18179-.50392-.28576-.74803-.09864-.24418-.20254-.48837-.31686-.72728-.08836-.20267-.18699-.40528-.2909-.60268-.02082-.03637-.03637-.07274-.05719-.10905-.12466-.23377-.24932-.46755-.38439-.69097-.11432-.20775-.23898-.41035-.36884-.61296-.01562-.02082-.03123-.04158-.04151-.06233-.13507-.20261-.27014-.41042-.41042-.60782-.01555-.01562-.02596-.02603-.03117-.04158-.11946-.16617-.24412-.32727-.36884-.4883-.02596-.04158-.05719-.07788-.08836-.11432-.04671-.06233-.0987-.12466-.15062-.18699-.11946-.15062-.24418-.30131-.36891-.44159-.12987-.15583-.26487-.30651-.41035-.45193-.0363-.04671-.08309-.09356-.12987-.14028-.04151-.04671-.08829-.0987-.14028-.14548-.0935-.0987-.18699-.1922-.28569-.28569-.43638-.42597-.88838-.82604-1.36633-1.20003-.18172-.14548-.36878-.28576-.55577-.42083-.10391-.07268-.20781-.14542-.30651-.21816-.44159-.30131-.89351-.5818-1.36106-.84153-.11432-.06233-.22863-.12473-.34809-.18706-1.06496-.56104-2.19745-1.01297-3.38186-1.3351-.10911-.03117-.22857-.06233-.34282-.08829-.12993-.03637-.2598-.0676-.39487-.0935-.66495-.15062-1.3403-.2598-2.03642-.32733-.12987-.01555-.26494-.02596-.3948-.03637-.41556-.03117-.83639-.04665-1.25722-.04665H16.98218c-.42083,0-.84166.01548-1.25715.04665-.11946.01041-.23384.02082-.35336.03117-.70639.06754-1.40257.17671-2.08313.33254-.12987.02589-.25973.05713-.3896.0935-.0935.02082-.1922.04671-.29083.07268-1.2053.32213-2.35334.77926-3.43391,1.35072-.11946.05713-.23377.11952-.34802.18706-.23904.12987-.46761.26494-.69618.41035-.10384.0624-.21295.12987-.31679.20267-.10918.06747-.21829.14021-.32733.21809-.30137.20261-.59748.42083-.8831.6494-.12987.0987-.24939.1974-.36884.30137-.19226.15056-.37412.31679-.56111.48303-.10905.0987-.21308.19747-.31679.30137-.18706.17138-.36898.35843-.54562.54543-.00507.00521-.01548.01041-.02069.02075-.35857.37405-.69618.76371-1.01831,1.17407-.00507.01034-.01028.01555-.02069.02596-.48309.60782-.91947,1.25201-1.30914,1.92731-.13507.22343-.26494.4572-.38439.69097-.01562.0363-.03637.07268-.05719.10905-.10391.1974-.20254.40001-.29083.60268-.11438.23891-.22343.48309-.31692.72728-.10391.24932-.19747.49871-.28576.74803-.08829.24412-.17144.49351-.24412.74283,0,.01041-.00521.02603-.01041.04158-.07788.24939-.14548.50392-.20775.75844-.0676.2598-.12466.52474-.17151.78967-.05719.27014-.10384.54029-.14028.81043-.03637.23891-.0676.47268-.08822.71173,0,.0363-.00521.07788-.01041.11425-.03644.3896-.0624.7792-.07268,1.17407-.00534.14542-.00534.28569-.00534.43111v363.37412c0,.14548,0,.28576.00534.43117.01028.3948.03624.78447.07268,1.17407.00521.03637.01041.07795.01041.11432.02062.23898.05185.47268.08822.71166.03644.27014.08309.54029.14028.81043.04685.26494.10391.52988.17151.78961.06226.25459.12987.50912.20775.75844.00521.01562.01041.03117.01041.04158.07268.24932.15583.49871.24412.74289.08829.24939.18185.49871.28576.74803.0935.24418.20254.48837.31692.72734.08829.20261.18693.40515.29083.60255.02082.03637.04158.07274.05719.10911.11946.23377.24932.46755.38439.69097.38966.67529.82604,1.31948,1.30914,1.92724.01041.01041.01562.01562.02069.02603.32213.41042.65974.80002,1.01831,1.174.00521.01041.01562.01562.02069.02082.17665.18699.35857.37405.54562.54549.10371.10391.20775.20261.31679.30131.18699.16617.36884.33241.56111.48309.11946.10391.23898.20261.36884.30131.28563.22857.58173.44679.8831.64933.10905.07795.21816.15069.32733.21822.10384.07274.21295.14028.31679.20261.22857.14542.45713.28049.69618.41042.11425.06754.22857.12987.34802.18699,1.08057.57145,2.22861,1.02859,3.43391,1.35065.09864.02603.19734.05199.29083.07274.12987.03637.25973.06754.3896.0935.68056.15583,1.37674.26494,2.08313.33247.11952.01041.2339.02082.35336.03117.41549.03117.83632.04678,1.25715.04678h269.44471c.42083,0,.84166-.01562,1.25722-.04678.12987-.01034.26494-.02075.3948-.03637ZM16.98218,395.62413c-8.42095,0-15.26796-6.84687-15.26796-15.26783V16.98212C1.71422,8.56116,8.56123,1.71435,16.98218,1.71435h269.44471c8.42102,0,15.26796,6.84681,15.26796,15.26776v363.37418c0,8.42095-6.84694,15.26783-15.26796,15.26783H16.98218Z"/><path class="cls-2" d="M303.40914,380.35623V16.98212c0-9.36645-7.621-16.98212-16.98225-16.98212H16.98218C7.62093,0,0,7.61566,0,16.98212v363.37412c0,9.36125,7.62093,16.98218,16.98218,16.98218h269.44471c9.36125,0,16.98225-7.62093,16.98225-16.98218ZM16.98218,397.18259c-.42083,0-.84166-.01562-1.25715-.04678-.11946-.01034-.23384-.02075-.35336-.03117-.70639-.06754-1.40257-.17665-2.08313-.33247-.12987-.02596-.25973-.05713-.3896-.0935-.0935-.02075-.1922-.04671-.29083-.07274-1.2053-.32206-2.35334-.7792-3.43391-1.35065-.11946-.05713-.23377-.11946-.34802-.18699-.23904-.12993-.46761-.265-.69618-.41042-.10384-.06233-.21295-.12987-.31679-.20261-.10918-.06754-.21829-.14028-.32733-.21822-.30137-.20254-.59748-.42076-.8831-.64933-.12987-.0987-.24939-.1974-.36884-.30131-.19226-.15069-.37412-.31692-.56111-.48309-.10905-.0987-.21308-.1974-.31679-.30131-.18706-.17144-.36898-.3585-.54562-.54549-.00507-.00521-.01548-.01041-.02069-.02082-.35857-.37398-.69618-.76358-1.01831-1.174-.00507-.01041-.01028-.01562-.02069-.02603-.48309-.60776-.91947-1.25195-1.30914-1.92724-.13507-.22343-.26494-.4572-.38439-.69097-.01562-.03637-.03637-.07274-.05719-.10911-.10391-.1974-.20254-.39994-.29083-.60255-.11438-.23898-.22343-.48316-.31692-.72734-.10391-.24932-.19747-.49864-.28576-.74803-.08829-.24418-.17144-.49357-.24412-.74289,0-.01041-.00521-.02596-.01041-.04158-.07788-.24932-.14548-.50385-.20775-.75844-.0676-.25973-.12466-.52467-.17151-.78961-.05719-.27014-.10384-.54029-.14028-.81043-.03637-.23898-.0676-.47268-.08822-.71166,0-.03637-.00521-.07795-.01041-.11432-.03644-.3896-.0624-.77926-.07268-1.17407-.00534-.14542-.00534-.28569-.00534-.43117V16.98212c0-.14542,0-.28569.00534-.43111.01028-.39487.03624-.78447.07268-1.17407.00521-.03637.01041-.07795.01041-.11425.02062-.23904.05185-.47282.08822-.71173.03644-.27014.08309-.54029.14028-.81043.04685-.26494.10391-.52988.17151-.78967.06226-.25453.12987-.50905.20775-.75844.00521-.01555.01041-.03117.01041-.04158.07268-.24932.15583-.49871.24412-.74283.08829-.24932.18185-.49871.28576-.74803.0935-.24418.20254-.48837.31692-.72728.08829-.20267.18693-.40528.29083-.60268.02082-.03637.04158-.07274.05719-.10905.11946-.23377.24932-.46755.38439-.69097.38966-.67529.82604-1.31948,1.30914-1.92731.01041-.01041.01562-.01562.02069-.02596.32213-.41035.65974-.80002,1.01831-1.17407.00521-.01034.01562-.01555.02069-.02075.17665-.18699.35857-.37405.54562-.54543.10371-.10391.20775-.20267.31679-.30137.18699-.16624.36884-.33247.56111-.48303.11946-.10397.23898-.20267.36884-.30137.28563-.22857.58173-.44679.8831-.6494.10905-.07788.21816-.15062.32733-.21809.10384-.07281.21295-.14028.31679-.20267.22857-.14542.45713-.28049.69618-.41035.11425-.06754.22857-.12993.34802-.18706,1.08057-.57145,2.22861-1.02859,3.43391-1.35072.09864-.02596.19734-.05185.29083-.07268.12987-.03637.25973-.0676.3896-.0935.68056-.15583,1.37674-.265,2.08313-.33254.11952-.01034.2339-.02075.35336-.03117.41549-.03117.83632-.04665,1.25715-.04665h269.44471c.42083,0,.84166.01548,1.25722.04665.12987.01041.26494.02082.3948.03637.69611.06754,1.37147.17671,2.03642.32733.13507.02589.26494.05713.39487.0935.11425.02596.23371.05713.34282.08829,1.18441.32213,2.31691.77406,3.38186,1.3351.11946.06233.23377.12473.34809.18706.46755.25973.91947.54022,1.36106.84153.0987.07274.20261.14548.30651.21816.18699.13507.37405.27535.55577.42083.47796.37398.92995.77406,1.36633,1.20003.0987.0935.1922.18699.28569.28569.05199.04678.09877.09877.14028.14548.04678.04671.09356.09356.12987.14028.14548.14542.28049.2961.41035.45193.12473.14028.24945.29096.36891.44159.05192.06233.10391.12466.15062.18699.03117.03644.0624.07274.08836.11432.12473.16103.24939.32213.36884.4883.00521.01555.01562.02596.03117.04158.14028.1974.27535.40521.41042.60782.01028.02075.02589.04151.04151.06233.12987.20261.25453.40521.36884.61296.13507.22343.25973.4572.38439.69097.02082.0363.03637.07268.05719.10905.10391.1974.20254.40001.2909.60268.11432.23891.21822.48309.31686.72728.10397.24412.19747.49351.28576.74803.27014.75324.48309,1.5325.63378,2.33252.05719.27014.10384.54029.14028.81043.03637.23891.06754.47268.08822.71173,0,.0363.00521.07788.01041.11425.01562.11946.02603.24412.02603.36884.01562.15062.02596.30124.03117.45193.01562.25973.02082.51947.02082.7844v363.37412c0,.26494-.00521.52474-.02082.78447-.00521.15062-.01555.30124-.03117.45193,0,.12466-.01041.24939-.02603.36884-.00521.03637-.01041.07795-.01041.11432-.02069.23898-.05185.47268-.08822.71166-.03644.27014-.08309.54029-.14028.81043-.15069.80002-.36364,1.57922-.63378,2.33252-.08829.25453-.18179.50392-.28576.74803-.09864.24418-.20254.48837-.31686.72734-.08836.20261-.18699.40515-.2909.60255-.02082.03637-.03637.07274-.05719.10911-.12466.23377-.24932.46755-.38439.69097-.11432.20775-.23898.41035-.36884.61296-.01562.02075-.03123.04158-.04151.06233-.13507.20261-.27014.41042-.41042.60782-.01555.01562-.02596.02596-.03117.04158-.11946.16624-.24412.32727-.36884.4883-.02596.04158-.05719.07795-.08836.11425-.04671.0624-.0987.12473-.15062.18706-.11946.15069-.24418.30131-.36891.44159-.12987.15583-.26487.30645-.41035.45193-.0363.04671-.08309.0935-.12987.14028-.04151.04671-.08829.0987-.14028.14542-.0935.09877-.18699.19226-.28569.28576-.43638.42597-.88838.82598-1.36633,1.20003-.18172.14548-.36878.28576-.55577.42076-.10391.07274-.20781.14548-.30651.21822-.44159.30131-.89351.5818-1.36106.84159-.11432.06233-.22863.12466-.34809.18699-1.06496.56104-2.19745,1.01304-3.38186,1.3351-.10911.03117-.22857.06233-.34282.08829-.12993.03637-.2598.06754-.39487.0935-.66495.15069-1.3403.25973-2.03642.32727-.12987.01562-.26494.02603-.3948.03637-.41556.03117-.83639.04678-1.25722.04678H16.98218Z"/><path class="cls-6" d="M290.78549,380.3563V16.98212c0-2.40328-1.95524-4.35846-4.35859-4.35846H16.98218c-2.40328,0-4.35859,1.95518-4.35859,4.35846v363.37418c0,2.40328,1.95531,4.35853,4.35859,4.35853h269.44471c2.40335,0,4.35859-1.95524,4.35859-4.35853ZM16.98218,384.45509c-2.26011,0-4.09886-1.83875-4.09886-4.0988V16.98212c0-2.25998,1.83875-4.09873,4.09886-4.09873h269.44471c2.26018,0,4.09886,1.83875,4.09886,4.09873v363.37418c0,2.26004-1.83869,4.0988-4.09886,4.0988H16.98218Z"/><path class="cls-11" d="M301.69486,380.3563V16.98212c0-8.42095-6.84694-15.26776-15.26796-15.26776H16.98218C8.56123,1.71435,1.71422,8.56116,1.71422,16.98212v363.37418c0,8.42095,6.84701,15.26783,15.26796,15.26783h269.44471c8.42102,0,15.26796-6.84687,15.26796-15.26783ZM16.98218,384.71483c-2.40328,0-4.35859-1.95524-4.35859-4.35853V16.98212c0-2.40328,1.95531-4.35846,4.35859-4.35846h269.44471c2.40335,0,4.35859,1.95518,4.35859,4.35846v363.37418c0,2.40328-1.95524,4.35853-4.35859,4.35853H16.98218Z"/><path class="cls-10" d="M.17658,16.19771c.01041-.18179.02075-.36364.03637-.54543.00521-.09356.01041-.18185.02082-.27535.00521-.03637.01041-.07795.01041-.11425.02596-.23904.05706-.47796.08822-.71173.04164-.27535.08842-.54029.14028-.81043.05192-.26494.10911-.52988.17151-.78967.06747-.25453.13507-.50905.20775-.75844.00521-.01555.01041-.03117.01041-.04158.07795-.24932.16103-.49871.24412-.74283.08829-.25453.18185-.50392.28576-.74803.09864-.24418.20254-.48837.31692-.72728.0935-.20267.19213-.40528.29083-.60268.02082-.03637.04158-.07274.05719-.10905.12466-.23377.24932-.46755.38439-.69097.39487-.67529.83112-1.31948,1.30914-1.92731.01041-.01041.01562-.01562.02069-.02596.32213-.40515.66508-.80002,1.01831-1.17407.00521-.01034.01562-.01555.02069-.02075.17665-.18699.35857-.36891.54562-.54543.10371-.10391.20775-.20267.31679-.30137.18192-.16103.36884-.32727.56111-.48303.11946-.10397.23898-.20267.36884-.30137.28563-.22336.58173-.44159.8831-.6494.10905-.07268.21816-.14542.32733-.21809.10384-.0676.21295-.13507.31679-.20267.22857-.14542.45713-.28049.69618-.41035.11425-.06233.23377-.12473.34802-.18706,1.08057-.57145,2.22861-1.02859,3.43391-1.35072.09343-.02596.19213-.05185.29083-.07268.12987-.03637.25973-.0676.3896-.0935.68056-.15583,1.37674-.265,2.08313-.33254.11952-.01034.2339-.02075.35336-.03117.41549-.03117.83632-.04665,1.25715-.04665h269.44471c.42083,0,.84166.01548,1.25722.04665.12987.01041.26494.02082.3948.03637.69611.06754,1.37147.17671,2.03642.32733.13507.02589.26494.05713.39487.0935.11425.02596.23371.05713.34282.08829,1.18441.32213,2.31691.77406,3.38186,1.3351.11946.06233.23377.12473.34809.18706.46755.25973.91947.54022,1.36106.84153.0987.07274.20261.14548.30651.21816.18699.13507.37405.27535.55577.42083.47796.37398.92995.77406,1.36633,1.20003.0987.0935.1922.18699.28569.28569.05199.04678.09877.09877.14028.14548.04678.04671.09356.09356.12987.14028.14548.14542.28049.2961.41035.45193.12473.14028.24945.29096.36891.44159.05192.06233.10391.12466.15062.18699.03117.03644.0624.07274.08836.11432.12473.16103.24939.32213.36884.4883.00521.01555.01562.02596.03117.04158.14028.1974.27535.40521.41042.60782.01028.02075.02589.04151.04151.06233.12466.20261.24932.40521.36884.61296.13507.22343.25973.4572.38439.69097.02082.0363.03637.07268.05719.10905.0987.1974.19734.40001.2909.60268.11432.23891.21822.48309.31686.72728.10397.24412.19747.49351.28576.74803.26494.75324.47789,1.5325.63378,2.33252.05199.27014.09864.53508.14028.81043.03117.23377.06233.47268.08822.71173,0,.0363.00521.07788.01041.11425.01562.11946.02603.24412.02603.36884-.00521-.0987-.01562-.19747-.02603-.2961-.02589-.24939-.05706-.49871-.09343-.74283-.01562-.11959-.03644-.23904-.06233-.35329-.02082-.15069-.04678-.2961-.07795-.44159-.04158-.22336-.0935-.44159-.15069-.65454-.05706-.23384-.11946-.46755-.19213-.69618-.05719-.19213-.11959-.37919-.18712-.56625-.13507-.40001-.28569-.79475-.46227-1.174-.04678-.11952-.10391-.23898-.16103-.35329-.08315-.18179-.17151-.36364-.265-.54022-.01034-.01562-.01555-.03117-.02596-.04678-.10911-.20261-.21816-.40001-.33241-.59741-.00521-.01041-.01041-.02082-.01562-.02603-.08315-.14021-.1663-.28049-.25453-.41556-.07274-.11946-.15069-.23891-.22863-.35323-.01555-.02596-.03637-.05199-.05713-.07795-.12466-.18699-.25973-.37405-.3948-.55584-.12993-.17665-.265-.35329-.41042-.52467-.02596-.04158-.05713-.07795-.0935-.10918-.12987-.17138-.27535-.33761-.43124-.49871-.16097-.18179-.33241-.35837-.50385-.52988-.14548-.15062-.30131-.30124-.46234-.44666-.04158-.03644-.08315-.07801-.12987-.11952-.16103-.14021-.32733-.28049-.49351-.42076-.18706-.1611-.37925-.31178-.57666-.45206-.15589-.11946-.31172-.23371-.47275-.33761-.07795-.06233-.16103-.11425-.24418-.17144-.0987-.06747-.20261-.13507-.31165-.19734-.09877-.0676-.1974-.12993-.30137-.18712-.20254-.11946-.40521-.23891-.61296-.34802-.12466-.06754-.25453-.13507-.38439-.1974-.30137-.15062-.61303-.29604-.92989-.4259-.0987-.04164-.20261-.08322-.30651-.12479-.15589-.06233-.31165-.11946-.47275-.17658-.20261-.07274-.41042-.14028-.61817-.20261-.20781-.06754-.42083-.12466-.63378-.18179-.01041-.00521-.02075-.00521-.03117-.00521-.23377-.06233-.46755-.11952-.70138-.1663-.01555,0-.02596-.00521-.0363-.00521-.17665-.0363-.35329-.07268-.52988-.09343-.82604-.14548-1.67278-.21816-2.5404-.21816H15.42372c-.30137,0-.60782.01034-.90393.0311-.1611.00521-.32213.01555-.47802.03117-.13494.01041-.27014.02596-.40508.04678-.0676.00521-.12987.01562-.19226.02082-.18192.02075-.35843.04665-.53515.08309-.02596.00521-.04678.00521-.07268.01034-.10905.01562-.21809.03644-.32733.05719-.05185.01034-.10384.02075-.15583.0311-.02069.00521-.0363.01041-.05713.01041-.16103.03123-.31679.0676-.47789.10911-.0676.01555-.13507.03117-.20267.05199-.2233.05713-.44666.11946-.66495.18699-.21816.06754-.43631.13507-.64419.21302-.01034.00521-.01542.00521-.02583.01041-.10924.0363-.21308.07268-.31699.11946-.01555.00521-.02596.01041-.04158.01562-.11946.04151-.23371.08822-.34802.13507-.01041.00521-.01562.00521-.02596.01041-.31686.13501-.62337.27528-.92475.4259-.12987.06233-.25453.12987-.38439.1974-.20775.10911-.41042.22857-.61296.34802-.10391.05719-.20254.11952-.30137.18712-.10384.06226-.20775.12987-.31159.19734-.08322.05199-.1663.10911-.24431.17144-.1609.10391-.31679.21816-.47268.33761-.19734.14028-.3896.29096-.57666.45206-.14535.11425-.29083.23891-.43111.36878-.02082.01562-.04164.03644-.06226.05199-.04685.04151-.08842.08309-.12987.11952-.01575.01555-.03123.0311-.04685.04144-.14028.13507-.28055.27014-.41562.40521-.14028.13507-.27014.27014-.3948.40521-.00521.01041-.01562.02082-.02596.03123-.05713.05713-.11432.11946-.16617.18699-.11946.12466-.2287.25453-.33254.38439-.03644.04158-.07281.08315-.10911.12993-.14021.17138-.28049.34288-.41042.52467-.10384.12987-.19734.25973-.28569.3948-.01041.01034-.02069.02596-.0311.04158-.07281.10384-.14561.20775-.21308.31172-.11425.17652-.23371.35843-.34282.54543-.00521.01041-.01041.02075-.02075.03117-.07268.12466-.14548.24932-.21295.37919-.04164.0676-.08322.14028-.11952.21308-.07281.13501-.14555.27008-.20788.40515-.09343.17658-.18172.3637-.25973.55063-.06226.13507-.12466.27014-.18172.40521-.02082.05199-.04158.09877-.0624.15069-.05706.14548-.11432.2909-.1663.44152-.03637.08836-.06747.18185-.09864.27535-.00521.02075-.01562.03637-.02082.05713-.05719.1663-.10905.33254-.16097.50392-.05719.17665-.10918.3585-.15062.54029-.01041.02603-.01562.04678-.02082.07274-.01562.06233-.03123.12466-.04678.18699-.04685.17151-.08309.34802-.11952.52474,0,.01041-.00521.01555-.00521.02596-.03117.14548-.05706.2909-.07788.44159-.02596.11425-.04678.23371-.0624.35329-.03624.24412-.06747.49344-.09343.74283-.02603.24412-.04678.49871-.05719.74803Z"/><path class="cls-8" d="M286.4269,397.18259H16.98218c-.42083,0-.84166-.01562-1.25715-.04678-.11946-.01034-.23384-.02075-.35336-.03117-.70639-.06754-1.40257-.17665-2.08313-.33247-.12987-.02596-.25973-.05713-.3896-.0935-.0987-.02075-.1974-.04671-.29083-.07274-1.2053-.32206-2.35334-.7792-3.43391-1.35065-.11425-.06233-.23377-.12466-.34802-.18699-.23904-.12993-.46761-.265-.69618-.41042-.10384-.06754-.21295-.13507-.31679-.20261-.10918-.07274-.21829-.14548-.32733-.21822-.30137-.20775-.59748-.42597-.8831-.64933-.12987-.0987-.24939-.1974-.36884-.30131-.19226-.15589-.37919-.32206-.56111-.48309-.10905-.0987-.21308-.1974-.31679-.30131-.18706-.17665-.36898-.3585-.54562-.54549-.00507-.00521-.01548-.01041-.02069-.02082-.35323-.37398-.69618-.76879-1.01831-1.174-.00507-.01041-.01028-.01562-.02069-.02603-.47802-.60776-.91427-1.25195-1.30914-1.92724-.13507-.22343-.25973-.4572-.38439-.69097-.01562-.03637-.03637-.07274-.05719-.10911-.0987-.1974-.19734-.39994-.29083-.60255-.11438-.23898-.21829-.48316-.31692-.72734-.10391-.24412-.19747-.49351-.28576-.74803-.08309-.24418-.16617-.49357-.24412-.74289,0-.01041-.00521-.02596-.01041-.04158-.07268-.24932-.14028-.50385-.20775-.75844-.0624-.25973-.11959-.52467-.17151-.78961-.05185-.27014-.09864-.53508-.14028-.81043-.03117-.23377-.06226-.47268-.08822-.71166,0-.03637-.00521-.07795-.01041-.11432-.01041-.0935-.01562-.18185-.02082-.27535.00521.06754.01562.13507.02082.20261.02075.24939.05185.49871.09343.74289.01562.11946.03644.23898.0624.35323.02082.15069.04671.29617.07788.44159.05205.24939.10911.49351.17151.73769.05185.20781.10905.41562.17144.61303.05192.17138.10377.33761.16097.50385.10905.31692.22336.62344.34816.92475.05706.13507.11946.27008.18172.40515.07801.18706.1663.37405.25973.5507.0676.13507.13507.27014.20788.40521.0363.07274.07788.14542.11952.21295.07268.14028.15062.27535.23371.41042.10911.18699.22857.36884.34282.54549.06747.10391.14028.20775.21308.31165.0987.15069.20775.2961.31679.43638.12993.17665.265.35329.41042.52474.0363.04671.07268.08829.10911.12987.10384.12987.21308.25973.33254.38439.05185.06754.10905.12987.16617.18699.13507.15069.27014.29617.42076.43638.14548.15069.30137.30131.46247.44679.04144.03637.08302.07788.12987.11946.1609.14028.3272.28055.49337.42083.18706.16103.37932.31165.57666.45193.15589.11952.31178.23377.47268.33768.07801.06233.1611.11946.24431.17144.10384.06747.20775.13507.31159.1974.09883.06754.19747.12987.30137.18699.20254.11952.40521.23898.61296.34809.12987.06754.25453.13507.38439.1974.30137.15062.60789.2909.92475.42597.12466.05192.24932.0987.37398.14548.12466.05192.25453.0987.38439.14542.20788.07795.42604.14548.64419.21302.21829.06754.44165.12987.66495.18706.23898.06747.4883.11946.73769.17138.18185.04158.36891.07274.55584.0987.81563.14028,1.65729.21302,2.51444.21302h272.56164c.86762,0,1.71435-.07274,2.5404-.21822.17658-.02075.35323-.05713.52988-.0935.01034,0,.02075-.00521.0363-.00521.23384-.04671.46761-.10384.70138-.16617.01041,0,.02075,0,.03117-.00521.21295-.05719.42597-.11432.63378-.18185.20775-.06233.41556-.12987.61817-.20261.1611-.05713.31686-.11432.47275-.17665.10391-.04158.20781-.08309.30651-.12466.31686-.12987.62851-.27535.92989-.42597.12987-.06233.25973-.12987.38439-.1974.20775-.10911.41042-.22857.61296-.34809.10397-.05713.20261-.11946.30137-.18699.10905-.06233.21295-.12993.31165-.1974.08315-.05719.16624-.10911.24418-.17144.16103-.10391.31686-.21816.47275-.33768.1974-.14028.3896-.2909.57666-.45193.16617-.14028.33247-.28055.49351-.42083.04671-.04158.08829-.08309.12987-.11946.16103-.14548.31686-.2961.46234-.44679.17144-.17144.34288-.34802.50385-.52988.15589-.16103.30137-.32727.43124-.49871.03637-.03117.06754-.06754.0935-.10905.14542-.17144.28049-.34809.41042-.52474.13507-.18185.27014-.36884.3948-.55584.02075-.02596.04158-.05199.05713-.07795.07795-.11425.15589-.23377.22863-.35323.08822-.13507.17138-.27535.25453-.41562.00521-.00521.01041-.01555.01562-.02596.11425-.1974.2233-.3948.33241-.59741.01041-.01555.01562-.03117.02596-.04671.0935-.17665.18185-.3585.265-.54029.05713-.11432.11425-.23384.16103-.35329.17658-.37919.3272-.77406.46227-1.17407.06754-.18699.12993-.37398.18712-.56618.07268-.22863.13507-.46241.19213-.69618.05719-.21295.10911-.43117.15069-.65454.03117-.14542.05713-.2909.07795-.44159.02589-.11425.04671-.23377.06233-.35323.03637-.24418.06754-.49351.09343-.74289.01041-.0987.02082-.1974.02603-.2961,0,.12466-.01041.24939-.02603.36884-.00521.03637-.01041.07795-.01041.11432-.02589.23898-.05706.47789-.08822.71166-.04164.27535-.08829.54029-.14028.81043-.15589.80002-.36884,1.57922-.63378,2.33252-.08829.25453-.18179.50392-.28576.74803-.09864.24418-.20254.48837-.31686.72734-.09356.20261-.1922.40515-.2909.60255-.02082.03637-.03637.07274-.05719.10911-.12466.23377-.24932.46755-.38439.69097-.11952.20775-.24418.41035-.36884.61296-.01562.02075-.03123.04158-.04151.06233-.13507.20261-.27014.41042-.41042.60782-.01555.01562-.02596.02596-.03117.04158-.11946.16624-.24412.32727-.36884.4883-.02596.04158-.05719.07795-.08836.11425-.04671.0624-.0987.12473-.15062.18706-.11946.15069-.24418.30131-.36891.44159-.12987.15583-.26487.30645-.41035.45193-.0363.04671-.08309.0935-.12987.14028-.04151.04671-.08829.0987-.14028.14542-.0935.09877-.18699.19226-.28569.28576-.43638.42597-.88838.82598-1.36633,1.20003-.18172.14548-.36878.28576-.55577.42076-.10391.07274-.20781.14548-.30651.21822-.44159.30131-.89351.5818-1.36106.84159-.11432.06233-.22863.12466-.34809.18699-1.06496.56104-2.19745,1.01304-3.38186,1.3351-.10911.03117-.22857.06233-.34282.08829-.12993.03637-.2598.06754-.39487.0935-.66495.15069-1.3403.25973-2.03642.32727-.12987.01562-.26494.02603-.3948.03637-.41556.03117-.83639.04678-1.25722.04678Z"/><path class="cls-7" d="M287.98536,395.62413h-1.55846c8.42102,0,15.26796-6.84687,15.26796-15.26789V16.98212c0-8.42089-6.84694-15.26776-15.26796-15.26776h1.55846c.86762,0,1.71435.07268,2.5404.21816.17658.02075.35323.05713.52988.09343.01034,0,.02075.00521.0363.00521.23384.04678.46761.10397.70138.1663.01041,0,.02075,0,.03117.00521.21295.05713.42597.11425.63378.18179.20775.06233.41556.12987.61817.20261.1611.05713.31686.11425.47275.17658.10391.04158.20781.08315.30651.12479.31686.12987.62851.27528.92989.4259.12987.06233.25973.12987.38439.1974.20775.10911.41042.22857.61296.34802.10397.05719.20261.11952.30137.18712.10905.06226.21295.12987.31165.19734.08315.05199.16624.10911.24418.17144.16103.10391.31686.21816.47275.33761.1974.14548.3896.29617.57666.45206.16617.14028.33247.28055.49351.42076.04671.04151.08829.08309.12987.11952.15583.14542.31165.29604.46234.44666.17144.17151.34288.34809.50385.52988.15069.1611.29096.32733.43124.49871.03637.03123.06754.0676.0935.10918.14028.17138.27535.34288.41042.52467s.27014.36884.3948.55584c.02075.02596.04158.05199.05713.07795.07795.11432.15589.23377.22863.35323.08822.13507.17138.27535.25453.41556.00521.00521.01041.01562.01562.02603.11425.1974.2233.3948.33241.59741.01041.01562.01562.03117.02596.04678.0935.17658.18185.35843.265.54022.05713.11432.11425.23377.16103.35329.17658.37925.3272.77399.46227,1.174.06754.18706.12993.37412.18712.56625.06747.22863.13507.46234.19213.69618.05719.21295.10911.43117.15069.65454.03117.14548.05713.2909.07795.44159.02589.11425.04671.23371.06233.35329.03637.24412.06754.49344.09343.74283.01041.09864.02082.1974.02603.2961.01562.15062.02596.30124.03117.45193.01562.25973.02082.51947.02082.7844v363.37412c0,.26494-.00521.52474-.02082.78447-.00521.15062-.01555.30124-.03117.45193-.00521.0987-.01562.1974-.02603.2961-.02589.24939-.05706.49871-.09343.74289-.01562.11946-.03644.23898-.06233.35323-.02082.15069-.04678.29617-.07795.44159-.04158.22336-.0935.44159-.15069.65454-.05706.23377-.12466.46755-.19213.69618-.05719.1922-.11959.37919-.18712.56618-.13507.40001-.28569.79488-.46227,1.17407-.04678.11946-.10391.23898-.16103.35329-.08315.18179-.17151.36364-.265.54029-.01034.01555-.01555.03117-.02596.04671-.10911.20261-.21816.40001-.33241.59741-.00521.01041-.01041.02075-.01562.02596-.08315.14028-.1663.28055-.25453.41562-.07274.11946-.15069.23898-.22863.35323-.01555.02596-.03637.05199-.05713.07795-.12466.18699-.25973.37398-.3948.55584s-.27014.35329-.41042.52474c-.02596.04151-.05713.07788-.0935.10905-.14028.17144-.28055.33768-.43124.49871-.16097.18185-.33241.35843-.50385.52988-.15069.15069-.30651.30131-.46234.44679-.04158.03637-.08315.07788-.12987.11946-.16103.14028-.32733.28055-.49351.42083-.18706.15583-.37925.30651-.57666.45193-.15589.11952-.31172.23377-.47275.33768-.07795.06233-.16103.11946-.24418.17144-.0987.06747-.20261.13507-.31165.1974-.09877.06754-.1974.12987-.30137.18699-.20254.11952-.40521.23898-.61296.34809-.12466.06754-.25453.13507-.38439.1974-.30137.15062-.61303.2961-.92989.42597-.0987.04158-.20261.08309-.30651.12466-.15589.06233-.31165.11952-.47275.17665-.20261.07274-.41042.14028-.61817.20261-.20781.06754-.42083.12466-.63378.18185-.01041.00521-.02075.00521-.03117.00521-.23377.06233-.46755.11946-.70138.16617-.01555,0-.02596.00521-.0363.00521-.17665.03637-.35329.07274-.52988.0935-.82604.14548-1.67278.21822-2.5404.21822Z"/><path class="cls-9" d="M16.98218,395.62413h-1.55846c-.85714,0-1.6988-.07274-2.51444-.21302-.18693-.02596-.37398-.05713-.55584-.0987-.24939-.05192-.49871-.10391-.73769-.17138-.2233-.05719-.44666-.11952-.66495-.18706-.21816-.06754-.43631-.13507-.64419-.21302-.12987-.04671-.25973-.0935-.38439-.14542-.12466-.04678-.24932-.09356-.37398-.14548-.31686-.13507-.62337-.27535-.92475-.42597-.12987-.06233-.25453-.12987-.38439-.1974-.20775-.10911-.41042-.22857-.61296-.34809-.10391-.05713-.20254-.11946-.30137-.18699-.10384-.06233-.20775-.12993-.31159-.1974-.08322-.05199-.1663-.10911-.24431-.17144-.1609-.10391-.31679-.21816-.47268-.33768-.19734-.14542-.3896-.2961-.57666-.45193-.16617-.14028-.33247-.28055-.49337-.42083-.04685-.04158-.08842-.08309-.12987-.11946-.15602-.14548-.31178-.2961-.46247-.44679-.14028-.14021-.28049-.28569-.42076-.43638-.05713-.05713-.11432-.11946-.16617-.18699-.11438-.12466-.22349-.25453-.33254-.38439-.03644-.04158-.07281-.08315-.10911-.12987-.14021-.17144-.28049-.34288-.41042-.52474-.10905-.14028-.21289-.28569-.31679-.43638-.07281-.10391-.14561-.20775-.21308-.31165-.11425-.17665-.23371-.3585-.34282-.54549-.08309-.13507-.16103-.27014-.23371-.41042-.04164-.06754-.08322-.14021-.11952-.21295-.07281-.13507-.14028-.27014-.20788-.40521-.09343-.17665-.18172-.36364-.25973-.5507-.06226-.13507-.12466-.27008-.18172-.40515-.12479-.30131-.23911-.60782-.34816-.92475-.05719-.16624-.10905-.33247-.16097-.50385-.0624-.1974-.11959-.40521-.17144-.61303-.0624-.24418-.11946-.4883-.17151-.73769-.03117-.14542-.05706-.2909-.07788-.44159-.02596-.11425-.04678-.23377-.0624-.35323-.03624-.24418-.06747-.49351-.09343-.74289-.00521-.06754-.01562-.13507-.02082-.20261-.01562-.18179-.02596-.36364-.03637-.54543-.00521-.11952-.01041-.23377-.01548-.35329-.00534-.14542-.00534-.28569-.00534-.43117V16.98212c0-.14542,0-.28569.00534-.43111.00507-.11952.01028-.23384.01548-.35329.01041-.18179.02075-.36364.03637-.54543.00521-.06754.01562-.13507.02082-.20261.02596-.24939.05719-.49871.09343-.74283.01562-.11959.03644-.23904.0624-.35329.02082-.15069.04671-.2961.07788-.44159,0-.01041.00521-.01555.00521-.02596.03644-.17671.07268-.35323.11952-.52474.01555-.06233.03117-.12466.04678-.18699.00521-.02596.01041-.04671.02082-.07274.04144-.18179.09343-.36364.15062-.54029.05192-.17138.10377-.33761.16097-.50392.00521-.02075.01562-.03637.02082-.05713.03117-.0935.06226-.18699.09864-.27535.05199-.15062.10924-.29604.1663-.44152.02082-.05192.04158-.0987.0624-.15069.05706-.13507.11946-.27014.18172-.40521.07801-.18693.1663-.37405.25973-.55063.06233-.13507.13507-.27014.20788-.40515.0363-.07281.07788-.14548.11952-.21308.06747-.12987.14028-.25453.21295-.37919.01034-.01041.01555-.02075.02075-.03117.10911-.18699.22857-.36891.34282-.54543.06747-.10397.14028-.20788.21308-.31172.01041-.01562.02069-.03123.0311-.04158.09343-.13507.18706-.27014.28569-.3948.12993-.18179.27021-.35329.41042-.52467.0363-.04678.07268-.08836.10911-.12993.10905-.12987.21816-.25973.33254-.38439.05185-.06754.10905-.12987.16617-.18699.01034-.01041.02075-.02082.02596-.03123.13507-.14028.26494-.27535.3948-.40521.13507-.13507.27535-.27014.41562-.40521.01562-.01034.0311-.02589.04685-.04144.04144-.03644.08302-.07801.12987-.11952.02062-.01555.04144-.03637.06226-.05199.14028-.12466.28576-.24412.43111-.36878.18706-.15589.37932-.30658.57666-.45206.15589-.11946.31178-.23371.47268-.33761.07801-.06233.1611-.11946.24431-.17144.10384-.06747.20775-.13507.31159-.19734.09883-.0676.19747-.12993.30137-.18712.20254-.11946.40521-.23891.61296-.34802.12987-.06754.25453-.13507.38439-.1974.30137-.15062.60789-.2909.92475-.4259.01034-.00521.01555-.00521.02596-.01041.11432-.04685.23377-.09356.34802-.13507.01562-.00521.02603-.01041.04158-.01562.10391-.04678.20775-.08315.31699-.11946.01041-.00521.01548-.00521.02583-.01041.20788-.07795.42604-.14548.64419-.21302.21829-.06754.44165-.12987.66495-.18699.0676-.02082.13507-.03644.20267-.05199.1611-.04151.31686-.07788.47789-.10911.02082,0,.03644-.00521.05713-.01041.05199-.01034.10397-.02075.15583-.0311.10924-.02075.21829-.04158.32733-.05719.02589-.00514.04671-.00514.07268-.01034.17671-.03123.35323-.05719.53515-.08309.0624-.00521.12466-.01562.19226-.02082.13494-.02082.27014-.03117.40508-.04678.15589-.01562.31692-.02596.47802-.03117.2961-.02075.60255-.0311.90393-.0311h1.55846C8.56123,1.71435,1.71422,8.56123,1.71422,16.98212v363.37412c0,8.42102,6.84701,15.26789,15.26796,15.26789Z"/></svg>