<?xml version="1.0" encoding="UTF-8"?><svg id="Camada_2" xmlns="http://www.w3.org/2000/svg" viewBox="0 0 555.04999 484.10986"><defs><style>.cls-1{fill:none;}.cls-2{opacity:.08;}</style></defs><g id="Camada_1-2"><g class="cls-2"><path class="cls-1" d="M477.57001,13.84998c-.65997-.97998-1.34998-1.92004-2.10999-2.80994-.53003-.64001-1.09003-1.26001-1.66998-1.86011-2.58002-3.10986-5.20001-6.16992-7.88-9.17993h-35c8.28998,8.13,16.19995,16.73999,23.69,25.81006.29999.36987.62.70996.95996,1.04993.34003.32996.65002.71008.94,1.17004.26001.41992.54004.81995.85004,1.19995,6.46997,8.03003,12.5,16.30005,18.10999,24.76001,35.57001,53.6001,54.20996,115.44995,54.20996,180.61011,0,64.09985-19.06995,127.13989-54.20996,180.47998-5.64001,8.59985-11.72003,16.93994-18.19,25-.29999.35986-.57001.72998-.82001,1.12988-.38.6001-.70001.95996-.89001,1.14014-.33997.31982-.65997.67993-.95996,1.02979-12.25,14.84009-25.63,28.4502-39.96002,40.72998h37.28998c7.61005-7.6499,14.90002-15.68994,21.86005-24.08984.57996-.59009,1.13995-1.22998,1.66998-1.87988.70001-.83008,1.34998-1.7002,1.96997-2.64014,50.06-62.47998,77.62-140.90991,77.62-220.8999,0-79.92017-27.51996-158.27002-77.47998-220.75012Z"/><path d="M308.73004,398.48999c-15.25,32.44995-33.03003,61.42993-49.93005,85.61011h-115.29999c-16.89996-24.18018-34.67999-53.16016-49.90997-85.61011,36.39996-9.73999,72.33997-14.68994,107.56-14.68994s71.15997,4.94995,107.58002,14.68994Z"/><path d="M201.1531,345.75215c-40.23301,0-81.16127,5.81035-122.51798,17.32415-12.75992-34.01902-21.89373-70.91474-24.21702-109.44835h293.46996c-2.32188,38.53361-11.45569,75.42932-24.21702,109.44835-41.35529-11.5138-82.28384-17.32415-122.51794-17.32415Z"/><path d="M42.38,374.6001c-14.09998,5.02002-28.21997,10.69995-42.38,17.04004v-138.01025h16.31c2.32001,42.78027,12.19,83.55005,26.07001,120.97021Z"/><path d="M42.38,94.60986c-13.88,37.42017-23.75,78.18018-26.07001,120.97021H0V77.56006c14.16003,6.33984,28.28003,12.03003,42.38,17.0498Z"/><path d="M308.73004,70.71997c-36.42004,9.71997-72.36005,14.67017-107.58002,14.67017s-71.16003-4.9502-107.56-14.67017c12.21997-26.03003,26.08997-49.83997,39.82001-70.71997h135.48999c13.73999,20.88,27.59998,44.68994,39.83002,70.71997Z"/><path d="M201.1531,123.45133c40.23157,0,81.15983-5.81035,122.51794-17.32415,12.76133,34.01902,21.89514,70.91474,24.21702,109.44806H54.4181c2.32329-38.53333,11.4571-75.42904,24.21845-109.44806,41.35669,11.5138,82.28495,17.32415,122.51655,17.32415Z"/><path d="M503.69368,215.57524h-117.70045c-2.3137-42.78616-12.18565-83.55055-26.06249-120.96976,28.54148-10.18475,57.24827-23.05213,86.03798-38.57902,33.14691,45.32043,54.0258,100.14079,57.72496,159.54878Z"/><path d="M385.99323,253.62795h117.70045c-3.69916,59.40799-24.57805,114.22722-57.72496,159.54906-28.78971-15.52689-57.4965-28.39568-86.03546-38.57902,13.87432-37.42062,23.74627-78.18359,26.05998-120.97004Z"/><path d="M421.04999,26.14001c-11.73999,6.15002-23.45996,11.82996-35.13995,17.02002-13.56,6.04993-27.08002,11.44006-40.55005,16.19983-9.73999-21.27979-20.50995-41.15991-31.5-59.35986h79.07001c9.91003,8.10999,19.30005,16.84009,28.12,26.14001Z"/><path d="M88.46002,0c-11,18.19995-21.76001,38.08008-31.5,59.35986-18.89001-6.66992-37.88-14.59985-56.96002-23.7998v-8.32007C0,12.19995,10.70001,0,23.91003,0h64.54999Z"/><path d="M97.73999,484.1001H29.15002c-10.04999-6.9502-19.66998-14.49023-28.79004-22.57007v-.01001c-.23999-1.52002-.35999-3.07007-.35999-4.66016v-23.21973c19.07001-9.2002,38.07001-17.13013,56.95001-23.79004,12.46997,27.23999,26.62,52.19995,40.78998,74.25Z"/><path d="M421.04999,443.07007c-10.87,11.45996-22.62,22.07007-35.13995,31.70996-4.17004,3.21997-8.42004,6.32983-12.76001,9.32007h-68.58002c14.16003-22.05005,28.32001-47.01001,40.78003-74.25,13.46997,4.75,26.98999,10.1499,40.56,16.19995,11.67999,5.18994,23.39996,10.86987,35.13995,17.02002Z"/></g></g></svg>