<?xml version="1.0" encoding="UTF-8"?><svg id="Camada_1" xmlns="http://www.w3.org/2000/svg" viewBox="0 0 306.19737 146.73613"><defs><style>.cls-1{fill:#e6f4fc;}.cls-2{fill:#afdaf6;}.cls-3{fill:#fcfdfd;}</style></defs><path class="cls-1" d="M306.19737,89.65657c0,13.12405-10.63802,23.76207-23.76201,23.76207-3.26802,0-6.38589-.66307-9.21888-1.85937-1.96811,1.18592-4.22628,1.85937-6.62936,1.85937-2.93661,0-5.66085-1.00485-7.90341-2.71906-1.80234,13.57457-13.42442,24.04164-27.49623,24.04164-7.96031,0-15.1335-3.35103-20.18837-8.72176-4.2106,7.1058-11.96386,11.87579-20.83059,11.87579-10.47744,0-19.40631-6.66552-22.7624-15.98802-5.45886,14.50685-19.46334,24.82889-35.88127,24.82889-15.24743,0-28.41289-8.90295-34.58648-21.79384-6.31856,7.44758-15.74979,12.17609-26.28426,12.17609-13.30524,0-24.84444-7.53558-30.5933-18.57241-2.82787.84414-5.82656,1.29998-8.92894,1.29998-12.96859,0-24.08824-7.92933-28.76504-19.21475-.13985-.32623-.26933-.65776-.39362-.99436-1.27405-3.39756-1.97323-7.08-1.97323-10.9229,0-17.1948,13.94227-31.13707,31.13189-31.13707,4.11229,0,8.03807.79749,11.63245,2.24768,4.41266-12.45061,16.29888-21.36924,30.26189-21.36924,6.10107,0,11.80846,1.70397,16.6717,4.66125,8.82532-18.6761,27.83283-31.5929,49.85983-31.5929,5.74368,0,11.28024.88056,16.48532,2.50676,7.9966-8.62844,19.43217-14.0304,32.13149-14.0304,23.64808,0,42.92492,18.73312,43.7898,42.16884.69405-.05703,1.39841-.08813,2.10796-.08813,11.44594,0,21.15687,7.42697,24.57511,17.72321,6.46359.66282,12.24362,3.30425,16.55259,7.21973,2.28409-.73034,4.71309-1.12384,7.23534-1.12384,3.65127,0,7.11098.82341,10.20299,2.29433,7.73246,3.68232,13.1654,11.42008,13.53828,20.46288.01555.33141.02074.66282.02074.99954Z"/><path class="cls-3" d="M299.42817,78.75959c-6.1476-5.15324-13.80242-3.51149-16.61992-2.04056-2.8175,1.46562-2.35648-1.33108-5.97153-.87006-3.61505.46089-1.80234,5.02895-6.68638,5.46392-4.87873.4351-8.40577-17.47968-21.75249-12.55947-7.79979,2.87446-3.61505,9.89226-2.58958,13.54878.73034,2.60501-2.39789,2.51182-2.39789,2.51182,0,0-.66813-1.63657-1.83344-5.55723-1.05657-3.5632-4.87355-9.28621-9.05835-13.78169-8.79421-9.45198-27.96749-1.65731-23.82416-6.58282,4.14333-4.92526,14.79172-3.83253,14.79172-3.83253,0,0-.42473-25.62131-22.27559-33.89242-21.85611-8.27111-40.7031,9.78339-40.7031,9.78339,6.19944.71479,8.19866,7.64964,8.19866,7.64964,0,0-11.75668-9.95434-35.10958-2.07685-23.3529,7.8828-14.47056,36.02112-21.15687,36.00556-6.6915-.01555-17.25695-31.39085-42.70225-24.74088-25.43999,6.65009-18.84174,34.28086-26.77626,34.01684-7.93452-.26427-1.03583-18.48972-1.03583-18.48972C7.73764,64.58934,2.33581,86.663,2.36685,100.63119c-.13985-.32623-.26933-.65776-.39362-.99436-1.27405-3.39756-1.97323-7.08-1.97323-10.9229,0-17.1948,13.94227-31.13707,31.13189-31.13707,4.11229,0,8.03807.79749,11.63245,2.24768,4.41266-12.45061,16.29888-21.36924,30.26189-21.36924,6.10107,0,11.80846,1.70397,16.6717,4.66125,8.82532-18.6761,27.83283-31.5929,49.85983-31.5929,5.74368,0,11.28024.88056,16.48532,2.50676,7.9966-8.62844,19.43217-14.0304,32.13149-14.0304,23.64808,0,42.92492,18.73312,43.7898,42.16884.69405-.05703,1.39841-.08813,2.10796-.08813,11.44594,0,21.15687,7.42697,24.57511,17.72321,6.46359.66282,12.24362,3.30425,16.55259,7.21973,2.28409-.73034,4.71309-1.12384,7.23534-1.12384,3.65127,0,7.11098.82341,10.20299,2.29433.31067.65764.56963,1.10829.77169,1.33614,4.69747,5.28791,6.01812,9.22931,6.01812,9.22931Z"/><path class="cls-2" d="M306.19737,89.65657c0,13.12405-10.63802,23.76207-23.76201,23.76207-3.26802,0-6.38589-.66307-9.21888-1.85937-1.96811,1.18592-4.22628,1.85937-6.62936,1.85937-2.93661,0-5.66085-1.00485-7.90341-2.71906-1.80234,13.57457-13.42442,24.04164-27.49623,24.04164-7.96031,0-15.1335-3.35103-20.18837-8.72176-4.2106,7.1058-11.96386,11.87579-20.83059,11.87579-10.47744,0-19.40631-6.66552-22.7624-15.98802-5.45886,14.50685-19.46334,24.82889-35.88127,24.82889-15.24743,0-28.41289-8.90295-34.58648-21.79384-6.31856,7.44758-15.74979,12.17609-26.28426,12.17609-13.30524,0-24.84444-7.53558-30.5933-18.57241-2.82787.84414-5.82656,1.29998-8.92894,1.29998-13.34665,0-24.73563-8.40059-29.15866-20.20911,5.47435,5.37591,12.97895,8.69065,21.26043,8.69065,4.64576,0,9.04805-1.04102,12.9842-2.91075.02592.03629.05184.06739.08288.10368,2.9832,3.91535,6.65003,7.27663,10.82447,9.90768,6.34966,4.00867,13.86982,6.32374,21.92857,6.32374,9.17746,0,17.65575-3.00394,24.5026-8.08992,2.86928-2.12338,5.45368-4.61977,7.68074-7.41647,1.28961-1.60559,2.45492-3.31461,3.49075-5.10671.12429.10356.25377.20724.37807.3108,6.42218,5.24125,14.62596,8.38504,23.56001,8.38504,9.799,0,18.71751-3.77563,25.36754-9.95952,4.18999,2.30989,8.85642,3.86364,13.80767,4.48005.6008.07764,1.20672.13972,1.81789.18119,1.00479.08282,2.0147.12429,3.04017.12429.13985,0,.27451,0,.41436-.00518.33141,1.5693.85451,3.06615,1.54857,4.46968,3.11787,6.34953,9.65391,10.72085,17.21035,10.72085,4.76999,0,9.13599-1.74544,12.49214-4.63533.11911.04653.24341.09319.36258.12948,1.96804.73022,4.09149,1.12384,6.31337,1.12384,1.0928,0,2.15967-.09837,3.20069-.2797,4.02422-.70961,7.59786-2.73461,10.25477-5.60908,2.71388,3.57888,7.01261,5.88877,11.84993,5.88877,5.95604,0,11.08861-3.5063,13.46064-8.56117.34184-.73022.62672-1.49672.84939-2.28915,1.32071.2692,2.68796.42978,4.08118.47126.23822.00518.48169.01037.71991.01037,1.1705,0,2.32544-.08295,3.44928-.25377,1.74544-.24859,3.42348-.68887,5.01864-1.29998,4.71303-1.79197,8.71133-5.0445,11.44076-9.20339.92191.84414,1.92663,1.59522,2.99876,2.23743.66813.41436,1.36212.77687,2.07685,1.1031,2.42381,1.09286,5.11695,1.69878,7.95001,1.69878,7.97074,0,14.82277-4.82689,17.78523-11.72039.01555.33141.02074.66282.02074.99954Z"/><path class="cls-2" d="M193.10514,81.54074h-2.4601c.40393-.02579.8131-.04135,1.22746-.04135s.82347.01555,1.23264.04135Z"/><path class="cls-2" d="M193.10514,81.54074h-2.4601c.40393-.02579.8131-.04135,1.22746-.04135s.82347.01555,1.23264.04135Z"/></svg>