<?xml version="1.0" encoding="UTF-8"?><svg id="Camada_1" xmlns="http://www.w3.org/2000/svg" viewBox="0 0 477.17711 166.92969"><defs><style>.cls-1{fill:#e6f4fc;}.cls-2{fill:#afdaf6;}.cls-3{fill:#fcfdfd;}</style></defs><path class="cls-1" d="M477.17711,130.90339c0,8.88234-7.19899,16.07615-16.07608,16.07615-3.81186,0-7.31298-1.3259-10.06833-3.54259-4.49548,8.05363-13.10325,13.50212-22.98507,13.50212-3.45453,0-6.75884-.66813-9.78351-1.88516-5.73331,7.23528-14.60003,11.87579-24.54919,11.87579-11.51846,0-21.58679-6.22537-27.01972-15.49084-4.68192,2.56885-10.05796,4.02928-15.7809,4.02928-9.29664,0-17.69204-3.85845-23.66882-10.06308-5.93012,8.54044-15.812,14.12878-26.99892,14.12878-10.02173,0-18.99202-4.48511-25.01539-11.55475-6.75365,1.98366-13.89574,3.04541-21.29154,3.04541-10.17189,0-19.86727-2.00958-28.72369-5.66079-8.84599,11.68928-22.87115,19.24055-38.66241,19.24055-18.85217,0-35.1924-10.7675-43.20461-26.49138-1.66768.47644-3.43379.72503-5.25168.72503-4.93576,0-9.44161-1.84381-12.85472-4.8891-1.61583,11.73076-11.68416,20.76319-23.8552,20.76319-9.13087,0-17.07569-5.08079-21.15687-12.56984-5.65042,7.92933-14.82795,13.08776-25.19665,13.08776-8.50421,0-16.21075-3.4752-21.81982-9.0997-2.61032.88043-5.41739,1.36206-8.34363,1.36206-8.4524,0-15.91556-3.9983-20.41107-10.10974-2.05614-2.7967-3.49075-6.03886-4.11226-9.54517-.22788-1.27924-.347-2.59477-.347-3.93103,0-13.02555,11.1352-23.58594,24.87033-23.58594,2.77602,0,5.44849.42991,7.94482,1.22752,5.64018-5.86803,13.51249-9.509,22.21863-9.509,5.1222,0,9.9544,1.2585,14.21684,3.49594,3.38719-15.59958,17.2725-27.2838,33.88724-27.2838,3.75489,0,7.36994.59555,10.75714,1.70397,2.78639-10.25477,12.16067-17.79567,23.30106-17.79567,1.84381,0,3.64097.20724,5.36561.59568,6.51537-11.07312,18.56211-18.50515,32.34392-18.50515,4.98229,0,9.73679.96844,14.08212,2.73449C202.14797,14.83838,226.30879,0,253.93962,0c24.05719,0,45.48858,11.24913,59.31692,28.78065,16.304,1.38798,29.10694,15.07142,29.10694,31.73275,0,1.57449-.11399,3.12305-.33666,4.64051,7.01779,5.99751,11.54956,14.82283,11.83444,24.70977,11.43039,1.00991,21.17755,7.87749,26.22723,17.58324,4.11741-1.99909,8.74243-3.11774,13.62641-3.11774,6.70181,0,12.91162,2.10783,18.00278,5.69177,4.48511-3.5632,10.16146-5.69177,16.32992-5.69177,10.03198,0,18.75373,5.61932,23.18713,13.88006.4143-.32104.83896-.62147,1.28442-.90117,2.48078-1.5693,5.42775-2.48084,8.58185-2.48084,8.70096,0,15.78608,6.91424,16.06572,15.54268.00518.17614.01037.35733.01037.53347Z"/><path class="cls-2" d="M477.17711,130.90339c0,8.88234-7.19899,16.07615-16.07608,16.07615-3.81186,0-7.31298-1.3259-10.06833-3.54259-4.49548,8.05363-13.10325,13.50212-22.98507,13.50212-3.45453,0-6.75884-.66813-9.78351-1.88516-5.73331,7.23528-14.60003,11.87579-24.54919,11.87579-11.51846,0-21.58679-6.22537-27.01972-15.49084-4.68192,2.56885-10.05796,4.02928-15.7809,4.02928-9.29664,0-17.69204-3.85845-23.66882-10.06308-5.93012,8.54044-15.812,14.12878-26.99892,14.12878-10.02173,0-18.99202-4.48511-25.01539-11.55475-6.75365,1.98366-13.89574,3.04541-21.29154,3.04541-10.17189,0-19.86727-2.00958-28.72369-5.66079-8.84599,11.68928-22.87115,19.24055-38.66241,19.24055-18.85217,0-35.1924-10.7675-43.20461-26.49138-1.66768.47644-3.43379.72503-5.25168.72503-4.93576,0-9.44161-1.84381-12.85472-4.8891-1.61583,11.73076-11.68416,20.76319-23.8552,20.76319-9.13087,0-17.07569-5.08079-21.15687-12.56984-5.65042,7.92933-14.82795,13.08776-25.19665,13.08776-8.50421,0-16.21075-3.4752-21.81982-9.0997-2.61032.88043-5.41739,1.36206-8.34363,1.36206-8.4524,0-15.91556-3.9983-20.41107-10.10974,1.08761.14503,2.20114.2228,3.33538.2228,10.24437,0,19.04892-6.17365,22.89707-15.00415,4.94094,4.23665,11.36312,6.79512,18.38091,6.79512,6.89856,0,13.22236-2.47047,18.1322-6.5827,2.41869.53865,4.93576.82341,7.52016.82341,5.54693,0,10.78818-1.31022,15.42869-3.63578,5.28797,5.07042,12.4611,8.18311,20.36451,8.18311,9.30694,0,17.60916-4.31947,23.00587-11.06275,3.69275,1.67299,7.78942,2.59995,12.10889,2.59995,7.36994,0,14.10286-2.70338,19.26128-7.17307,3.48038,2.30989,7.65482,3.65652,12.1503,3.65652,3.96214,0,7.68074-1.0462,10.8918-2.87965,2.27885,17.93551,17.59361,31.8052,36.14541,31.8052,15.80682,0,29.26228-10.06827,34.30678-24.14002,3.73416-.71479,7.05402-2.5844,9.58664-5.22064,8.68029,11.67386,22.58115,19.23549,38.24812,19.23549,10.291,0,19.82586-3.2629,27.61528-8.81495,6.16328,12.49208,19.02825,21.08436,33.90804,21.08436,9.09976,0,17.44864-3.21624,23.97431-8.57154,5.12745,2.46529,10.87625,3.8429,16.94627,3.8429,11.28536,0,21.45731-4.76999,28.60452-12.40407,5.90944,3.4752,12.79257,5.46923,20.14178,5.46923,7.18868,0,13.9319-1.90602,19.75328-5.24138.00518.17614.01037.35733.01037.53347Z"/><path class="cls-3" d="M452.51917,117.30808c-1.46574,2.84854-3.54259,5.58834-5.30346,2.18041-2.9263-5.65561-13.86982-11.26987-23.23897-10.50842-9.36909.7612-2.39789,14.36181-10.32204,14.25813-7.92933-.09837-.80798-11.39922-17.99241-14.18049-14.10286-2.27878-9.52449,12.518-20.29718,12.97902-10.77781.46607,1.07724-11.74644-10.39974-20.57175-5.10153-3.93091-11.88616,6.88831-23.49275,4.51116-11.61165-2.37728,5.3242-14.80728,3.23186-22.80906-2.08722-7.99673-8.55081-2.84854-11.59097-7.65482s-15.99845-23.2286-29.36584-27.36675c-13.36745-4.13815-5.01346,20.40598-17.22072,20.23503-12.21251-.17095,1.89034-38.23263-29.42286-45.42643-22.72099-5.22582-37.84419,31.84668-43.5309,37.85974-5.68671,6.01294-22.47752,1.2585-24.03646,1.28948-1.55893.03629-.49206,1.75062-8.06399,4.38168-6.29782,2.18559-7.45276,1.75568-8.34881,1.9939-.90117.24353-7.51497,8.54044-19.68601,8.54044-8.78903,0-4.08637-10.80367-16.24185-8.08461s-2.8278,20.90304-13.51761,22.71575c-10.68462,1.80752-5.45886-12.17622-23.84489-13.19132-12.9634-.71985-22.41538,24.43008-27.52727,28.52688-5.10659,4.09667-8.28666-1.63139-21.33295-1.4813-13.05147.15022-20.9497,6.14773-20.9497,6.14773-2.81231-1.86973-6.18396-2.95728-9.80937-2.95728-9.79379,0-17.72827,7.93452-17.72827,17.72827l-2.139,1.4139c-.22788-1.27924-.347-2.59477-.347-3.93103,0-13.02555,11.1352-23.58594,24.87033-23.58594,2.77602,0,5.44849.42991,7.94482,1.22752,5.64018-5.86803,13.51249-9.509,22.21863-9.509,5.1222,0,9.9544,1.2585,14.21684,3.49594,3.38719-15.59958,17.2725-27.2838,33.88724-27.2838,3.75489,0,7.36994.59555,10.75714,1.70397,2.78639-10.25477,12.16067-17.79567,23.30106-17.79567,1.84381,0,3.64097.20724,5.36561.59568,6.51537-11.07312,18.56211-18.50515,32.34392-18.50515,4.98229,0,9.73679.96844,14.08212,2.73449C202.14797,14.83838,226.30879,0,253.93962,0c24.05719,0,45.48858,11.24913,59.31692,28.78065,16.304,1.38798,29.10694,15.07142,29.10694,31.73275,0,1.57449-.11399,3.12305-.33666,4.64051,7.01779,5.99751,11.54956,14.82283,11.83444,24.70977,11.43039,1.00991,21.17755,7.87749,26.22723,17.58324,4.11741-1.99909,8.74243-3.11774,13.62641-3.11774,6.70181,0,12.91162,2.10783,18.00278,5.69177,4.48511-3.5632,10.16146-5.69177,16.32992-5.69177,10.03198,0,18.75373,5.61932,23.18713,13.88006.4143-.32104.83896-.62147,1.28442-.90117Z"/></svg>