<?xml version="1.0" encoding="UTF-8"?><svg id="Camada_1" xmlns="http://www.w3.org/2000/svg" viewBox="0 0 189.76835 180.17276"><defs><style>.cls-1{fill:#6d7581;}.cls-2{fill:#4c4f62;}</style></defs><path class="cls-1" d="M189.76835,90.09111c0,49.74411-42.48135,90.08165-94.88887,90.08165-33.06521,0-62.18262-16.06511-79.15436-40.42251,7.92395,6.10123,16.83011,11.14456,26.47291,14.9129,14.55401,10.71949,32.83855,17.10398,52.68145,17.10398,40.74359,0,74.87597-26.88847,83.78213-62.99477,5.18508-9.49177,8.71731-19.87127,10.24732-30.81753.56665,3.96676.85942,8.01837.85942,12.13628Z"/><path class="cls-2" d="M178.66161,108.77236c1.4734-5.99735,2.25725-12.24949,2.25725-18.68125,0-45.1164-38.5241-81.68554-86.03938-81.68554S8.84949,44.97471,8.84949,90.09111c0,26.26521,13.06176,49.6309,33.34853,64.57205-9.6428-3.76835-18.54896-8.81168-26.47291-14.9129C5.78003,125.50799,0,108.44171,0,90.09111,0,40.33743,42.4814,0,94.87948,0c48.07247,0,87.79604,33.94354,94.02945,77.95483-1.53,10.94626-5.06224,21.32576-10.24732,30.81753Z"/></svg>