<?xml version="1.0" encoding="UTF-8"?><svg id="Camada_1" xmlns="http://www.w3.org/2000/svg" viewBox="0 0 32.32858 32.32858"><defs><style>.cls-1{fill:#fefefd;}</style></defs><path class="cls-1" d="M22.87072,9.45743c-3.49804,5.32861-8.07815,9.92295-13.41322,13.4136,3.49015-5.33538,8.08464-9.91536,13.41322-13.4136h0Z"/><path class="cls-1" d="M22.87091,22.87084c-5.32861-3.49804-9.92295-8.07815-13.4136-13.41322,5.33538,3.49015,9.91536,8.08464,13.4136,13.41322h0Z"/><path class="cls-1" d="M32.32858,16.16423c-10.63686,1.29441-21.69285,1.30447-32.32858.00027,10.63551-1.30478,21.69153-1.29452,32.32858-.00027h0Z"/><path class="cls-1" d="M16.16435,32.32858c-1.29441-10.63686-1.30447-21.69285-.00027-32.32858,1.30478,10.63551,1.29452,21.69153.00027,32.32858h0Z"/></svg>