<?xml version="1.0" encoding="UTF-8"?><svg id="Camada_1" xmlns="http://www.w3.org/2000/svg" viewBox="0 0 44.69043 44.69043"><defs><style>.cls-1{fill:#fefefd;}</style></defs><path class="cls-1" d="M29.05174,15.63841c-3.49804,5.32861-8.07815,9.92295-13.41322,13.4136,3.49015-5.33538,8.08464-9.91536,13.41322-13.4136h0Z"/><path class="cls-1" d="M29.05194,29.05182c-5.32861-3.49804-9.92295-8.07815-13.4136-13.41322,5.33538,3.49015,9.91536,8.08464,13.4136,13.41322h0Z"/><path class="cls-1" d="M22.34527,44.69043c-1.29441-14.70419-1.30447-29.98779-.00027-44.69043,1.30478,14.70233,1.29452,29.98596.00027,44.69043h0Z"/><path class="cls-1" d="M44.69043,22.34515c-14.70419,1.29441-29.98779,1.30447-44.69043.00027,14.70233-1.30478,29.98596-1.29452,44.69043-.00027h0Z"/></svg>