<?xml version="1.0" encoding="UTF-8"?><svg id="Camada_1" xmlns="http://www.w3.org/2000/svg" viewBox="0 0 27.22712 27.22712"><defs><style>.cls-1{fill:#fefefd;}</style></defs><path class="cls-1" d="M18.56191,18.56186c-4.17161-2.34104-7.56336-5.71856-9.89714-9.89675,4.17853,2.3333,7.55592,5.7252,9.89714,9.89675h0Z"/><path class="cls-1" d="M27.22712,13.6135c-8.95836,1.29441-18.26971,1.30447-27.22712.00027,8.95722-1.30478,18.2686-1.29452,27.22712-.00027h0Z"/><path class="cls-1" d="M13.61362,27.22712c-1.29441-8.95836-1.30447-18.26971-.00027-27.22712,1.30478,8.95722,1.29452,18.2686.00027,27.22712h0Z"/><path class="cls-1" d="M18.56182,8.66492c-2.34104,4.17161-5.71856,7.56336-9.89675,9.89714,2.3333-4.17853,5.7252-7.55592,9.89675-9.89714h0Z"/></svg>