<?xml version="1.0" encoding="UTF-8"?><svg id="Camada_1" xmlns="http://www.w3.org/2000/svg" viewBox="0 0 21.70324 21.70324"><defs><style>.cls-1{fill:#fefefd;}</style></defs><path class="cls-1" d="M15.79997,15.79992c-4.17161-2.34104-7.56336-5.71856-9.89714-9.89675,4.17853,2.3333,7.55592,5.7252,9.89714,9.89675h0Z"/><path class="cls-1" d="M21.70324,10.85156c-7.14087,1.29441-14.56313,1.30447-21.70324.00027,7.13997-1.30478,14.56224-1.29452,21.70324-.00027h0Z"/><path class="cls-1" d="M10.85168,21.70324c-1.29441-7.14087-1.30447-14.56313-.00027-21.70324,1.30478,7.13997,1.29452,14.56224.00027,21.70324h0Z"/><path class="cls-1" d="M15.79988,5.90298c-2.34104,4.17161-5.71856,7.56336-9.89675,9.89714,2.3333-4.17853,5.7252-7.55592,9.89675-9.89714h0Z"/></svg>