<?xml version="1.0" encoding="UTF-8"?><svg id="Camada_1" xmlns="http://www.w3.org/2000/svg" viewBox="0 0 275.29715 361.98561"><defs><style>.cls-1{fill:#fefefd;}</style></defs><circle class="cls-1" cx="17.56275" cy="311.82929" r="3.57685"/><circle class="cls-1" cx="51.86438" cy="358.75037" r="3.23524"/><circle class="cls-1" cx="154.2066" cy="341.00677" r="2.41136"/><circle class="cls-1" cx="242.52273" cy="358.30829" r="2.47165"/><circle class="cls-1" cx="212.9534" cy="296.30614" r="4.37059"/><circle class="cls-1" cx="187.48339" cy="244.55229" r="3.4161"/><ellipse class="cls-1" cx="32.97537" cy="227.37133" rx="2.35108" ry="2.83335"/><circle class="cls-1" cx="4.17969" cy="180.45025" r="4.17969"/><circle class="cls-1" cx="86.12581" cy="2.93382" r="2.93382"/><circle class="cls-1" cx="209.84877" cy="6.49058" r="3.0343"/><circle class="cls-1" cx="271.68011" cy="163.73147" r="3.61704"/><path class="cls-1" d="M251.6435,9.12299c-3.38115,0-6.12947,2.74832-6.12947,6.12947,0-3.38115-2.73893-6.12947-6.12947-6.12947,3.39054,0,6.12947-2.74838,6.12947-6.12947,0,3.38109,2.74832,6.12947,6.12947,6.12947Z"/></svg>