<?xml version="1.0" encoding="UTF-8"?><svg id="Camada_1" xmlns="http://www.w3.org/2000/svg" viewBox="0 0 212.01869 212.07212"><defs><style>.cls-1{fill:#ffa21f;}.cls-2{fill:#ffe07f;}.cls-3{fill:#ffd741;}.cls-4{fill:#ffeba7;}</style></defs><path class="cls-3" d="M196.11893,123.06713c-1.94265,9.73836,1.60426,18.97254,8.16445,22.7765-7.26136-1.74061-16.10341,2.27332-21.53928,10.4086-5.51819,8.25863-5.77314,18.15289-1.16622,24.17298-6.04566-4.38721-15.75963-4.05817-23.89197,1.37498-8.27622,5.51527-12.28011,14.56275-10.33272,21.88148-3.89727-6.37508-12.99883-9.79096-22.60146-7.88087-9.74651,1.9387-16.90993,8.75023-17.91484,16.27132-1.15996-7.38964-8.26197-14.02501-17.8647-15.93058-9.74865-1.9406-18.99115,1.61859-22.78071,8.19739,1.76118-7.26551-2.25683-16.12809-10.40443-21.57214-8.25856-5.51814-18.14261-5.77525-24.16271-1.16839,4.38723-6.0456,4.05817-15.75963-1.37501-23.89177-5.52346-8.26396-14.56277-12.28023-21.89173-10.33081,6.37502-3.89726,9.79102-12.99884,7.88297-22.59124-1.93665-9.73622-8.73794-16.90162-16.24056-17.92089,7.3651-1.17642,13.99017-8.27643,15.89977-17.85857,1.94265-9.73836-1.60632-18.9829-8.16447-22.77656,7.26136,1.74061,16.10341-2.27332,21.53928-10.4086,5.51814-8.25856,5.77314-18.15289,1.16622-24.17298,6.04567,4.38728,15.75965,4.05824,23.89191-1.37497,8.27424-5.52557,12.28016-14.56282,10.33278-21.88149,3.89726,6.37502,12.99884,9.79102,22.60147,7.88094,9.74651-1.9387,16.90992-8.75029,17.91481-16.27145,1.15794,7.37948,8.26199,14.02514,17.86471,15.93064,9.74865,1.9406,18.99114-1.61865,22.78073-8.19732-1.76121,7.26539,2.25682,16.12803,10.40443,21.57214,8.25856,5.51814,18.1426,5.77519,24.16269,1.16826-4.38721,6.04566-4.05817,15.75963,1.37497,23.89191,5.52353,8.26395,14.56284,12.28022,21.8918,10.3308-6.37502,3.89726-9.79104,12.99872-7.883,22.59111,1.93461,9.72593,8.73794,16.90162,16.24059,17.92101-7.3651,1.17642-13.9902,8.27631-15.89977,17.85857Z"/><path class="cls-1" d="M163.99698,46.34757c32.45622,32.45622,32.46325,85.07202.00708,117.52819-32.45622,32.45622-85.07909,32.45626-117.53531.00004-17.68475-17.68475-25.73163-41.35876-24.14059-64.48815.24044-3.49311.69295-6.97206,1.37882-10.41567.8273-4.22145,1.99405-8.38632,3.48603-12.45218,3.79013-10.38032,9.71564-20.15254,17.78375-28.63075.49494-.52325.98997-1.03235,1.49911-1.54149.5091-.5091,1.01819-1.00412,1.54144-1.49906,8.4782-8.06811,18.25042-13.99363,28.63075-17.78375,4.06586-1.49198,8.20954-2.65161,12.41679-3.47895,3.45073-.67884,6.94384-1.14551,10.44398-1.37882,23.12944-1.59108,46.8034,6.45585,64.48815,24.14059Z"/><path class="cls-3" d="M113.89849,28.74767c13.76027,13.76027,5.87601,43.9467-17.5999,67.42261-23.48303,23.48303-53.66942,31.36725-67.42969,17.60698-3.74058-3.74058-5.87606-8.69033-6.54074-14.38961.24044-3.49311.69295-6.97206,1.37882-10.41567.8273-4.22145,1.99405-8.38632,3.48603-12.45218,3.79013-10.38032,9.71564-20.15254,17.78375-28.63075.03535-.0495.07777-.09193.1202-.13435l.09193-.09193c.11312-.12727.22628-.24044.34648-.36063.30409-.31816.6223-.63637.94051-.95458.31816-.31816.63637-.63637.95453-.94046.1202-.1202.23336-.23336.35355-.3394l.09901-.09901c.04242-.04242.08485-.08485.13435-.1202,8.4782-8.06811,18.25042-13.99363,28.63075-17.78375,4.06586-1.49198,8.20954-2.65161,12.41679-3.47895,3.45073-.67884,6.94384-1.14551,10.44398-1.37882,5.69932.66464,10.64907,2.80012,14.38965,6.54069Z"/><path class="cls-2" d="M101.71501,27.93452c10.16816,10.16816,1.92331,34.90278-18.41305,55.23914-20.34348,20.34348-45.0781,28.58832-55.24626,18.42017-3.06178-3.06178-4.45476-7.43873-4.34872-12.62184.8273-4.22145,1.99405-8.38632,3.48603-12.45218,3.79013-10.38032,9.71564-20.15254,17.78375-28.63075-.22628.22628-.4384.45256-.6576.68592.25455-.28286.5091-.55156.7778-.82027l.09193-.09193c.11312-.12727.22628-.24044.34648-.36063.30409-.31816.6223-.63637.94051-.95458.31816-.31816.63637-.63637.95453-.94046.1202-.1202.23336-.23336.35355-.3394l.09901-.09901c.26163-.26163.53741-.52325.81319-.77072-.22628.21212-.45256.42425-.67884.65053,8.4782-8.06811,18.25042-13.99363,28.63075-17.78375,4.06586-1.49198,8.20954-2.65161,12.41679-3.47895,5.19018-.11312,9.58129,1.27986,12.65015,4.34872Z"/><path class="cls-4" d="M82.76455,28.47189c5.0841,5.0841-2.92035,21.33344-17.87564,36.28873-14.95533,14.95533-31.20467,22.95978-36.28877,17.87568-1.34348-1.34348-1.77484-3.45776-1.40714-6.11649,3.79013-10.38032,9.71564-20.15254,17.78375-28.63075-.22628.22628-.4384.45256-.6576.68592.25455-.28286.5091-.55156.7778-.82027l.09193-.09193c.11312-.12727.22628-.24044.34648-.36063.30409-.31816.6223-.63637.94051-.95458.31816-.31816.63637-.63637.95453-.94046.1202-.1202.23336-.23336.35355-.3394l.09901-.09901c.26163-.26163.53741-.52325.81319-.77072-.22628.21212-.45256.42425-.67884.65053,8.4782-8.06811,18.25042-13.99363,28.63075-17.78375,2.65873-.36771,4.77301.06366,6.11649,1.40714Z"/></svg>